solid pick guide
facet normal -0.6087614290087299 0.0 -0.7933533402912282
  outer loop
    vertex 51.22888765870068 38.8624696903894 67.19951174049196
    vertex 50.793963418208946 37.2749696903894 67.53324084794752
    vertex 50.793963418208946 38.8624696903894 67.53324084794752
  endloop
endfacet
facet normal -0.6087614290087299 0.0 -0.7933533402912282
  outer loop
    vertex 50.793963418208946 37.2749696903894 67.53324084794752
    vertex 51.22888765870068 38.8624696903894 67.19951174049196
    vertex 51.22888765870068 37.2749696903894 67.19951174049196
  endloop
endfacet
facet normal -0.7933533402912257 3.2687197439962025e-18 -0.6087614290087329
  outer loop
    vertex 51.22888765870068 38.8624696903894 67.19951174049196
    vertex 51.56261676615626 37.27496969038945 66.7645875000002
    vertex 51.22888765870068 37.2749696903894 67.19951174049196
  endloop
endfacet
facet normal -0.7933533402912257 3.2687197439962025e-18 -0.6087614290087329
  outer loop
    vertex 51.56261676615626 37.27496969038945 66.7645875000002
    vertex 51.22888765870068 38.8624696903894 67.19951174049196
    vertex 51.56261676615626 38.862469690389446 66.7645875000002
  endloop
endfacet
facet normal -0.3826834323650901 -0.0 0.9238795325112867
  outer loop
    vertex 50.79396341820893 37.27496969038945 63.895934152052874
    vertex 50.28748341292424 38.862469690389446 63.68614326479316
    vertex 50.28748341292424 37.27496969038945 63.68614326479316
  endloop
endfacet
facet normal -0.3826834323650901 -0.0 0.9238795325112867
  outer loop
    vertex 50.28748341292424 38.862469690389446 63.68614326479316
    vertex 50.79396341820893 37.27496969038945 63.895934152052874
    vertex 50.79396341820893 38.862469690389446 63.895934152052874
  endloop
endfacet
facet normal -0.6087614290087329 -0.0 0.7933533402912257
  outer loop
    vertex 51.22888765870068 37.27496969038945 64.22966325950846
    vertex 50.79396341820893 38.862469690389446 63.895934152052874
    vertex 50.79396341820893 37.27496969038945 63.895934152052874
  endloop
endfacet
facet normal -0.6087614290087329 -0.0 0.7933533402912257
  outer loop
    vertex 50.79396341820893 38.862469690389446 63.895934152052874
    vertex 51.22888765870068 37.27496969038945 64.22966325950846
    vertex 51.22888765870068 38.862469690389446 64.22966325950846
  endloop
endfacet
facet normal -0.7933533402912257 0.0 0.6087614290087329
  outer loop
    vertex 51.56261676615626 38.862469690389446 64.66458750000021
    vertex 51.22888765870068 37.27496969038945 64.22966325950846
    vertex 51.56261676615626 37.27496969038945 64.66458750000021
  endloop
endfacet
facet normal -0.7933533402912257 0.0 0.6087614290087329
  outer loop
    vertex 51.22888765870068 37.27496969038945 64.22966325950846
    vertex 51.56261676615626 38.862469690389446 64.66458750000021
    vertex 51.22888765870068 38.862469690389446 64.22966325950846
  endloop
endfacet
facet normal -0.9238795325112897 0.0 0.3826834323650829
  outer loop
    vertex 51.77240765341598 38.862469690389446 65.17106750528491
    vertex 51.56261676615626 37.27496969038945 64.66458750000021
    vertex 51.77240765341598 37.27496969038945 65.17106750528491
  endloop
endfacet
facet normal -0.9238795325112897 0.0 0.3826834323650829
  outer loop
    vertex 51.56261676615626 37.27496969038945 64.66458750000021
    vertex 51.77240765341598 38.862469690389446 65.17106750528491
    vertex 51.56261676615626 38.862469690389446 64.66458750000021
  endloop
endfacet
facet normal -0.9914448613738112 0.0 0.13052619222004605
  outer loop
    vertex 51.843963418208936 38.862469690389446 65.7145875000002
    vertex 51.77240765341598 37.27496969038945 65.17106750528491
    vertex 51.843963418208936 37.27496969038945 65.7145875000002
  endloop
endfacet
facet normal -0.9914448613738112 0.0 0.13052619222004605
  outer loop
    vertex 51.77240765341598 37.27496969038945 65.17106750528491
    vertex 51.843963418208936 38.862469690389446 65.7145875000002
    vertex 51.77240765341598 38.862469690389446 65.17106750528491
  endloop
endfacet
facet normal -0.9238795325112897 0.0 -0.3826834323650829
  outer loop
    vertex 51.56261676615626 38.862469690389446 66.7645875000002
    vertex 51.77240765341598 37.27496969038945 66.2581074947155
    vertex 51.56261676615626 37.27496969038945 66.7645875000002
  endloop
endfacet
facet normal -0.9238795325112897 0.0 -0.3826834323650829
  outer loop
    vertex 51.77240765341598 37.27496969038945 66.2581074947155
    vertex 51.56261676615626 38.862469690389446 66.7645875000002
    vertex 51.77240765341598 38.862469690389446 66.2581074947155
  endloop
endfacet
facet normal -0.9914448613738116 0.0 -0.1305261922200434
  outer loop
    vertex 51.77240765341598 38.862469690389446 66.2581074947155
    vertex 51.843963418208936 37.27496969038945 65.7145875000002
    vertex 51.77240765341598 37.27496969038945 66.2581074947155
  endloop
endfacet
facet normal -0.9914448613738116 0.0 -0.1305261922200434
  outer loop
    vertex 51.843963418208936 37.27496969038945 65.7145875000002
    vertex 51.77240765341598 38.862469690389446 66.2581074947155
    vertex 51.843963418208936 38.862469690389446 65.7145875000002
  endloop
endfacet
facet normal -0.1305261922200636 0.0 -0.9914448613738088
  outer loop
    vertex 50.28748341292424 38.8624696903894 67.74303173520724
    vertex 49.743963418208935 37.2749696903894 67.81458750000021
    vertex 49.743963418208935 38.8624696903894 67.81458750000021
  endloop
endfacet
facet normal -0.1305261922200636 0.0 -0.9914448613738088
  outer loop
    vertex 49.743963418208935 37.2749696903894 67.81458750000021
    vertex 50.28748341292424 38.8624696903894 67.74303173520724
    vertex 50.28748341292424 37.2749696903894 67.74303173520724
  endloop
endfacet
facet normal 0.1305261922200434 4.722821065439025e-18 -0.9914448613738116
  outer loop
    vertex 49.743963418208935 38.8624696903894 67.81458750000021
    vertex 49.20044342349364 37.274969690389355 67.74303173520725
    vertex 49.20044342349364 38.862469690389354 67.74303173520725
  endloop
endfacet
facet normal 0.1305261922200434 4.722821065439025e-18 -0.9914448613738116
  outer loop
    vertex 49.20044342349364 37.274969690389355 67.74303173520725
    vertex 49.743963418208935 38.8624696903894 67.81458750000021
    vertex 49.743963418208935 37.2749696903894 67.81458750000021
  endloop
endfacet
facet normal 0.3826834323651077 0.0 -0.9238795325112793
  outer loop
    vertex 49.20044342349364 38.862469690389354 67.74303173520725
    vertex 48.69396341820894 37.274969690389355 67.53324084794752
    vertex 48.69396341820894 38.862469690389354 67.53324084794752
  endloop
endfacet
facet normal 0.3826834323651077 0.0 -0.9238795325112793
  outer loop
    vertex 48.69396341820894 37.274969690389355 67.53324084794752
    vertex 49.20044342349364 38.862469690389354 67.74303173520725
    vertex 49.20044342349364 37.274969690389355 67.74303173520725
  endloop
endfacet
facet normal 0.6087614290087201 0.0 -0.7933533402912357
  outer loop
    vertex 48.69396341820894 38.862469690389354 67.53324084794752
    vertex 48.25903917771719 37.274969690389355 67.19951174049196
    vertex 48.25903917771719 38.862469690389354 67.19951174049196
  endloop
endfacet
facet normal 0.6087614290087201 0.0 -0.7933533402912357
  outer loop
    vertex 48.25903917771719 37.274969690389355 67.19951174049196
    vertex 48.69396341820894 38.862469690389354 67.53324084794752
    vertex 48.69396341820894 37.274969690389355 67.53324084794752
  endloop
endfacet
facet normal 0.7933533402912257 -0.0 -0.6087614290087329
  outer loop
    vertex 47.92531007026161 38.862469690389354 66.7645875000002
    vertex 48.25903917771719 37.274969690389355 67.19951174049196
    vertex 47.92531007026161 37.274969690389355 66.7645875000002
  endloop
endfacet
facet normal 0.7933533402912257 -0.0 -0.6087614290087329
  outer loop
    vertex 48.25903917771719 37.274969690389355 67.19951174049196
    vertex 47.92531007026161 38.862469690389354 66.7645875000002
    vertex 48.25903917771719 38.862469690389354 67.19951174049196
  endloop
endfacet
facet normal 0.9238795325112897 -0.0 -0.3826834323650829
  outer loop
    vertex 47.715519183001895 38.862469690389354 66.2581074947155
    vertex 47.92531007026161 37.274969690389355 66.7645875000002
    vertex 47.715519183001895 37.274969690389355 66.2581074947155
  endloop
endfacet
facet normal 0.9238795325112897 -0.0 -0.3826834323650829
  outer loop
    vertex 47.92531007026161 37.274969690389355 66.7645875000002
    vertex 47.715519183001895 38.862469690389354 66.2581074947155
    vertex 47.92531007026161 38.862469690389354 66.7645875000002
  endloop
endfacet
facet normal 0.9914448613738116 -0.0 -0.1305261922200434
  outer loop
    vertex 47.64396341820894 38.862469690389354 65.7145875000002
    vertex 47.715519183001895 37.274969690389355 66.2581074947155
    vertex 47.64396341820894 37.274969690389355 65.7145875000002
  endloop
endfacet
facet normal 0.9914448613738116 -0.0 -0.1305261922200434
  outer loop
    vertex 47.715519183001895 37.274969690389355 66.2581074947155
    vertex 47.64396341820894 38.862469690389354 65.7145875000002
    vertex 47.715519183001895 38.862469690389354 66.2581074947155
  endloop
endfacet
facet normal 0.9914448613738112 -0.0 0.13052619222004605
  outer loop
    vertex 47.715519183001895 38.862469690389354 65.17106750528491
    vertex 47.64396341820894 37.274969690389355 65.7145875000002
    vertex 47.715519183001895 37.274969690389355 65.17106750528491
  endloop
endfacet
facet normal 0.9914448613738112 -0.0 0.13052619222004605
  outer loop
    vertex 47.64396341820894 37.274969690389355 65.7145875000002
    vertex 47.715519183001895 38.862469690389354 65.17106750528491
    vertex 47.64396341820894 38.862469690389354 65.7145875000002
  endloop
endfacet
facet normal 0.9238795325112897 -0.0 0.3826834323650829
  outer loop
    vertex 47.92531007026161 38.862469690389354 64.66458750000021
    vertex 47.715519183001895 37.274969690389355 65.17106750528491
    vertex 47.92531007026161 37.274969690389355 64.66458750000021
  endloop
endfacet
facet normal 0.9238795325112897 -0.0 0.3826834323650829
  outer loop
    vertex 47.715519183001895 37.274969690389355 65.17106750528491
    vertex 47.92531007026161 38.862469690389354 64.66458750000021
    vertex 47.715519183001895 38.862469690389354 65.17106750528491
  endloop
endfacet
facet normal 0.7933533402912257 -3.2687197439962025e-18 0.6087614290087329
  outer loop
    vertex 48.25903917771719 37.2749696903894 64.22966325950846
    vertex 47.92531007026161 38.862469690389354 64.66458750000021
    vertex 47.92531007026161 37.274969690389355 64.66458750000021
  endloop
endfacet
facet normal 0.7933533402912257 -3.2687197439962025e-18 0.6087614290087329
  outer loop
    vertex 47.92531007026161 38.862469690389354 64.66458750000021
    vertex 48.25903917771719 37.2749696903894 64.22966325950846
    vertex 48.25903917771719 38.8624696903894 64.22966325950846
  endloop
endfacet
facet normal 0.6087614290087429 -0.0 0.7933533402912183
  outer loop
    vertex 48.69396341820893 37.2749696903894 63.895934152052874
    vertex 48.25903917771719 38.8624696903894 64.22966325950846
    vertex 48.25903917771719 37.2749696903894 64.22966325950846
  endloop
endfacet
facet normal 0.6087614290087429 -0.0 0.7933533402912183
  outer loop
    vertex 48.25903917771719 38.8624696903894 64.22966325950846
    vertex 48.69396341820893 37.2749696903894 63.895934152052874
    vertex 48.69396341820893 38.8624696903894 63.895934152052874
  endloop
endfacet
facet normal -0.1305261922200434 -4.722821065439025e-18 0.9914448613738116
  outer loop
    vertex 50.28748341292424 37.27496969038945 63.68614326479316
    vertex 49.743963418208935 38.8624696903894 63.614587500000205
    vertex 49.743963418208935 37.2749696903894 63.614587500000205
  endloop
endfacet
facet normal -0.1305261922200434 -4.722821065439025e-18 0.9914448613738116
  outer loop
    vertex 49.743963418208935 38.8624696903894 63.614587500000205
    vertex 50.28748341292424 37.27496969038945 63.68614326479316
    vertex 50.28748341292424 38.862469690389446 63.68614326479316
  endloop
endfacet
facet normal 0.3826834323650829 -0.0 0.9238795325112897
  outer loop
    vertex 49.20044342349364 37.2749696903894 63.68614326479316
    vertex 48.69396341820893 38.8624696903894 63.895934152052874
    vertex 48.69396341820893 37.2749696903894 63.895934152052874
  endloop
endfacet
facet normal 0.3826834323650829 -0.0 0.9238795325112897
  outer loop
    vertex 48.69396341820893 38.8624696903894 63.895934152052874
    vertex 49.20044342349364 37.2749696903894 63.68614326479316
    vertex 49.20044342349364 38.8624696903894 63.68614326479316
  endloop
endfacet
facet normal 0.1305261922200434 -0.0 0.9914448613738116
  outer loop
    vertex 49.743963418208935 37.2749696903894 63.614587500000205
    vertex 49.20044342349364 38.8624696903894 63.68614326479316
    vertex 49.20044342349364 37.2749696903894 63.68614326479316
  endloop
endfacet
facet normal 0.1305261922200434 -0.0 0.9914448613738116
  outer loop
    vertex 49.20044342349364 38.8624696903894 63.68614326479316
    vertex 49.743963418208935 37.2749696903894 63.614587500000205
    vertex 49.743963418208935 38.8624696903894 63.614587500000205
  endloop
endfacet
facet normal 6.661338147750939e-16 -1.0 -1.332267629550179e-15
  outer loop
    vertex 53.98896341820899 37.274969690390826 62.26657224795763
    vertex 50.28748341292424 37.27496969038945 63.68614326479316
    vertex 41.28896341820882 37.27496969039081 62.26657224795763
  endloop
endfacet
facet normal 6.661338147750939e-16 -1.0 -1.332267629550179e-15
  outer loop
    vertex 50.28748341292424 37.27496969038945 63.68614326479316
    vertex 53.98896341820899 37.274969690390826 62.26657224795763
    vertex 50.79396341820893 37.27496969038945 63.895934152052874
  endloop
endfacet
facet normal 6.661338147750939e-16 -1.0 -1.332267629550179e-15
  outer loop
    vertex 50.79396341820893 37.27496969038945 63.895934152052874
    vertex 53.98896341820899 37.274969690390826 62.26657224795763
    vertex 51.22888765870068 37.27496969038945 64.22966325950846
  endloop
endfacet
facet normal 6.661338147750939e-16 -1.0 -1.332267629550179e-15
  outer loop
    vertex 51.22888765870068 37.27496969038945 64.22966325950846
    vertex 53.98896341820899 37.274969690390826 62.26657224795763
    vertex 51.56261676615626 37.27496969038945 64.66458750000021
  endloop
endfacet
facet normal 6.661338147750939e-16 -1.0 -1.332267629550179e-15
  outer loop
    vertex 51.56261676615626 37.27496969038945 64.66458750000021
    vertex 53.98896341820899 37.274969690390826 62.26657224795763
    vertex 51.77240765341598 37.27496969038945 65.17106750528491
  endloop
endfacet
facet normal 6.661338147750939e-16 -1.0 -1.332267629550179e-15
  outer loop
    vertex 51.77240765341598 37.27496969038945 65.17106750528491
    vertex 53.98896341820899 37.274969690390826 62.26657224795763
    vertex 51.843963418208936 37.27496969038945 65.7145875000002
  endloop
endfacet
facet normal 6.661338147750939e-16 -1.0 -1.332267629550179e-15
  outer loop
    vertex 51.843963418208936 37.27496969038945 65.7145875000002
    vertex 53.98896341820899 37.274969690390826 62.26657224795763
    vertex 53.98896341820881 37.27496969039088 94.01657224795764
  endloop
endfacet
facet normal 6.661338147750939e-16 -1.0 -1.332267629550179e-15
  outer loop
    vertex 41.28896341820882 37.27496969039081 62.26657224795763
    vertex 50.28748341292424 37.27496969038945 63.68614326479316
    vertex 49.743963418208935 37.2749696903894 63.614587500000205
  endloop
endfacet
facet normal 6.661338147750939e-16 -1.0 -1.332267629550179e-15
  outer loop
    vertex 51.843963418208936 37.27496969038945 65.7145875000002
    vertex 53.98896341820881 37.27496969039088 94.01657224795764
    vertex 51.77240765341598 37.27496969038945 66.2581074947155
  endloop
endfacet
facet normal 6.661338147750939e-16 -1.0 -1.332267629550179e-15
  outer loop
    vertex 51.77240765341598 37.27496969038945 66.2581074947155
    vertex 53.98896341820881 37.27496969039088 94.01657224795764
    vertex 51.56261676615626 37.27496969038945 66.7645875000002
  endloop
endfacet
facet normal 6.661338147750939e-16 -1.0 -1.332267629550179e-15
  outer loop
    vertex 51.56261676615626 37.27496969038945 66.7645875000002
    vertex 53.98896341820881 37.27496969039088 94.01657224795764
    vertex 51.22888765870068 37.2749696903894 67.19951174049196
  endloop
endfacet
facet normal 6.661338147750939e-16 -1.0 -1.332267629550179e-15
  outer loop
    vertex 51.22888765870068 37.2749696903894 67.19951174049196
    vertex 53.98896341820881 37.27496969039088 94.01657224795764
    vertex 50.793963418208946 37.2749696903894 67.53324084794752
  endloop
endfacet
facet normal 6.661338147750939e-16 -1.0 -1.332267629550179e-15
  outer loop
    vertex 50.793963418208946 37.2749696903894 67.53324084794752
    vertex 53.98896341820881 37.27496969039088 94.01657224795764
    vertex 50.28748341292424 37.2749696903894 67.74303173520724
  endloop
endfacet
facet normal 6.661338147750939e-16 -1.0 -1.332267629550179e-15
  outer loop
    vertex 50.28748341292424 37.2749696903894 67.74303173520724
    vertex 53.98896341820881 37.27496969039088 94.01657224795764
    vertex 49.743963418208935 37.2749696903894 67.81458750000021
  endloop
endfacet
facet normal 6.661338147750939e-16 -1.0 -1.332267629550179e-15
  outer loop
    vertex 41.28896341820882 37.27496969039081 62.26657224795763
    vertex 47.715519183001895 37.274969690389355 65.17106750528491
    vertex 41.2889634182088 37.27496969039088 94.01657224795764
  endloop
endfacet
facet normal 6.661338147750939e-16 -1.0 -1.332267629550179e-15
  outer loop
    vertex 47.715519183001895 37.274969690389355 65.17106750528491
    vertex 41.28896341820882 37.27496969039081 62.26657224795763
    vertex 47.92531007026161 37.274969690389355 64.66458750000021
  endloop
endfacet
facet normal 6.661338147750939e-16 -1.0 -1.332267629550179e-15
  outer loop
    vertex 47.92531007026161 37.274969690389355 64.66458750000021
    vertex 41.28896341820882 37.27496969039081 62.26657224795763
    vertex 48.25903917771719 37.2749696903894 64.22966325950846
  endloop
endfacet
facet normal 6.661338147750939e-16 -1.0 -1.332267629550179e-15
  outer loop
    vertex 48.25903917771719 37.2749696903894 64.22966325950846
    vertex 41.28896341820882 37.27496969039081 62.26657224795763
    vertex 48.69396341820893 37.2749696903894 63.895934152052874
  endloop
endfacet
facet normal 6.661338147750939e-16 -1.0 -1.332267629550179e-15
  outer loop
    vertex 48.69396341820893 37.2749696903894 63.895934152052874
    vertex 41.28896341820882 37.27496969039081 62.26657224795763
    vertex 49.20044342349364 37.2749696903894 63.68614326479316
  endloop
endfacet
facet normal 6.661338147750939e-16 -1.0 -1.332267629550179e-15
  outer loop
    vertex 49.20044342349364 37.2749696903894 63.68614326479316
    vertex 41.28896341820882 37.27496969039081 62.26657224795763
    vertex 49.743963418208935 37.2749696903894 63.614587500000205
  endloop
endfacet
facet normal 6.661338147750939e-16 -1.0 -1.332267629550179e-15
  outer loop
    vertex 41.2889634182088 37.27496969039088 94.01657224795764
    vertex 47.715519183001895 37.274969690389355 65.17106750528491
    vertex 47.64396341820894 37.274969690389355 65.7145875000002
  endloop
endfacet
facet normal 6.661338147750939e-16 -1.0 -1.332267629550179e-15
  outer loop
    vertex 41.2889634182088 37.27496969039088 94.01657224795764
    vertex 47.64396341820894 37.274969690389355 65.7145875000002
    vertex 47.715519183001895 37.274969690389355 66.2581074947155
  endloop
endfacet
facet normal 6.661338147750939e-16 -1.0 -1.332267629550179e-15
  outer loop
    vertex 41.2889634182088 37.27496969039088 94.01657224795764
    vertex 47.715519183001895 37.274969690389355 66.2581074947155
    vertex 47.92531007026161 37.274969690389355 66.7645875000002
  endloop
endfacet
facet normal 6.661338147750939e-16 -1.0 -1.332267629550179e-15
  outer loop
    vertex 41.2889634182088 37.27496969039088 94.01657224795764
    vertex 47.92531007026161 37.274969690389355 66.7645875000002
    vertex 48.25903917771719 37.274969690389355 67.19951174049196
  endloop
endfacet
facet normal 6.661338147750939e-16 -1.0 -1.332267629550179e-15
  outer loop
    vertex 41.2889634182088 37.27496969039088 94.01657224795764
    vertex 48.25903917771719 37.274969690389355 67.19951174049196
    vertex 48.69396341820894 37.274969690389355 67.53324084794752
  endloop
endfacet
facet normal 6.661338147750939e-16 -1.0 -1.332267629550179e-15
  outer loop
    vertex 41.2889634182088 37.27496969039088 94.01657224795764
    vertex 48.69396341820894 37.274969690389355 67.53324084794752
    vertex 49.20044342349364 37.274969690389355 67.74303173520725
  endloop
endfacet
facet normal 6.661338147750939e-16 -1.0 -1.332267629550179e-15
  outer loop
    vertex 41.2889634182088 37.27496969039088 94.01657224795764
    vertex 49.20044342349364 37.274969690389355 67.74303173520725
    vertex 49.743963418208935 37.2749696903894 67.81458750000021
  endloop
endfacet
facet normal 6.661338147750939e-16 -1.0 -1.332267629550179e-15
  outer loop
    vertex 41.2889634182088 37.27496969039088 94.01657224795764
    vertex 49.743963418208935 37.2749696903894 67.81458750000021
    vertex 53.98896341820881 37.27496969039088 94.01657224795764
  endloop
endfacet
facet normal 4.307056994162225e-15 1.0 3.552713678800552e-16
  outer loop
    vertex 68.91146341820841 38.862469690388345 62.26657224795766
    vertex 74.20044342349365 38.86246969038949 63.68614326479318
    vertex 83.19896341820842 38.862469690388274 62.26657224795766
  endloop
endfacet
facet normal 4.307056994162225e-15 1.0 3.552713678800552e-16
  outer loop
    vertex 74.20044342349365 38.86246969038949 63.68614326479318
    vertex 68.91146341820841 38.862469690388345 62.26657224795766
    vertex 73.69396341820895 38.86246969038949 63.89593415205291
  endloop
endfacet
facet normal 4.307056994162225e-15 1.0 3.552713678800552e-16
  outer loop
    vertex 73.69396341820895 38.86246969038949 63.89593415205291
    vertex 68.91146341820841 38.862469690388345 62.26657224795766
    vertex 73.2590391777172 38.86246969038949 64.22966325950848
  endloop
endfacet
facet normal 4.307056994162225e-15 1.0 3.552713678800552e-16
  outer loop
    vertex 73.2590391777172 38.86246969038949 64.22966325950848
    vertex 68.91146341820841 38.862469690388345 62.26657224795766
    vertex 72.92531007026162 38.86246969038949 64.66458750000024
  endloop
endfacet
facet normal 4.307056994162225e-15 1.0 3.552713678800552e-16
  outer loop
    vertex 72.92531007026162 38.86246969038949 64.66458750000024
    vertex 68.91146341820841 38.862469690388345 62.26657224795766
    vertex 72.7155191830019 38.86246969038949 65.17106750528494
  endloop
endfacet
facet normal 4.307056994162225e-15 1.0 3.552713678800552e-16
  outer loop
    vertex 72.7155191830019 38.86246969038949 65.17106750528494
    vertex 68.91146341820841 38.862469690388345 62.26657224795766
    vertex 68.91146341820841 38.862469690388345 94.01657224795765
  endloop
endfacet
facet normal 4.307056994162225e-15 1.0 3.552713678800552e-16
  outer loop
    vertex 83.19896341820842 38.862469690388274 62.26657224795766
    vertex 74.20044342349365 38.86246969038949 63.68614326479318
    vertex 74.74396341820895 38.862469690389446 63.614587500000226
  endloop
endfacet
facet normal 4.307056994162225e-15 1.0 3.552713678800552e-16
  outer loop
    vertex 72.7155191830019 38.86246969038949 65.17106750528494
    vertex 68.91146341820841 38.862469690388345 94.01657224795765
    vertex 72.64396341820895 38.86246969038949 65.71458750000022
  endloop
endfacet
facet normal 4.307056994162225e-15 1.0 3.552713678800552e-16
  outer loop
    vertex 72.64396341820895 38.86246969038949 65.71458750000022
    vertex 68.91146341820841 38.862469690388345 94.01657224795765
    vertex 72.7155191830019 38.86246969038949 66.25810749471552
  endloop
endfacet
facet normal 4.307056994162225e-15 1.0 3.552713678800552e-16
  outer loop
    vertex 72.7155191830019 38.86246969038949 66.25810749471552
    vertex 68.91146341820841 38.862469690388345 94.01657224795765
    vertex 72.92531007026162 38.862469690389446 66.76458750000023
  endloop
endfacet
facet normal 4.307056994162225e-15 1.0 3.552713678800552e-16
  outer loop
    vertex 72.92531007026162 38.862469690389446 66.76458750000023
    vertex 68.91146341820841 38.862469690388345 94.01657224795765
    vertex 73.2590391777172 38.8624696903894 67.19951174049199
  endloop
endfacet
facet normal 4.307056994162225e-15 1.0 3.552713678800552e-16
  outer loop
    vertex 73.2590391777172 38.8624696903894 67.19951174049199
    vertex 68.91146341820841 38.862469690388345 94.01657224795765
    vertex 73.69396341820895 38.8624696903894 67.53324084794755
  endloop
endfacet
facet normal 4.307056994162225e-15 1.0 3.552713678800552e-16
  outer loop
    vertex 73.69396341820895 38.8624696903894 67.53324084794755
    vertex 68.91146341820841 38.862469690388345 94.01657224795765
    vertex 74.20044342349365 38.862469690389354 67.74303173520727
  endloop
endfacet
facet normal 4.307056994162225e-15 1.0 3.552713678800552e-16
  outer loop
    vertex 74.20044342349365 38.862469690389354 67.74303173520727
    vertex 68.91146341820841 38.862469690388345 94.01657224795765
    vertex 74.74396341820895 38.862469690389354 67.81458750000023
  endloop
endfacet
facet normal 4.307056994162225e-15 1.0 3.552713678800552e-16
  outer loop
    vertex 83.19896341820842 38.862469690388274 62.26657224795766
    vertex 76.772407653416 38.86246969038931 65.17106750528494
    vertex 83.19896341820841 38.862469690388345 94.01657224795765
  endloop
endfacet
facet normal 4.307056994162225e-15 1.0 3.552713678800552e-16
  outer loop
    vertex 76.772407653416 38.86246969038931 65.17106750528494
    vertex 83.19896341820842 38.862469690388274 62.26657224795766
    vertex 76.56261676615627 38.862469690389354 64.66458750000022
  endloop
endfacet
facet normal 4.307056994162225e-15 1.0 3.552713678800552e-16
  outer loop
    vertex 76.56261676615627 38.862469690389354 64.66458750000022
    vertex 83.19896341820842 38.862469690388274 62.26657224795766
    vertex 76.22888765870069 38.8624696903894 64.22966325950848
  endloop
endfacet
facet normal 4.307056994162225e-15 1.0 3.552713678800552e-16
  outer loop
    vertex 76.22888765870069 38.8624696903894 64.22966325950848
    vertex 83.19896341820842 38.862469690388274 62.26657224795766
    vertex 75.79396341820896 38.8624696903894 63.89593415205291
  endloop
endfacet
facet normal 4.307056994162225e-15 1.0 3.552713678800552e-16
  outer loop
    vertex 75.79396341820896 38.8624696903894 63.89593415205291
    vertex 83.19896341820842 38.862469690388274 62.26657224795766
    vertex 75.28748341292425 38.862469690389446 63.68614326479318
  endloop
endfacet
facet normal 4.307056994162225e-15 1.0 3.552713678800552e-16
  outer loop
    vertex 75.28748341292425 38.862469690389446 63.68614326479318
    vertex 83.19896341820842 38.862469690388274 62.26657224795766
    vertex 74.74396341820895 38.862469690389446 63.614587500000226
  endloop
endfacet
facet normal 4.307056994162225e-15 1.0 3.552713678800552e-16
  outer loop
    vertex 83.19896341820841 38.862469690388345 94.01657224795765
    vertex 76.772407653416 38.86246969038931 65.17106750528494
    vertex 76.84396341820894 38.86246969038931 65.71458750000022
  endloop
endfacet
facet normal 4.307056994162225e-15 1.0 3.552713678800552e-16
  outer loop
    vertex 83.19896341820841 38.862469690388345 94.01657224795765
    vertex 76.84396341820894 38.86246969038931 65.71458750000022
    vertex 76.772407653416 38.86246969038931 66.25810749471552
  endloop
endfacet
facet normal 4.307056994162225e-15 1.0 3.552713678800552e-16
  outer loop
    vertex 83.19896341820841 38.862469690388345 94.01657224795765
    vertex 76.772407653416 38.86246969038931 66.25810749471552
    vertex 76.56261676615627 38.86246969038931 66.76458750000023
  endloop
endfacet
facet normal 4.307056994162225e-15 1.0 3.552713678800552e-16
  outer loop
    vertex 83.19896341820841 38.862469690388345 94.01657224795765
    vertex 76.56261676615627 38.86246969038931 66.76458750000023
    vertex 76.22888765870069 38.86246969038931 67.19951174049199
  endloop
endfacet
facet normal 4.307056994162225e-15 1.0 3.552713678800552e-16
  outer loop
    vertex 83.19896341820841 38.862469690388345 94.01657224795765
    vertex 76.22888765870069 38.86246969038931 67.19951174049199
    vertex 75.79396341820896 38.86246969038931 67.53324084794755
  endloop
endfacet
facet normal 4.307056994162225e-15 1.0 3.552713678800552e-16
  outer loop
    vertex 83.19896341820841 38.862469690388345 94.01657224795765
    vertex 75.79396341820896 38.86246969038931 67.53324084794755
    vertex 75.28748341292425 38.86246969038931 67.74303173520727
  endloop
endfacet
facet normal 4.307056994162225e-15 1.0 3.552713678800552e-16
  outer loop
    vertex 83.19896341820841 38.862469690388345 94.01657224795765
    vertex 75.28748341292425 38.86246969038931 67.74303173520727
    vertex 74.74396341820895 38.862469690389354 67.81458750000023
  endloop
endfacet
facet normal 4.307056994162225e-15 1.0 3.552713678800552e-16
  outer loop
    vertex 83.19896341820841 38.862469690388345 94.01657224795765
    vertex 74.74396341820895 38.862469690389354 67.81458750000023
    vertex 68.91146341820841 38.862469690388345 94.01657224795765
  endloop
endfacet
facet normal 1.0 -7.105427357601002e-15 0.0
  outer loop
    vertex 83.19896341820842 38.862469690388274 62.26657224795766
    vertex 83.1989634182084 37.274969690388346 94.01657224795764
    vertex 83.19896341820841 37.274969690388275 62.26657224795763
  endloop
endfacet
facet normal 1.0 -7.105427357601002e-15 0.0
  outer loop
    vertex 83.1989634182084 37.274969690388346 94.01657224795764
    vertex 83.19896341820842 38.862469690388274 62.26657224795766
    vertex 83.19896341820841 38.862469690388345 94.01657224795765
  endloop
endfacet
facet normal -1.9417713128326363e-14 -1.0 1.213843840256845e-14
  outer loop
    vertex 67.95896341820804 26.035469690391096 94.01657224795774
    vertex 56.528963418208384 26.035469690391142 62.26657224795769
    vertex 67.95896341820804 26.035469690390915 62.26657224795769
  endloop
endfacet
facet normal -1.9417713128326363e-14 -1.0 1.213843840256845e-14
  outer loop
    vertex 56.528963418208384 26.035469690391142 62.26657224795769
    vertex 67.95896341820804 26.035469690391096 94.01657224795774
    vertex 56.52896341820837 26.035469690391338 94.01657224795764
  endloop
endfacet
facet normal -1.8371909777358552e-15 1.0 -1.361873576873529e-15
  outer loop
    vertex 41.28896341820882 38.86246969039081 62.26657224795763
    vertex 49.20044342349364 38.8624696903894 63.68614326479316
    vertex 55.57646341820881 38.86246969039088 62.26657224795763
  endloop
endfacet
facet normal -1.8371909777358552e-15 1.0 -1.361873576873529e-15
  outer loop
    vertex 49.20044342349364 38.8624696903894 63.68614326479316
    vertex 41.28896341820882 38.86246969039081 62.26657224795763
    vertex 48.69396341820893 38.8624696903894 63.895934152052874
  endloop
endfacet
facet normal -1.8371909777358552e-15 1.0 -1.361873576873529e-15
  outer loop
    vertex 48.69396341820893 38.8624696903894 63.895934152052874
    vertex 41.28896341820882 38.86246969039081 62.26657224795763
    vertex 48.25903917771719 38.8624696903894 64.22966325950846
  endloop
endfacet
facet normal -1.8371909777358552e-15 1.0 -1.361873576873529e-15
  outer loop
    vertex 48.25903917771719 38.8624696903894 64.22966325950846
    vertex 41.28896341820882 38.86246969039081 62.26657224795763
    vertex 47.92531007026161 38.862469690389354 64.66458750000021
  endloop
endfacet
facet normal -1.8371909777358552e-15 1.0 -1.361873576873529e-15
  outer loop
    vertex 47.92531007026161 38.862469690389354 64.66458750000021
    vertex 41.28896341820882 38.86246969039081 62.26657224795763
    vertex 47.715519183001895 38.862469690389354 65.17106750528491
  endloop
endfacet
facet normal -1.8371909777358552e-15 1.0 -1.361873576873529e-15
  outer loop
    vertex 47.715519183001895 38.862469690389354 65.17106750528491
    vertex 41.28896341820882 38.86246969039081 62.26657224795763
    vertex 41.2889634182088 38.86246969039088 94.01657224795764
  endloop
endfacet
facet normal -1.8371909777358552e-15 1.0 -1.361873576873529e-15
  outer loop
    vertex 55.57646341820881 38.86246969039088 62.26657224795763
    vertex 49.20044342349364 38.8624696903894 63.68614326479316
    vertex 49.743963418208935 38.8624696903894 63.614587500000205
  endloop
endfacet
facet normal -1.8371909777358552e-15 1.0 -1.361873576873529e-15
  outer loop
    vertex 47.715519183001895 38.862469690389354 65.17106750528491
    vertex 41.2889634182088 38.86246969039088 94.01657224795764
    vertex 47.64396341820894 38.862469690389354 65.7145875000002
  endloop
endfacet
facet normal -1.8371909777358552e-15 1.0 -1.361873576873529e-15
  outer loop
    vertex 47.64396341820894 38.862469690389354 65.7145875000002
    vertex 41.2889634182088 38.86246969039088 94.01657224795764
    vertex 47.715519183001895 38.862469690389354 66.2581074947155
  endloop
endfacet
facet normal -1.8371909777358552e-15 1.0 -1.361873576873529e-15
  outer loop
    vertex 47.715519183001895 38.862469690389354 66.2581074947155
    vertex 41.2889634182088 38.86246969039088 94.01657224795764
    vertex 47.92531007026161 38.862469690389354 66.7645875000002
  endloop
endfacet
facet normal -1.8371909777358552e-15 1.0 -1.361873576873529e-15
  outer loop
    vertex 47.92531007026161 38.862469690389354 66.7645875000002
    vertex 41.2889634182088 38.86246969039088 94.01657224795764
    vertex 48.25903917771719 38.862469690389354 67.19951174049196
  endloop
endfacet
facet normal -1.8371909777358552e-15 1.0 -1.361873576873529e-15
  outer loop
    vertex 48.25903917771719 38.862469690389354 67.19951174049196
    vertex 41.2889634182088 38.86246969039088 94.01657224795764
    vertex 48.69396341820894 38.862469690389354 67.53324084794752
  endloop
endfacet
facet normal -1.8371909777358552e-15 1.0 -1.361873576873529e-15
  outer loop
    vertex 48.69396341820894 38.862469690389354 67.53324084794752
    vertex 41.2889634182088 38.86246969039088 94.01657224795764
    vertex 49.20044342349364 38.862469690389354 67.74303173520725
  endloop
endfacet
facet normal -1.8371909777358552e-15 1.0 -1.361873576873529e-15
  outer loop
    vertex 49.20044342349364 38.862469690389354 67.74303173520725
    vertex 41.2889634182088 38.86246969039088 94.01657224795764
    vertex 49.743963418208935 38.8624696903894 67.81458750000021
  endloop
endfacet
facet normal -1.8371909777358552e-15 1.0 -1.361873576873529e-15
  outer loop
    vertex 55.57646341820881 38.86246969039088 62.26657224795763
    vertex 51.77240765341598 38.862469690389446 65.17106750528491
    vertex 55.57646341820881 38.86246969039088 94.01657224795764
  endloop
endfacet
facet normal -1.8371909777358552e-15 1.0 -1.361873576873529e-15
  outer loop
    vertex 51.77240765341598 38.862469690389446 65.17106750528491
    vertex 55.57646341820881 38.86246969039088 62.26657224795763
    vertex 51.56261676615626 38.862469690389446 64.66458750000021
  endloop
endfacet
facet normal -1.8371909777358552e-15 1.0 -1.361873576873529e-15
  outer loop
    vertex 51.56261676615626 38.862469690389446 64.66458750000021
    vertex 55.57646341820881 38.86246969039088 62.26657224795763
    vertex 51.22888765870068 38.862469690389446 64.22966325950846
  endloop
endfacet
facet normal -1.8371909777358552e-15 1.0 -1.361873576873529e-15
  outer loop
    vertex 51.22888765870068 38.862469690389446 64.22966325950846
    vertex 55.57646341820881 38.86246969039088 62.26657224795763
    vertex 50.79396341820893 38.862469690389446 63.895934152052874
  endloop
endfacet
facet normal -1.8371909777358552e-15 1.0 -1.361873576873529e-15
  outer loop
    vertex 50.79396341820893 38.862469690389446 63.895934152052874
    vertex 55.57646341820881 38.86246969039088 62.26657224795763
    vertex 50.28748341292424 38.862469690389446 63.68614326479316
  endloop
endfacet
facet normal -1.8371909777358552e-15 1.0 -1.361873576873529e-15
  outer loop
    vertex 50.28748341292424 38.862469690389446 63.68614326479316
    vertex 55.57646341820881 38.86246969039088 62.26657224795763
    vertex 49.743963418208935 38.8624696903894 63.614587500000205
  endloop
endfacet
facet normal -1.8371909777358552e-15 1.0 -1.361873576873529e-15
  outer loop
    vertex 55.57646341820881 38.86246969039088 94.01657224795764
    vertex 51.77240765341598 38.862469690389446 65.17106750528491
    vertex 51.843963418208936 38.862469690389446 65.7145875000002
  endloop
endfacet
facet normal -1.8371909777358552e-15 1.0 -1.361873576873529e-15
  outer loop
    vertex 55.57646341820881 38.86246969039088 94.01657224795764
    vertex 51.843963418208936 38.862469690389446 65.7145875000002
    vertex 51.77240765341598 38.862469690389446 66.2581074947155
  endloop
endfacet
facet normal -1.8371909777358552e-15 1.0 -1.361873576873529e-15
  outer loop
    vertex 55.57646341820881 38.86246969039088 94.01657224795764
    vertex 51.77240765341598 38.862469690389446 66.2581074947155
    vertex 51.56261676615626 38.862469690389446 66.7645875000002
  endloop
endfacet
facet normal -1.8371909777358552e-15 1.0 -1.361873576873529e-15
  outer loop
    vertex 55.57646341820881 38.86246969039088 94.01657224795764
    vertex 51.56261676615626 38.862469690389446 66.7645875000002
    vertex 51.22888765870068 38.8624696903894 67.19951174049196
  endloop
endfacet
facet normal -1.8371909777358552e-15 1.0 -1.361873576873529e-15
  outer loop
    vertex 55.57646341820881 38.86246969039088 94.01657224795764
    vertex 51.22888765870068 38.8624696903894 67.19951174049196
    vertex 50.793963418208946 38.8624696903894 67.53324084794752
  endloop
endfacet
facet normal -1.8371909777358552e-15 1.0 -1.361873576873529e-15
  outer loop
    vertex 55.57646341820881 38.86246969039088 94.01657224795764
    vertex 50.793963418208946 38.8624696903894 67.53324084794752
    vertex 50.28748341292424 38.8624696903894 67.74303173520724
  endloop
endfacet
facet normal -1.8371909777358552e-15 1.0 -1.361873576873529e-15
  outer loop
    vertex 55.57646341820881 38.86246969039088 94.01657224795764
    vertex 50.28748341292424 38.8624696903894 67.74303173520724
    vertex 49.743963418208935 38.8624696903894 67.81458750000021
  endloop
endfacet
facet normal -1.8371909777358552e-15 1.0 -1.361873576873529e-15
  outer loop
    vertex 55.57646341820881 38.86246969039088 94.01657224795764
    vertex 49.743963418208935 38.8624696903894 67.81458750000021
    vertex 41.2889634182088 38.86246969039088 94.01657224795764
  endloop
endfacet
facet normal -1.0 -6.661338147750939e-16 0.0
  outer loop
    vertex 41.2889634182088 37.27496969039088 94.01657224795764
    vertex 41.28896341820882 38.86246969039081 62.26657224795763
    vertex 41.28896341820882 37.27496969039081 62.26657224795763
  endloop
endfacet
facet normal -1.0 -6.661338147750939e-16 0.0
  outer loop
    vertex 41.28896341820882 38.86246969039081 62.26657224795763
    vertex 41.2889634182088 37.27496969039088 94.01657224795764
    vertex 41.2889634182088 38.86246969039088 94.01657224795764
  endloop
endfacet
facet normal 0.9754027940845271 0.2204300099625672 1.1127712699065832e-14
  outer loop
    vertex 53.98896341820899 37.274969690390826 62.26657224795763
    vertex 56.52896341820837 26.035469690391338 94.01657224795764
    vertex 56.528963418208384 26.035469690391142 62.26657224795769
  endloop
endfacet
facet normal 0.9754027940845271 0.2204300099625672 1.1127712699065832e-14
  outer loop
    vertex 56.52896341820837 26.035469690391338 94.01657224795764
    vertex 53.98896341820899 37.274969690390826 62.26657224795763
    vertex 53.98896341820881 37.27496969039088 94.01657224795764
  endloop
endfacet
facet normal -0.7933533402912208 8.453327885153034e-15 -0.6087614290087394
  outer loop
    vertex 76.22888765870069 38.86246969038931 67.19951174049199
    vertex 76.56261676615625 37.2749696903883 66.76458750000023
    vertex 76.22888765870067 37.274969690388296 67.19951174049199
  endloop
endfacet
facet normal -0.7933533402912208 8.453327885153034e-15 -0.6087614290087394
  outer loop
    vertex 76.56261676615625 37.2749696903883 66.76458750000023
    vertex 76.22888765870069 38.86246969038931 67.19951174049199
    vertex 76.56261676615627 38.86246969038931 66.76458750000023
  endloop
endfacet
facet normal -0.9914448613738127 5.841566782175786e-15 -0.13052619222003461
  outer loop
    vertex 76.772407653416 38.86246969038931 66.25810749471552
    vertex 76.84396341820893 37.27496969038832 65.7145875000002
    vertex 76.772407653416 37.2749696903883 66.25810749471549
  endloop
endfacet
facet normal -0.9914448613738127 5.841566782175786e-15 -0.13052619222003461
  outer loop
    vertex 76.84396341820893 37.27496969038832 65.7145875000002
    vertex 76.772407653416 38.86246969038931 66.25810749471552
    vertex 76.84396341820894 38.86246969038931 65.71458750000022
  endloop
endfacet
facet normal -0.9238795325112905 7.36097344714861e-15 -0.3826834323650808
  outer loop
    vertex 76.56261676615627 38.86246969038931 66.76458750000023
    vertex 76.772407653416 37.2749696903883 66.25810749471549
    vertex 76.56261676615625 37.2749696903883 66.76458750000023
  endloop
endfacet
facet normal -0.9238795325112905 7.36097344714861e-15 -0.3826834323650808
  outer loop
    vertex 76.772407653416 37.2749696903883 66.25810749471549
    vertex 76.56261676615627 38.86246969038931 66.76458750000023
    vertex 76.772407653416 38.86246969038931 66.25810749471552
  endloop
endfacet
facet normal -0.13052619222005965 1.733597573074436e-14 -0.9914448613738094
  outer loop
    vertex 74.74396341820895 38.862469690389354 67.81458750000023
    vertex 75.28748341292422 37.2749696903883 67.74303173520724
    vertex 74.74396341820889 37.2749696903883 67.81458750000021
  endloop
endfacet
facet normal -0.13052619222005965 1.733597573074436e-14 -0.9914448613738094
  outer loop
    vertex 75.28748341292422 37.2749696903883 67.74303173520724
    vertex 74.74396341820895 38.862469690389354 67.81458750000023
    vertex 75.28748341292425 38.86246969038931 67.74303173520727
  endloop
endfacet
facet normal -0.608761429008717 1.428971529584107e-14 -0.7933533402912379
  outer loop
    vertex 75.79396341820896 38.86246969038931 67.53324084794755
    vertex 76.22888765870067 37.274969690388296 67.19951174049199
    vertex 75.79396341820893 37.2749696903883 67.53324084794752
  endloop
endfacet
facet normal -0.608761429008717 1.428971529584107e-14 -0.7933533402912379
  outer loop
    vertex 76.22888765870067 37.274969690388296 67.19951174049199
    vertex 75.79396341820896 38.86246969038931 67.53324084794755
    vertex 76.22888765870069 38.86246969038931 67.19951174049199
  endloop
endfacet
facet normal -0.3826834323650829 1.856737647009809e-14 -0.9238795325112897
  outer loop
    vertex 75.28748341292425 38.86246969038931 67.74303173520727
    vertex 75.79396341820893 37.2749696903883 67.53324084794752
    vertex 75.28748341292422 37.2749696903883 67.74303173520724
  endloop
endfacet
facet normal -0.3826834323650829 1.856737647009809e-14 -0.9238795325112897
  outer loop
    vertex 75.79396341820893 37.2749696903883 67.53324084794752
    vertex 75.28748341292425 38.86246969038931 67.74303173520727
    vertex 75.79396341820896 38.86246969038931 67.53324084794755
  endloop
endfacet
facet normal 0.608761429008725 -3.866636878702004e-15 -0.793353340291232
  outer loop
    vertex 73.2590391777172 38.8624696903894 67.19951174049199
    vertex 73.69396341820891 37.27496969038831 67.53324084794752
    vertex 73.25903917771717 37.27496969038832 67.19951174049196
  endloop
endfacet
facet normal 0.608761429008725 -3.866636878702004e-15 -0.793353340291232
  outer loop
    vertex 73.69396341820891 37.27496969038831 67.53324084794752
    vertex 73.2590391777172 38.8624696903894 67.19951174049199
    vertex 73.69396341820895 38.8624696903894 67.53324084794755
  endloop
endfacet
facet normal 0.13052619222007508 1.3436875140253349e-14 -0.9914448613738075
  outer loop
    vertex 74.20044342349365 38.862469690389354 67.74303173520727
    vertex 74.74396341820889 37.2749696903883 67.81458750000021
    vertex 74.20044342349361 37.2749696903883 67.74303173520724
  endloop
endfacet
facet normal 0.13052619222007508 1.3436875140253349e-14 -0.9914448613738075
  outer loop
    vertex 74.74396341820889 37.2749696903883 67.81458750000021
    vertex 74.20044342349365 38.862469690389354 67.74303173520727
    vertex 74.74396341820895 38.862469690389354 67.81458750000023
  endloop
endfacet
facet normal 0.38268343236508134 5.540400725685119e-15 -0.9238795325112903
  outer loop
    vertex 73.69396341820895 38.8624696903894 67.53324084794755
    vertex 74.20044342349361 37.2749696903883 67.74303173520724
    vertex 73.69396341820891 37.27496969038831 67.53324084794752
  endloop
endfacet
facet normal 0.38268343236508134 5.540400725685119e-15 -0.9238795325112903
  outer loop
    vertex 74.20044342349361 37.2749696903883 67.74303173520724
    vertex 73.69396341820895 38.8624696903894 67.53324084794755
    vertex 74.20044342349365 38.862469690389354 67.74303173520727
  endloop
endfacet
facet normal 0.7933533402912308 -5.446999455421455e-15 -0.6087614290087265
  outer loop
    vertex 72.9253100702616 37.274969690388325 66.7645875000002
    vertex 73.2590391777172 38.8624696903894 67.19951174049199
    vertex 73.25903917771717 37.27496969038832 67.19951174049196
  endloop
endfacet
facet normal 0.7933533402912308 -5.446999455421455e-15 -0.6087614290087265
  outer loop
    vertex 73.2590391777172 38.8624696903894 67.19951174049199
    vertex 72.9253100702616 37.274969690388325 66.7645875000002
    vertex 72.92531007026162 38.862469690389446 66.76458750000023
  endloop
endfacet
facet normal -0.9914448613738109 5.654060523977832e-15 0.1305261922200474
  outer loop
    vertex 76.84396341820894 38.86246969038931 65.71458750000022
    vertex 76.77240765341598 37.274969690388325 65.17106750528492
    vertex 76.84396341820893 37.27496969038832 65.7145875000002
  endloop
endfacet
facet normal -0.9914448613738109 5.654060523977832e-15 0.1305261922200474
  outer loop
    vertex 76.77240765341598 37.274969690388325 65.17106750528492
    vertex 76.84396341820894 38.86246969038931 65.71458750000022
    vertex 76.772407653416 38.86246969038931 65.17106750528494
  endloop
endfacet
facet normal -7.105427357601002e-15 -1.0 -1.4210854715202054e-14
  outer loop
    vertex 83.19896341820841 37.274969690388275 62.26657224795763
    vertex 75.2874834129242 37.27496969038836 63.68614326479316
    vertex 70.4989634182085 37.27496969038845 62.26657224795763
  endloop
endfacet
facet normal -7.105427357601002e-15 -1.0 -1.4210854715202054e-14
  outer loop
    vertex 75.2874834129242 37.27496969038836 63.68614326479316
    vertex 83.19896341820841 37.274969690388275 62.26657224795763
    vertex 75.79396341820893 37.27496969038834 63.895934152052874
  endloop
endfacet
facet normal -7.105427357601002e-15 -1.0 -1.4210854715202054e-14
  outer loop
    vertex 75.79396341820893 37.27496969038834 63.895934152052874
    vertex 83.19896341820841 37.274969690388275 62.26657224795763
    vertex 76.22888765870069 37.27496969038834 64.22966325950843
  endloop
endfacet
facet normal -7.105427357601002e-15 -1.0 -1.4210854715202054e-14
  outer loop
    vertex 76.22888765870069 37.27496969038834 64.22966325950843
    vertex 83.19896341820841 37.274969690388275 62.26657224795763
    vertex 76.56261676615625 37.27496969038833 64.66458750000018
  endloop
endfacet
facet normal -7.105427357601002e-15 -1.0 -1.4210854715202054e-14
  outer loop
    vertex 76.56261676615625 37.27496969038833 64.66458750000018
    vertex 83.19896341820841 37.274969690388275 62.26657224795763
    vertex 76.77240765341598 37.274969690388325 65.17106750528492
  endloop
endfacet
facet normal -7.105427357601002e-15 -1.0 -1.4210854715202054e-14
  outer loop
    vertex 76.77240765341598 37.274969690388325 65.17106750528492
    vertex 83.19896341820841 37.274969690388275 62.26657224795763
    vertex 83.1989634182084 37.274969690388346 94.01657224795764
  endloop
endfacet
facet normal -7.105427357601002e-15 -1.0 -1.4210854715202054e-14
  outer loop
    vertex 70.4989634182085 37.27496969038845 62.26657224795763
    vertex 75.2874834129242 37.27496969038836 63.68614326479316
    vertex 74.7439634182089 37.27496969038836 63.614587500000205
  endloop
endfacet
facet normal -7.105427357601002e-15 -1.0 -1.4210854715202054e-14
  outer loop
    vertex 76.77240765341598 37.274969690388325 65.17106750528492
    vertex 83.1989634182084 37.274969690388346 94.01657224795764
    vertex 76.84396341820893 37.27496969038832 65.7145875000002
  endloop
endfacet
facet normal -7.105427357601002e-15 -1.0 -1.4210854715202054e-14
  outer loop
    vertex 76.84396341820893 37.27496969038832 65.7145875000002
    vertex 83.1989634182084 37.274969690388346 94.01657224795764
    vertex 76.772407653416 37.2749696903883 66.25810749471549
  endloop
endfacet
facet normal -7.105427357601002e-15 -1.0 -1.4210854715202054e-14
  outer loop
    vertex 76.772407653416 37.2749696903883 66.25810749471549
    vertex 83.1989634182084 37.274969690388346 94.01657224795764
    vertex 76.56261676615625 37.2749696903883 66.76458750000023
  endloop
endfacet
facet normal -7.105427357601002e-15 -1.0 -1.4210854715202054e-14
  outer loop
    vertex 76.56261676615625 37.2749696903883 66.76458750000023
    vertex 83.1989634182084 37.274969690388346 94.01657224795764
    vertex 76.22888765870067 37.274969690388296 67.19951174049199
  endloop
endfacet
facet normal -7.105427357601002e-15 -1.0 -1.4210854715202054e-14
  outer loop
    vertex 76.22888765870067 37.274969690388296 67.19951174049199
    vertex 83.1989634182084 37.274969690388346 94.01657224795764
    vertex 75.79396341820893 37.2749696903883 67.53324084794752
  endloop
endfacet
facet normal -7.105427357601002e-15 -1.0 -1.4210854715202054e-14
  outer loop
    vertex 75.79396341820893 37.2749696903883 67.53324084794752
    vertex 83.1989634182084 37.274969690388346 94.01657224795764
    vertex 75.28748341292422 37.2749696903883 67.74303173520724
  endloop
endfacet
facet normal -7.105427357601002e-15 -1.0 -1.4210854715202054e-14
  outer loop
    vertex 75.28748341292422 37.2749696903883 67.74303173520724
    vertex 83.1989634182084 37.274969690388346 94.01657224795764
    vertex 74.74396341820889 37.2749696903883 67.81458750000021
  endloop
endfacet
facet normal -7.105427357601002e-15 -1.0 -1.4210854715202054e-14
  outer loop
    vertex 70.4989634182085 37.27496969038845 62.26657224795763
    vertex 72.64396341820894 37.274969690388346 65.7145875000002
    vertex 70.4989634182084 37.274969690388346 94.01657224795764
  endloop
endfacet
facet normal -7.105427357601002e-15 -1.0 -1.4210854715202054e-14
  outer loop
    vertex 72.64396341820894 37.274969690388346 65.7145875000002
    vertex 70.4989634182085 37.27496969038845 62.26657224795763
    vertex 72.71551918300189 37.27496969038835 65.1710675052849
  endloop
endfacet
facet normal -7.105427357601002e-15 -1.0 -1.4210854715202054e-14
  outer loop
    vertex 72.71551918300189 37.27496969038835 65.1710675052849
    vertex 70.4989634182085 37.27496969038845 62.26657224795763
    vertex 72.92531007026162 37.27496969038836 64.66458750000024
  endloop
endfacet
facet normal -7.105427357601002e-15 -1.0 -1.4210854715202054e-14
  outer loop
    vertex 72.92531007026162 37.27496969038836 64.66458750000024
    vertex 70.4989634182085 37.27496969038845 62.26657224795763
    vertex 73.25903917771717 37.27496969038836 64.22966325950848
  endloop
endfacet
facet normal -7.105427357601002e-15 -1.0 -1.4210854715202054e-14
  outer loop
    vertex 73.25903917771717 37.27496969038836 64.22966325950848
    vertex 70.4989634182085 37.27496969038845 62.26657224795763
    vertex 73.69396341820892 37.27496969038836 63.89593415205291
  endloop
endfacet
facet normal -7.105427357601002e-15 -1.0 -1.4210854715202054e-14
  outer loop
    vertex 73.69396341820892 37.27496969038836 63.89593415205291
    vertex 70.4989634182085 37.27496969038845 62.26657224795763
    vertex 74.20044342349361 37.27496969038836 63.68614326479318
  endloop
endfacet
facet normal -7.105427357601002e-15 -1.0 -1.4210854715202054e-14
  outer loop
    vertex 74.20044342349361 37.27496969038836 63.68614326479318
    vertex 70.4989634182085 37.27496969038845 62.26657224795763
    vertex 74.7439634182089 37.27496969038836 63.614587500000205
  endloop
endfacet
facet normal -7.105427357601002e-15 -1.0 -1.4210854715202054e-14
  outer loop
    vertex 70.4989634182084 37.274969690388346 94.01657224795764
    vertex 72.64396341820894 37.274969690388346 65.7145875000002
    vertex 72.71551918300189 37.27496969038833 66.25810749471549
  endloop
endfacet
facet normal -7.105427357601002e-15 -1.0 -1.4210854715202054e-14
  outer loop
    vertex 70.4989634182084 37.274969690388346 94.01657224795764
    vertex 72.71551918300189 37.27496969038833 66.25810749471549
    vertex 72.9253100702616 37.274969690388325 66.7645875000002
  endloop
endfacet
facet normal -7.105427357601002e-15 -1.0 -1.4210854715202054e-14
  outer loop
    vertex 70.4989634182084 37.274969690388346 94.01657224795764
    vertex 72.9253100702616 37.274969690388325 66.7645875000002
    vertex 73.25903917771717 37.27496969038832 67.19951174049196
  endloop
endfacet
facet normal -7.105427357601002e-15 -1.0 -1.4210854715202054e-14
  outer loop
    vertex 70.4989634182084 37.274969690388346 94.01657224795764
    vertex 73.25903917771717 37.27496969038832 67.19951174049196
    vertex 73.69396341820891 37.27496969038831 67.53324084794752
  endloop
endfacet
facet normal -7.105427357601002e-15 -1.0 -1.4210854715202054e-14
  outer loop
    vertex 70.4989634182084 37.274969690388346 94.01657224795764
    vertex 73.69396341820891 37.27496969038831 67.53324084794752
    vertex 74.20044342349361 37.2749696903883 67.74303173520724
  endloop
endfacet
facet normal -7.105427357601002e-15 -1.0 -1.4210854715202054e-14
  outer loop
    vertex 70.4989634182084 37.274969690388346 94.01657224795764
    vertex 74.20044342349361 37.2749696903883 67.74303173520724
    vertex 74.74396341820889 37.2749696903883 67.81458750000021
  endloop
endfacet
facet normal -7.105427357601002e-15 -1.0 -1.4210854715202054e-14
  outer loop
    vertex 70.4989634182084 37.274969690388346 94.01657224795764
    vertex 74.74396341820889 37.2749696903883 67.81458750000021
    vertex 83.1989634182084 37.274969690388346 94.01657224795764
  endloop
endfacet
facet normal -0.3826834323650829 0.0 -0.9238795325112897
  outer loop
    vertex 50.793963418208946 38.8624696903894 67.53324084794752
    vertex 50.28748341292424 37.2749696903894 67.74303173520724
    vertex 50.28748341292424 38.8624696903894 67.74303173520724
  endloop
endfacet
facet normal -0.3826834323650829 0.0 -0.9238795325112897
  outer loop
    vertex 50.28748341292424 37.2749696903894 67.74303173520724
    vertex 50.793963418208946 38.8624696903894 67.53324084794752
    vertex 50.793963418208946 37.2749696903894 67.53324084794752
  endloop
endfacet
facet normal 0.9238795325112948 -3.0492250152243534e-15 -0.3826834323650705
  outer loop
    vertex 72.71551918300189 37.27496969038833 66.25810749471549
    vertex 72.92531007026162 38.862469690389446 66.76458750000023
    vertex 72.9253100702616 37.274969690388325 66.7645875000002
  endloop
endfacet
facet normal 0.9238795325112948 -3.0492250152243534e-15 -0.3826834323650705
  outer loop
    vertex 72.92531007026162 38.862469690389446 66.76458750000023
    vertex 72.71551918300189 37.27496969038833 66.25810749471549
    vertex 72.7155191830019 38.86246969038949 66.25810749471552
  endloop
endfacet
facet normal 0.9914448613738114 -4.727791442998672e-15 -0.13052619222004477
  outer loop
    vertex 72.64396341820894 37.274969690388346 65.7145875000002
    vertex 72.7155191830019 38.86246969038949 66.25810749471552
    vertex 72.71551918300189 37.27496969038833 66.25810749471549
  endloop
endfacet
facet normal 0.9914448613738114 -4.727791442998672e-15 -0.13052619222004477
  outer loop
    vertex 72.7155191830019 38.86246969038949 66.25810749471552
    vertex 72.64396341820894 37.274969690388346 65.7145875000002
    vertex 72.64396341820895 38.86246969038949 65.71458750000022
  endloop
endfacet
facet normal 0.9914448613738114 -9.362662736202238e-15 0.13052619222004475
  outer loop
    vertex 72.71551918300189 37.27496969038835 65.1710675052849
    vertex 72.64396341820895 38.86246969038949 65.71458750000022
    vertex 72.64396341820894 37.274969690388346 65.7145875000002
  endloop
endfacet
facet normal 0.9914448613738114 -9.362662736202238e-15 0.13052619222004475
  outer loop
    vertex 72.64396341820895 38.86246969038949 65.71458750000022
    vertex 72.71551918300189 37.27496969038835 65.1710675052849
    vertex 72.7155191830019 38.86246969038949 65.17106750528494
  endloop
endfacet
facet normal 0.9238795325112822 -1.0643695082975332e-14 0.3826834323651011
  outer loop
    vertex 72.92531007026162 37.27496969038836 64.66458750000024
    vertex 72.7155191830019 38.86246969038949 65.17106750528494
    vertex 72.71551918300189 37.27496969038835 65.1710675052849
  endloop
endfacet
facet normal 0.9238795325112822 -1.0643695082975332e-14 0.3826834323651011
  outer loop
    vertex 72.7155191830019 38.86246969038949 65.17106750528494
    vertex 72.92531007026162 37.27496969038836 64.66458750000024
    vertex 72.92531007026162 38.86246969038949 64.66458750000024
  endloop
endfacet
facet normal 0.7933533402912395 -9.11147400072067e-15 0.608761429008715
  outer loop
    vertex 73.2590391777172 38.86246969038949 64.22966325950848
    vertex 72.92531007026162 37.27496969038836 64.66458750000024
    vertex 73.25903917771717 37.27496969038836 64.22966325950848
  endloop
endfacet
facet normal 0.7933533402912395 -9.11147400072067e-15 0.608761429008715
  outer loop
    vertex 72.92531007026162 37.27496969038836 64.66458750000024
    vertex 73.2590391777172 38.86246969038949 64.22966325950848
    vertex 72.92531007026162 38.86246969038949 64.66458750000024
  endloop
endfacet
facet normal 0.6087614290087217 -7.995218015641026e-15 0.7933533402912345
  outer loop
    vertex 73.69396341820892 37.27496969038836 63.89593415205291
    vertex 73.2590391777172 38.86246969038949 64.22966325950848
    vertex 73.25903917771717 37.27496969038836 64.22966325950848
  endloop
endfacet
facet normal 0.6087614290087217 -7.995218015641026e-15 0.7933533402912345
  outer loop
    vertex 73.2590391777172 38.86246969038949 64.22966325950848
    vertex 73.69396341820892 37.27496969038836 63.89593415205291
    vertex 73.69396341820895 38.86246969038949 63.89593415205291
  endloop
endfacet
facet normal 0.38268343236511493 -8.157387988871628e-15 0.9238795325112763
  outer loop
    vertex 74.20044342349361 37.27496969038836 63.68614326479318
    vertex 73.69396341820895 38.86246969038949 63.89593415205291
    vertex 73.69396341820892 37.27496969038836 63.89593415205291
  endloop
endfacet
facet normal 0.38268343236511493 -8.157387988871628e-15 0.9238795325112763
  outer loop
    vertex 73.69396341820895 38.86246969038949 63.89593415205291
    vertex 74.20044342349361 37.27496969038836 63.68614326479318
    vertex 74.20044342349365 38.86246969038949 63.68614326479318
  endloop
endfacet
facet normal 0.1305261922200636 -1.0753247062936592e-14 0.9914448613738088
  outer loop
    vertex 74.7439634182089 37.27496969038836 63.614587500000205
    vertex 74.20044342349365 38.86246969038949 63.68614326479318
    vertex 74.20044342349361 37.27496969038836 63.68614326479318
  endloop
endfacet
facet normal 0.1305261922200636 -1.0753247062936592e-14 0.9914448613738088
  outer loop
    vertex 74.20044342349365 38.86246969038949 63.68614326479318
    vertex 74.7439634182089 37.27496969038836 63.614587500000205
    vertex 74.74396341820895 38.862469690389446 63.614587500000226
  endloop
endfacet
facet normal -0.13052619222004339 -1.0380089022819695e-14 0.9914448613738116
  outer loop
    vertex 75.2874834129242 37.27496969038836 63.68614326479316
    vertex 74.74396341820895 38.862469690389446 63.614587500000226
    vertex 74.7439634182089 37.27496969038836 63.614587500000205
  endloop
endfacet
facet normal -0.13052619222004339 -1.0380089022819695e-14 0.9914448613738116
  outer loop
    vertex 74.74396341820895 38.862469690389446 63.614587500000226
    vertex 75.2874834129242 37.27496969038836 63.68614326479316
    vertex 75.28748341292425 38.862469690389446 63.68614326479318
  endloop
endfacet
facet normal -0.7933533402912256 -1.1659692560941808e-14 0.608761429008733
  outer loop
    vertex 76.56261676615627 38.862469690389354 64.66458750000022
    vertex 76.22888765870069 37.27496969038834 64.22966325950843
    vertex 76.56261676615625 37.27496969038833 64.66458750000018
  endloop
endfacet
facet normal -0.7933533402912256 -1.1659692560941808e-14 0.608761429008733
  outer loop
    vertex 76.22888765870069 37.27496969038834 64.22966325950843
    vertex 76.56261676615627 38.862469690389354 64.66458750000022
    vertex 76.22888765870069 38.8624696903894 64.22966325950848
  endloop
endfacet
facet normal -0.9238795325112941 -2.332755290455581e-16 0.38268343236507196
  outer loop
    vertex 76.772407653416 38.86246969038931 65.17106750528494
    vertex 76.56261676615625 37.27496969038833 64.66458750000018
    vertex 76.77240765341598 37.274969690388325 65.17106750528492
  endloop
endfacet
facet normal -0.9238795325112941 -2.332755290455581e-16 0.38268343236507196
  outer loop
    vertex 76.56261676615625 37.27496969038833 64.66458750000018
    vertex 76.772407653416 38.86246969038931 65.17106750528494
    vertex 76.56261676615627 38.862469690389354 64.66458750000022
  endloop
endfacet
facet normal -0.3826834323650844 -8.253777072721156e-15 0.923879532511289
  outer loop
    vertex 75.79396341820893 37.27496969038834 63.895934152052874
    vertex 75.28748341292425 38.862469690389446 63.68614326479318
    vertex 75.2874834129242 37.27496969038836 63.68614326479316
  endloop
endfacet
facet normal -0.3826834323650844 -8.253777072721156e-15 0.923879532511289
  outer loop
    vertex 75.28748341292425 38.862469690389446 63.68614326479318
    vertex 75.79396341820893 37.27496969038834 63.895934152052874
    vertex 75.79396341820896 38.8624696903894 63.89593415205291
  endloop
endfacet
facet normal -0.6087614290087184 -1.3241635681309286e-14 0.7933533402912368
  outer loop
    vertex 76.22888765870069 37.27496969038834 64.22966325950843
    vertex 75.79396341820896 38.8624696903894 63.89593415205291
    vertex 75.79396341820893 37.27496969038834 63.895934152052874
  endloop
endfacet
facet normal -0.6087614290087184 -1.3241635681309286e-14 0.7933533402912368
  outer loop
    vertex 75.79396341820896 38.8624696903894 63.89593415205291
    vertex 76.22888765870069 37.27496969038834 64.22966325950843
    vertex 76.22888765870069 38.8624696903894 64.22966325950848
  endloop
endfacet
facet normal 3.054800467822508e-16 -4.755801346879656e-15 -1.0
  outer loop
    vertex 55.57646341820881 38.86246969039088 62.26657224795763
    vertex 41.28896341820882 37.27496969039081 62.26657224795763
    vertex 41.28896341820882 38.86246969039081 62.26657224795763
  endloop
endfacet
facet normal 3.054800467822508e-16 -4.755801346879656e-15 -1.0
  outer loop
    vertex 41.28896341820882 37.27496969039081 62.26657224795763
    vertex 55.57646341820881 38.86246969039088 62.26657224795763
    vertex 53.98896341820899 37.274969690390826 62.26657224795763
  endloop
endfacet
facet normal 3.054800467822508e-16 -4.755801346879656e-15 -1.0
  outer loop
    vertex 53.98896341820899 37.274969690390826 62.26657224795763
    vertex 55.57646341820881 38.86246969039088 62.26657224795763
    vertex 56.528963418208384 26.035469690391142 62.26657224795769
  endloop
endfacet
facet normal 3.054800467822508e-16 -4.755801346879656e-15 -1.0
  outer loop
    vertex 56.528963418208384 26.035469690391142 62.26657224795769
    vertex 55.57646341820881 38.86246969039088 62.26657224795763
    vertex 61.51229881424798 27.622969690391113 62.266572247957704
  endloop
endfacet
facet normal 3.054800467822508e-16 -4.755801346879656e-15 -1.0
  outer loop
    vertex 56.528963418208384 26.035469690391142 62.26657224795769
    vertex 61.51229881424798 27.622969690391113 62.266572247957704
    vertex 67.95896341820804 26.035469690390915 62.26657224795769
  endloop
endfacet
facet normal 3.054800467822508e-16 -4.755801346879656e-15 -1.0
  outer loop
    vertex 67.95896341820804 26.035469690390915 62.26657224795769
    vertex 61.51229881424798 27.622969690391113 62.266572247957704
    vertex 62.97562802216865 27.622969690391017 62.266572247957704
  endloop
endfacet
facet normal 3.054800467822508e-16 -4.755801346879656e-15 -1.0
  outer loop
    vertex 67.95896341820804 26.035469690390915 62.26657224795769
    vertex 62.97562802216865 27.622969690391017 62.266572247957704
    vertex 68.91146341820841 38.862469690388345 62.26657224795766
  endloop
endfacet
facet normal 3.054800467822508e-16 -4.755801346879656e-15 -1.0
  outer loop
    vertex 67.95896341820804 26.035469690390915 62.26657224795769
    vertex 68.91146341820841 38.862469690388345 62.26657224795766
    vertex 70.4989634182085 37.27496969038845 62.26657224795763
  endloop
endfacet
facet normal 3.054800467822508e-16 -4.755801346879656e-15 -1.0
  outer loop
    vertex 70.4989634182085 37.27496969038845 62.26657224795763
    vertex 68.91146341820841 38.862469690388345 62.26657224795766
    vertex 83.19896341820842 38.862469690388274 62.26657224795766
  endloop
endfacet
facet normal 3.054800467822508e-16 -4.755801346879656e-15 -1.0
  outer loop
    vertex 70.4989634182085 37.27496969038845 62.26657224795763
    vertex 83.19896341820842 38.862469690388274 62.26657224795766
    vertex 83.19896341820841 37.274969690388275 62.26657224795763
  endloop
endfacet
facet normal -6.358734137655497e-16 2.567267787856984e-15 1.0
  outer loop
    vertex 53.98896341820881 37.27496969039088 94.01657224795764
    vertex 41.2889634182088 38.86246969039088 94.01657224795764
    vertex 41.2889634182088 37.27496969039088 94.01657224795764
  endloop
endfacet
facet normal -6.358734137655497e-16 2.567267787856984e-15 1.0
  outer loop
    vertex 41.2889634182088 38.86246969039088 94.01657224795764
    vertex 53.98896341820881 37.27496969039088 94.01657224795764
    vertex 55.57646341820881 38.86246969039088 94.01657224795764
  endloop
endfacet
facet normal -6.358734137655497e-16 2.567267787856984e-15 1.0
  outer loop
    vertex 55.57646341820881 38.86246969039088 94.01657224795764
    vertex 53.98896341820881 37.27496969039088 94.01657224795764
    vertex 56.52896341820837 26.035469690391338 94.01657224795764
  endloop
endfacet
facet normal -6.358734137655497e-16 2.567267787856984e-15 1.0
  outer loop
    vertex 55.57646341820881 38.86246969039088 94.01657224795764
    vertex 56.52896341820837 26.035469690391338 94.01657224795764
    vertex 61.51229881424798 27.622969690391113 94.01657224795765
  endloop
endfacet
facet normal -6.358734137655497e-16 2.567267787856984e-15 1.0
  outer loop
    vertex 61.51229881424798 27.622969690391113 94.01657224795765
    vertex 56.52896341820837 26.035469690391338 94.01657224795764
    vertex 67.95896341820804 26.035469690391096 94.01657224795774
  endloop
endfacet
facet normal -6.358734137655497e-16 2.567267787856984e-15 1.0
  outer loop
    vertex 61.51229881424798 27.622969690391113 94.01657224795765
    vertex 67.95896341820804 26.035469690391096 94.01657224795774
    vertex 62.97562802216865 27.62296969039108 94.01657224795765
  endloop
endfacet
facet normal -6.358734137655497e-16 2.567267787856984e-15 1.0
  outer loop
    vertex 62.97562802216865 27.62296969039108 94.01657224795765
    vertex 67.95896341820804 26.035469690391096 94.01657224795774
    vertex 68.91146341820841 38.862469690388345 94.01657224795765
  endloop
endfacet
facet normal -6.358734137655497e-16 2.567267787856984e-15 1.0
  outer loop
    vertex 68.91146341820841 38.862469690388345 94.01657224795765
    vertex 67.95896341820804 26.035469690391096 94.01657224795774
    vertex 70.4989634182084 37.274969690388346 94.01657224795764
  endloop
endfacet
facet normal -6.358734137655497e-16 2.567267787856984e-15 1.0
  outer loop
    vertex 68.91146341820841 38.862469690388345 94.01657224795765
    vertex 70.4989634182084 37.274969690388346 94.01657224795764
    vertex 83.19896341820841 38.862469690388345 94.01657224795765
  endloop
endfacet
facet normal -6.358734137655497e-16 2.567267787856984e-15 1.0
  outer loop
    vertex 83.19896341820841 38.862469690388345 94.01657224795765
    vertex 70.4989634182084 37.274969690388346 94.01657224795764
    vertex 83.1989634182084 37.274969690388346 94.01657224795764
  endloop
endfacet
facet normal 0.9754027940845005 -0.22043000996268552 5.6585349035318154e-15
  outer loop
    vertex 70.4989634182085 37.27496969038845 62.26657224795763
    vertex 67.95896341820804 26.035469690391096 94.01657224795774
    vertex 67.95896341820804 26.035469690390915 62.26657224795769
  endloop
endfacet
facet normal 0.9754027940845005 -0.22043000996268552 5.6585349035318154e-15
  outer loop
    vertex 67.95896341820804 26.035469690391096 94.01657224795774
    vertex 70.4989634182085 37.27496969038845 62.26657224795763
    vertex 70.4989634182084 37.274969690388346 94.01657224795764
  endloop
endfacet
facet normal 4.432306055775637e-14 1.0 -9.76996261670139e-16
  outer loop
    vertex 61.51229881424798 27.622969690391113 94.01657224795765
    vertex 62.97562802216865 27.622969690391017 62.266572247957704
    vertex 61.51229881424798 27.622969690391113 62.266572247957704
  endloop
endfacet
facet normal 4.432306055775637e-14 1.0 -9.76996261670139e-16
  outer loop
    vertex 62.97562802216865 27.622969690391017 62.266572247957704
    vertex 61.51229881424798 27.622969690391113 94.01657224795765
    vertex 62.97562802216865 27.62296969039108 94.01657224795765
  endloop
endfacet
facet normal 0.8842588081760101 0.46699717361365495 4.5149331851879955e-18
  outer loop
    vertex 55.57646341820881 38.86246969039088 62.26657224795763
    vertex 61.51229881424798 27.622969690391113 94.01657224795765
    vertex 61.51229881424798 27.622969690391113 62.266572247957704
  endloop
endfacet
facet normal 0.8842588081760101 0.46699717361365495 4.5149331851879955e-18
  outer loop
    vertex 61.51229881424798 27.622969690391113 94.01657224795765
    vertex 55.57646341820881 38.86246969039088 62.26657224795763
    vertex 55.57646341820881 38.86246969039088 94.01657224795764
  endloop
endfacet
facet normal -0.8842588081759484 0.46699717361377213 -4.496283879595093e-16
  outer loop
    vertex 62.97562802216865 27.62296969039108 94.01657224795765
    vertex 68.91146341820841 38.862469690388345 62.26657224795766
    vertex 62.97562802216865 27.622969690391017 62.266572247957704
  endloop
endfacet
facet normal -0.8842588081759484 0.46699717361377213 -4.496283879595093e-16
  outer loop
    vertex 68.91146341820841 38.862469690388345 62.26657224795766
    vertex 62.97562802216865 27.62296969039108 94.01657224795765
    vertex 68.91146341820841 38.862469690388345 94.01657224795765
  endloop
endfacet
endsolid pick guide
