solid truss tightener smaller
facet normal 0.0 0.0 -1.0
  outer loop
    vertex -1.9843749999999905 3.4370383212694966 11.43
    vertex -1.9843750000000104 -3.4370383212694846 11.43
    vertex -3.96875 1.0514699965364982e-14 11.43
  endloop
endfacet
facet normal 0.0 0.0 -1.0
  outer loop
    vertex -1.9843750000000104 -3.4370383212694846 11.43
    vertex -1.9843749999999905 3.4370383212694966 11.43
    vertex 1.9843749999999882 -3.4370383212694975 11.43
  endloop
endfacet
facet normal 0.0 0.0 -1.0
  outer loop
    vertex 1.9843749999999882 -3.4370383212694975 11.43
    vertex -1.9843749999999905 3.4370383212694966 11.43
    vertex 1.984375000000009 3.4370383212694855 11.43
  endloop
endfacet
facet normal 0.0 0.0 -1.0
  outer loop
    vertex 1.9843749999999882 -3.4370383212694975 11.43
    vertex 1.984375000000009 3.4370383212694855 11.43
    vertex 3.96875 -1.0028668266953376e-14 11.43
  endloop
endfacet
facet normal -0.8660254037844372 0.5000000000000026 -0.0
  outer loop
    vertex 3.96875 -1.0028668266953376e-14 11.43
    vertex 1.9843749999999882 -3.4370383212694975 0.0
    vertex 1.9843749999999882 -3.4370383212694975 11.43
  endloop
endfacet
facet normal -0.8660254037844372 0.5000000000000026 -0.0
  outer loop
    vertex 1.9843749999999882 -3.4370383212694975 0.0
    vertex 3.96875 -1.0028668266953376e-14 11.43
    vertex 3.96875 -1.0028668266953376e-14 0.0
  endloop
endfacet
facet normal 3.197442310920452e-15 1.0 0.0
  outer loop
    vertex -1.9843750000000104 -3.4370383212694846 11.43
    vertex 1.9843749999999882 -3.4370383212694975 0.0
    vertex -1.9843750000000104 -3.4370383212694846 0.0
  endloop
endfacet
facet normal 3.197442310920452e-15 1.0 0.0
  outer loop
    vertex 1.9843749999999882 -3.4370383212694975 0.0
    vertex -1.9843750000000104 -3.4370383212694846 11.43
    vertex 1.9843749999999882 -3.4370383212694975 11.43
  endloop
endfacet
facet normal 0.86602540378444 0.4999999999999975 0.0
  outer loop
    vertex -3.96875 1.0514699965364982e-14 0.0
    vertex -1.9843750000000104 -3.4370383212694846 11.43
    vertex -1.9843750000000104 -3.4370383212694846 0.0
  endloop
endfacet
facet normal 0.86602540378444 0.4999999999999975 0.0
  outer loop
    vertex -1.9843750000000104 -3.4370383212694846 11.43
    vertex -3.96875 1.0514699965364982e-14 0.0
    vertex -3.96875 1.0514699965364982e-14 11.43
  endloop
endfacet
facet normal 0.8660254037844375 -0.5000000000000024 -0.0
  outer loop
    vertex -1.9843749999999905 3.4370383212694966 0.0
    vertex -3.96875 1.0514699965364982e-14 11.43
    vertex -3.96875 1.0514699965364982e-14 0.0
  endloop
endfacet
facet normal 0.8660254037844375 -0.5000000000000024 -0.0
  outer loop
    vertex -3.96875 1.0514699965364982e-14 11.43
    vertex -1.9843749999999905 3.4370383212694966 0.0
    vertex -1.9843749999999905 3.4370383212694966 11.43
  endloop
endfacet
facet normal -2.842170943040401e-15 -1.0 -0.0
  outer loop
    vertex 1.984375000000009 3.4370383212694855 11.43
    vertex -1.9843749999999905 3.4370383212694966 0.0
    vertex 1.984375000000009 3.4370383212694855 0.0
  endloop
endfacet
facet normal -2.842170943040401e-15 -1.0 -0.0
  outer loop
    vertex -1.9843749999999905 3.4370383212694966 0.0
    vertex 1.984375000000009 3.4370383212694855 11.43
    vertex -1.9843749999999905 3.4370383212694966 11.43
  endloop
endfacet
facet normal -0.8660254037844399 -0.4999999999999978 -0.0
  outer loop
    vertex 1.984375000000009 3.4370383212694855 11.43
    vertex 3.96875 -1.0028668266953376e-14 0.0
    vertex 3.96875 -1.0028668266953376e-14 11.43
  endloop
endfacet
facet normal -0.8660254037844399 -0.4999999999999978 -0.0
  outer loop
    vertex 3.96875 -1.0028668266953376e-14 0.0
    vertex 1.984375000000009 3.4370383212694855 11.43
    vertex 1.984375000000009 3.4370383212694855 0.0
  endloop
endfacet
facet normal -0.0 -0.0 1.0
  outer loop
    vertex 3.302 -5.719231766592433 13.969999999999997
    vertex 3.302000000000004 5.71923176659243 13.969999999999997
    vertex -3.302000000000005 -5.719231766592429 13.969999999999997
  endloop
endfacet
facet normal -0.0 -0.0 1.0
  outer loop
    vertex 3.302000000000004 5.71923176659243 13.969999999999997
    vertex 3.302 -5.719231766592433 13.969999999999997
    vertex 6.604 -3.877453913503359e-15 13.969999999999997
  endloop
endfacet
facet normal -0.0 -0.0 1.0
  outer loop
    vertex -3.302000000000005 -5.719231766592429 13.969999999999997
    vertex -3.301999999999997 5.719231766592435 13.969999999999997
    vertex -6.604 6.3449245857327695e-15 13.969999999999997
  endloop
endfacet
facet normal -0.0 -0.0 1.0
  outer loop
    vertex -3.301999999999997 5.719231766592435 13.969999999999997
    vertex -3.302000000000005 -5.719231766592429 13.969999999999997
    vertex 3.302000000000004 5.71923176659243 13.969999999999997
  endloop
endfacet
facet normal 5.337610695313247e-16 1.0 -1.2475659558783747e-32
  outer loop
    vertex -3.302000000000005 -5.719231766592429 14.763749999999998
    vertex 3.302 -5.719231766592433 13.969999999999997
    vertex -3.302000000000005 -5.719231766592429 13.969999999999997
  endloop
endfacet
facet normal 5.337610695313247e-16 1.0 -1.2475659558783747e-32
  outer loop
    vertex 3.302 -5.719231766592433 13.969999999999997
    vertex -3.302000000000005 -5.719231766592429 14.763749999999998
    vertex 3.302 -5.719231766592433 14.763749999999998
  endloop
endfacet
facet normal 0.866025403784439 0.49999999999999933 1.0120856244123855e-17
  outer loop
    vertex -6.604 6.3449245857327695e-15 13.969999999999997
    vertex -3.302000000000005 -5.719231766592429 14.763749999999998
    vertex -3.302000000000005 -5.719231766592429 13.969999999999997
  endloop
endfacet
facet normal 0.866025403784439 0.49999999999999933 1.0120856244123855e-17
  outer loop
    vertex -3.302000000000005 -5.719231766592429 14.763749999999998
    vertex -6.604 6.3449245857327695e-15 13.969999999999997
    vertex -6.604 6.3449245857327695e-15 14.763749999999998
  endloop
endfacet
facet normal 0.8660254037844384 -0.5000000000000008 -1.1686558153949097e-17
  outer loop
    vertex -3.301999999999997 5.719231766592435 13.969999999999997
    vertex -6.604 6.3449245857327695e-15 14.763749999999998
    vertex -6.604 6.3449245857327695e-15 13.969999999999997
  endloop
endfacet
facet normal 0.8660254037844384 -0.5000000000000008 -1.1686558153949097e-17
  outer loop
    vertex -6.604 6.3449245857327695e-15 14.763749999999998
    vertex -3.301999999999997 5.719231766592435 13.969999999999997
    vertex -3.301999999999997 5.719231766592435 14.763749999999998
  endloop
endfacet
facet normal -7.47265497343855e-16 -1.0 0.0
  outer loop
    vertex 3.302000000000004 5.71923176659243 14.763749999999998
    vertex -3.301999999999997 5.719231766592435 13.969999999999997
    vertex 3.302000000000004 5.71923176659243 13.969999999999997
  endloop
endfacet
facet normal -7.47265497343855e-16 -1.0 0.0
  outer loop
    vertex -3.301999999999997 5.719231766592435 13.969999999999997
    vertex 3.302000000000004 5.71923176659243 14.763749999999998
    vertex -3.301999999999997 5.719231766592435 14.763749999999998
  endloop
endfacet
facet normal -0.866025403784439 -0.4999999999999995 1.1686558153948706e-17
  outer loop
    vertex 3.302000000000004 5.71923176659243 14.763749999999998
    vertex 6.604 -3.877453913503359e-15 13.969999999999997
    vertex 6.604 -3.877453913503359e-15 14.763749999999998
  endloop
endfacet
facet normal -0.866025403784439 -0.4999999999999995 1.1686558153948706e-17
  outer loop
    vertex 6.604 -3.877453913503359e-15 13.969999999999997
    vertex 3.302000000000004 5.71923176659243 14.763749999999998
    vertex 3.302000000000004 5.71923176659243 13.969999999999997
  endloop
endfacet
facet normal -0.8660254037844385 0.5000000000000003 -2.987770165413017e-31
  outer loop
    vertex 6.604 -3.877453913503359e-15 14.763749999999998
    vertex 3.302 -5.719231766592433 13.969999999999997
    vertex 3.302 -5.719231766592433 14.763749999999998
  endloop
endfacet
facet normal -0.8660254037844385 0.5000000000000003 -2.987770165413017e-31
  outer loop
    vertex 3.302 -5.719231766592433 13.969999999999997
    vertex 6.604 -3.877453913503359e-15 14.763749999999998
    vertex 6.604 -3.877453913503359e-15 13.969999999999997
  endloop
endfacet
facet normal -1.5046327690525275e-32 2.507721281754213e-31 1.0
  outer loop
    vertex -5.7473639174842575 -5.747363917484258 20.319999999999997
    vertex -6.604 6.3449245857327695e-15 20.319999999999997
    vertex -7.039054481959916 -4.064000000000002 20.319999999999997
  endloop
endfacet
facet normal -1.5046327690525275e-32 2.507721281754213e-31 1.0
  outer loop
    vertex -6.604 6.3449245857327695e-15 20.319999999999997
    vertex -5.7473639174842575 -5.747363917484258 20.319999999999997
    vertex -3.302000000000005 -5.719231766592429 20.319999999999997
  endloop
endfacet
facet normal -1.5046327690525275e-32 2.507721281754213e-31 1.0
  outer loop
    vertex -3.302000000000005 -5.719231766592429 20.319999999999997
    vertex -5.7473639174842575 -5.747363917484258 20.319999999999997
    vertex -4.063999999999994 -7.039054481959918 20.319999999999997
  endloop
endfacet
facet normal -1.5046327690525275e-32 2.507721281754213e-31 1.0
  outer loop
    vertex -3.302000000000005 -5.719231766592429 20.319999999999997
    vertex -4.063999999999994 -7.039054481959918 20.319999999999997
    vertex -2.103681198593285 -7.851045116077546 20.319999999999997
  endloop
endfacet
facet normal -1.5046327690525275e-32 2.507721281754213e-31 1.0
  outer loop
    vertex -3.302000000000005 -5.719231766592429 20.319999999999997
    vertex -2.103681198593285 -7.851045116077546 20.319999999999997
    vertex 3.302 -5.719231766592433 20.319999999999997
  endloop
endfacet
facet normal -1.5046327690525275e-32 2.507721281754213e-31 1.0
  outer loop
    vertex 3.302 -5.719231766592433 20.319999999999997
    vertex -2.103681198593285 -7.851045116077546 20.319999999999997
    vertex 1.4930893775204527e-15 -8.127999999999998 20.319999999999997
  endloop
endfacet
facet normal -1.5046327690525275e-32 2.507721281754213e-31 1.0
  outer loop
    vertex 3.302 -5.719231766592433 20.319999999999997
    vertex 1.4930893775204527e-15 -8.127999999999998 20.319999999999997
    vertex 2.1036811985932946 -7.851045116077544 20.319999999999997
  endloop
endfacet
facet normal -1.5046327690525275e-32 2.507721281754213e-31 1.0
  outer loop
    vertex 3.302 -5.719231766592433 20.319999999999997
    vertex 2.1036811985932946 -7.851045116077544 20.319999999999997
    vertex 4.064000000000004 -7.039054481959914 20.319999999999997
  endloop
endfacet
facet normal -1.5046327690525275e-32 2.507721281754213e-31 1.0
  outer loop
    vertex 3.302 -5.719231766592433 20.319999999999997
    vertex 4.064000000000004 -7.039054481959914 20.319999999999997
    vertex 6.604 -3.877453913503359e-15 20.319999999999997
  endloop
endfacet
facet normal -1.5046327690525275e-32 2.507721281754213e-31 1.0
  outer loop
    vertex 6.604 -3.877453913503359e-15 20.319999999999997
    vertex 4.064000000000004 -7.039054481959914 20.319999999999997
    vertex 5.747363917484261 -5.747363917484253 20.319999999999997
  endloop
endfacet
facet normal -1.5046327690525275e-32 2.507721281754213e-31 1.0
  outer loop
    vertex 6.604 -3.877453913503359e-15 20.319999999999997
    vertex 5.747363917484261 -5.747363917484253 20.319999999999997
    vertex 7.039054481959918 -4.0639999999999965 20.319999999999997
  endloop
endfacet
facet normal -1.5046327690525275e-32 2.507721281754213e-31 1.0
  outer loop
    vertex 6.604 -3.877453913503359e-15 20.319999999999997
    vertex 7.039054481959918 -4.0639999999999965 20.319999999999997
    vertex 7.039054481959916 4.0640000000000045 20.319999999999997
  endloop
endfacet
facet normal -1.5046327690525275e-32 2.507721281754213e-31 1.0
  outer loop
    vertex 7.039054481959916 4.0640000000000045 20.319999999999997
    vertex 7.039054481959918 -4.0639999999999965 20.319999999999997
    vertex 7.851045116077546 2.103681198593292 20.319999999999997
  endloop
endfacet
facet normal -1.5046327690525275e-32 2.507721281754213e-31 1.0
  outer loop
    vertex 7.851045116077546 2.103681198593292 20.319999999999997
    vertex 7.039054481959918 -4.0639999999999965 20.319999999999997
    vertex 7.851045116077548 -2.1036811985932844 20.319999999999997
  endloop
endfacet
facet normal -1.5046327690525275e-32 2.507721281754213e-31 1.0
  outer loop
    vertex 7.851045116077546 2.103681198593292 20.319999999999997
    vertex 7.851045116077548 -2.1036811985932844 20.319999999999997
    vertex 8.128 2.2291282544616737e-15 20.319999999999997
  endloop
endfacet
facet normal -1.5046327690525275e-32 2.507721281754213e-31 1.0
  outer loop
    vertex -7.851045116077546 -2.1036811985932933 20.319999999999997
    vertex -7.851045116077548 2.1036811985932897 20.319999999999997
    vertex -8.128 1.233735336114705e-15 20.319999999999997
  endloop
endfacet
facet normal -1.5046327690525275e-32 2.507721281754213e-31 1.0
  outer loop
    vertex -7.851045116077548 2.1036811985932897 20.319999999999997
    vertex -7.851045116077546 -2.1036811985932933 20.319999999999997
    vertex -7.039054481959917 4.064000000000001 20.319999999999997
  endloop
endfacet
facet normal -1.5046327690525275e-32 2.507721281754213e-31 1.0
  outer loop
    vertex -7.039054481959917 4.064000000000001 20.319999999999997
    vertex -7.851045116077546 -2.1036811985932933 20.319999999999997
    vertex -7.039054481959916 -4.064000000000002 20.319999999999997
  endloop
endfacet
facet normal -1.5046327690525275e-32 2.507721281754213e-31 1.0
  outer loop
    vertex -7.039054481959917 4.064000000000001 20.319999999999997
    vertex -7.039054481959916 -4.064000000000002 20.319999999999997
    vertex -6.604 6.3449245857327695e-15 20.319999999999997
  endloop
endfacet
facet normal -1.5046327690525275e-32 2.507721281754213e-31 1.0
  outer loop
    vertex -7.039054481959917 4.064000000000001 20.319999999999997
    vertex -6.604 6.3449245857327695e-15 20.319999999999997
    vertex -5.747363917484258 5.747363917484258 20.319999999999997
  endloop
endfacet
facet normal -1.5046327690525275e-32 2.507721281754213e-31 1.0
  outer loop
    vertex -5.747363917484258 5.747363917484258 20.319999999999997
    vertex -6.604 6.3449245857327695e-15 20.319999999999997
    vertex -3.301999999999997 5.719231766592435 20.319999999999997
  endloop
endfacet
facet normal -1.5046327690525275e-32 2.507721281754213e-31 1.0
  outer loop
    vertex -5.747363917484258 5.747363917484258 20.319999999999997
    vertex -3.301999999999997 5.719231766592435 20.319999999999997
    vertex -4.064000000000001 7.039054481959918 20.319999999999997
  endloop
endfacet
facet normal -1.5046327690525275e-32 2.507721281754213e-31 1.0
  outer loop
    vertex -4.064000000000001 7.039054481959918 20.319999999999997
    vertex -3.301999999999997 5.719231766592435 20.319999999999997
    vertex -2.10368119859329 7.851045116077548 20.319999999999997
  endloop
endfacet
facet normal -1.5046327690525275e-32 2.507721281754213e-31 1.0
  outer loop
    vertex -2.10368119859329 7.851045116077548 20.319999999999997
    vertex -3.301999999999997 5.719231766592435 20.319999999999997
    vertex 3.302000000000004 5.71923176659243 20.319999999999997
  endloop
endfacet
facet normal -1.5046327690525275e-32 2.507721281754213e-31 1.0
  outer loop
    vertex -2.10368119859329 7.851045116077548 20.319999999999997
    vertex 3.302000000000004 5.71923176659243 20.319999999999997
    vertex -4.976964591734843e-16 8.128000000000002 20.319999999999997
  endloop
endfacet
facet normal -1.5046327690525275e-32 2.507721281754213e-31 1.0
  outer loop
    vertex -4.976964591734843e-16 8.128000000000002 20.319999999999997
    vertex 3.302000000000004 5.71923176659243 20.319999999999997
    vertex 2.103681198593288 7.8510451160775485 20.319999999999997
  endloop
endfacet
facet normal -1.5046327690525275e-32 2.507721281754213e-31 1.0
  outer loop
    vertex 2.103681198593288 7.8510451160775485 20.319999999999997
    vertex 3.302000000000004 5.71923176659243 20.319999999999997
    vertex 4.063999999999997 7.03905448195992 20.319999999999997
  endloop
endfacet
facet normal -1.5046327690525275e-32 2.507721281754213e-31 1.0
  outer loop
    vertex 4.063999999999997 7.03905448195992 20.319999999999997
    vertex 3.302000000000004 5.71923176659243 20.319999999999997
    vertex 6.604 -3.877453913503359e-15 20.319999999999997
  endloop
endfacet
facet normal -1.5046327690525275e-32 2.507721281754213e-31 1.0
  outer loop
    vertex 4.063999999999997 7.03905448195992 20.319999999999997
    vertex 6.604 -3.877453913503359e-15 20.319999999999997
    vertex 5.7473639174842575 5.74736391748426 20.319999999999997
  endloop
endfacet
facet normal -1.5046327690525275e-32 2.507721281754213e-31 1.0
  outer loop
    vertex 5.7473639174842575 5.74736391748426 20.319999999999997
    vertex 6.604 -3.877453913503359e-15 20.319999999999997
    vertex 7.039054481959916 4.0640000000000045 20.319999999999997
  endloop
endfacet
facet normal -0.9914448613738104 -0.13052619222005166 0.0
  outer loop
    vertex -8.128 1.233735336114705e-15 20.319999999999997
    vertex -7.851045116077546 -2.1036811985932933 -1.677880057115999e-13
    vertex -7.851045116077546 -2.1036811985932933 20.319999999999997
  endloop
endfacet
facet normal -0.9914448613738104 -0.13052619222005166 0.0
  outer loop
    vertex -7.851045116077546 -2.1036811985932933 -1.677880057115999e-13
    vertex -8.128 1.233735336114705e-15 20.319999999999997
    vertex -8.128 1.233735336114705e-15 -1.677880057115999e-13
  endloop
endfacet
facet normal -0.9914448613738105 0.1305261922200514 -0.0
  outer loop
    vertex -7.851045116077548 2.1036811985932897 20.319999999999997
    vertex -8.128 1.233735336114705e-15 -1.677880057115999e-13
    vertex -8.128 1.233735336114705e-15 20.319999999999997
  endloop
endfacet
facet normal -0.9914448613738105 0.1305261922200514 -0.0
  outer loop
    vertex -8.128 1.233735336114705e-15 -1.677880057115999e-13
    vertex -7.851045116077548 2.1036811985932897 20.319999999999997
    vertex -7.851045116077548 2.1036811985932897 -1.677880057115999e-13
  endloop
endfacet
facet normal -0.9238795325112866 0.3826834323650901 -0.0
  outer loop
    vertex -7.039054481959917 4.064000000000001 20.319999999999997
    vertex -7.851045116077548 2.1036811985932897 -1.677880057115999e-13
    vertex -7.851045116077548 2.1036811985932897 20.319999999999997
  endloop
endfacet
facet normal -0.9238795325112866 0.3826834323650901 -0.0
  outer loop
    vertex -7.851045116077548 2.1036811985932897 -1.677880057115999e-13
    vertex -7.039054481959917 4.064000000000001 20.319999999999997
    vertex -7.039054481959917 4.064000000000001 -1.677880057115999e-13
  endloop
endfacet
facet normal -0.7933533402912355 0.6087614290087204 -0.0
  outer loop
    vertex -5.747363917484258 5.747363917484258 20.319999999999997
    vertex -7.039054481959917 4.064000000000001 -1.677880057115999e-13
    vertex -7.039054481959917 4.064000000000001 20.319999999999997
  endloop
endfacet
facet normal -0.7933533402912355 0.6087614290087204 -0.0
  outer loop
    vertex -7.039054481959917 4.064000000000001 -1.677880057115999e-13
    vertex -5.747363917484258 5.747363917484258 20.319999999999997
    vertex -5.747363917484258 5.747363917484258 -1.677880057115999e-13
  endloop
endfacet
facet normal -0.6087614290087209 0.7933533402912352 -0.0
  outer loop
    vertex -5.747363917484258 5.747363917484258 20.319999999999997
    vertex -4.064000000000001 7.039054481959918 -1.677880057115999e-13
    vertex -5.747363917484258 5.747363917484258 -1.677880057115999e-13
  endloop
endfacet
facet normal -0.6087614290087209 0.7933533402912352 -0.0
  outer loop
    vertex -4.064000000000001 7.039054481959918 -1.677880057115999e-13
    vertex -5.747363917484258 5.747363917484258 20.319999999999997
    vertex -4.064000000000001 7.039054481959918 20.319999999999997
  endloop
endfacet
facet normal -0.3826834323650896 0.923879532511287 -0.0
  outer loop
    vertex -4.064000000000001 7.039054481959918 20.319999999999997
    vertex -2.10368119859329 7.851045116077548 -1.677880057115999e-13
    vertex -4.064000000000001 7.039054481959918 -1.677880057115999e-13
  endloop
endfacet
facet normal -0.3826834323650896 0.923879532511287 -0.0
  outer loop
    vertex -2.10368119859329 7.851045116077548 -1.677880057115999e-13
    vertex -4.064000000000001 7.039054481959918 20.319999999999997
    vertex -2.10368119859329 7.851045116077548 20.319999999999997
  endloop
endfacet
facet normal -0.13052619222005196 0.9914448613738104 -0.0
  outer loop
    vertex -2.10368119859329 7.851045116077548 20.319999999999997
    vertex -4.976964591734843e-16 8.128000000000002 -1.677880057115999e-13
    vertex -2.10368119859329 7.851045116077548 -1.677880057115999e-13
  endloop
endfacet
facet normal -0.13052619222005196 0.9914448613738104 -0.0
  outer loop
    vertex -4.976964591734843e-16 8.128000000000002 -1.677880057115999e-13
    vertex -2.10368119859329 7.851045116077548 20.319999999999997
    vertex -4.976964591734843e-16 8.128000000000002 20.319999999999997
  endloop
endfacet
facet normal 0.13052619222005143 0.9914448613738105 -0.0
  outer loop
    vertex -4.976964591734843e-16 8.128000000000002 20.319999999999997
    vertex 2.103681198593288 7.8510451160775485 -1.677880057115999e-13
    vertex -4.976964591734843e-16 8.128000000000002 -1.677880057115999e-13
  endloop
endfacet
facet normal 0.13052619222005143 0.9914448613738105 -0.0
  outer loop
    vertex 2.103681198593288 7.8510451160775485 -1.677880057115999e-13
    vertex -4.976964591734843e-16 8.128000000000002 20.319999999999997
    vertex 2.103681198593288 7.8510451160775485 20.319999999999997
  endloop
endfacet
facet normal 0.38268343236508967 0.9238795325112868 -0.0
  outer loop
    vertex 2.103681198593288 7.8510451160775485 20.319999999999997
    vertex 4.063999999999997 7.03905448195992 -1.677880057115999e-13
    vertex 2.103681198593288 7.8510451160775485 -1.677880057115999e-13
  endloop
endfacet
facet normal 0.38268343236508967 0.9238795325112868 -0.0
  outer loop
    vertex 4.063999999999997 7.03905448195992 -1.677880057115999e-13
    vertex 2.103681198593288 7.8510451160775485 20.319999999999997
    vertex 4.063999999999997 7.03905448195992 20.319999999999997
  endloop
endfacet
facet normal 0.6087614290087205 0.7933533402912353 -0.0
  outer loop
    vertex 4.063999999999997 7.03905448195992 20.319999999999997
    vertex 5.7473639174842575 5.74736391748426 -1.677880057115999e-13
    vertex 4.063999999999997 7.03905448195992 -1.677880057115999e-13
  endloop
endfacet
facet normal 0.6087614290087205 0.7933533402912353 -0.0
  outer loop
    vertex 5.7473639174842575 5.74736391748426 -1.677880057115999e-13
    vertex 4.063999999999997 7.03905448195992 20.319999999999997
    vertex 5.7473639174842575 5.74736391748426 20.319999999999997
  endloop
endfacet
facet normal 0.7933533402912349 0.6087614290087209 -0.0
  outer loop
    vertex 5.7473639174842575 5.74736391748426 -1.677880057115999e-13
    vertex 7.039054481959916 4.0640000000000045 20.319999999999997
    vertex 7.039054481959916 4.0640000000000045 -1.677880057115999e-13
  endloop
endfacet
facet normal 0.7933533402912349 0.6087614290087209 -0.0
  outer loop
    vertex 7.039054481959916 4.0640000000000045 20.319999999999997
    vertex 5.7473639174842575 5.74736391748426 -1.677880057115999e-13
    vertex 5.7473639174842575 5.74736391748426 20.319999999999997
  endloop
endfacet
facet normal 0.9238795325112868 0.38268343236508984 -0.0
  outer loop
    vertex 7.039054481959916 4.0640000000000045 -1.677880057115999e-13
    vertex 7.851045116077546 2.103681198593292 20.319999999999997
    vertex 7.851045116077546 2.103681198593292 -1.677880057115999e-13
  endloop
endfacet
facet normal 0.9238795325112868 0.38268343236508984 -0.0
  outer loop
    vertex 7.851045116077546 2.103681198593292 20.319999999999997
    vertex 7.039054481959916 4.0640000000000045 -1.677880057115999e-13
    vertex 7.039054481959916 4.0640000000000045 20.319999999999997
  endloop
endfacet
facet normal 0.9914448613738104 0.13052619222005196 -0.0
  outer loop
    vertex 7.851045116077546 2.103681198593292 -1.677880057115999e-13
    vertex 8.128 2.2291282544616737e-15 20.319999999999997
    vertex 8.128 2.2291282544616737e-15 -1.677880057115999e-13
  endloop
endfacet
facet normal 0.9914448613738104 0.13052619222005196 -0.0
  outer loop
    vertex 8.128 2.2291282544616737e-15 20.319999999999997
    vertex 7.851045116077546 2.103681198593292 -1.677880057115999e-13
    vertex 7.851045116077546 2.103681198593292 20.319999999999997
  endloop
endfacet
facet normal 0.9914448613738106 -0.13052619222005155 -0.0
  outer loop
    vertex 8.128 2.2291282544616737e-15 -1.677880057115999e-13
    vertex 7.851045116077548 -2.1036811985932844 20.319999999999997
    vertex 7.851045116077548 -2.1036811985932844 -1.677880057115999e-13
  endloop
endfacet
facet normal 0.9914448613738106 -0.13052619222005155 -0.0
  outer loop
    vertex 7.851045116077548 -2.1036811985932844 20.319999999999997
    vertex 8.128 2.2291282544616737e-15 -1.677880057115999e-13
    vertex 8.128 2.2291282544616737e-15 20.319999999999997
  endloop
endfacet
facet normal 0.923879532511287 -0.3826834323650892 -0.0
  outer loop
    vertex 7.851045116077548 -2.1036811985932844 -1.677880057115999e-13
    vertex 7.039054481959918 -4.0639999999999965 20.319999999999997
    vertex 7.039054481959918 -4.0639999999999965 -1.677880057115999e-13
  endloop
endfacet
facet normal 0.923879532511287 -0.3826834323650892 -0.0
  outer loop
    vertex 7.039054481959918 -4.0639999999999965 20.319999999999997
    vertex 7.851045116077548 -2.1036811985932844 -1.677880057115999e-13
    vertex 7.851045116077548 -2.1036811985932844 20.319999999999997
  endloop
endfacet
facet normal 0.7933533402912354 -0.6087614290087207 -0.0
  outer loop
    vertex 7.039054481959918 -4.0639999999999965 -1.677880057115999e-13
    vertex 5.747363917484261 -5.747363917484253 20.319999999999997
    vertex 5.747363917484261 -5.747363917484253 -1.677880057115999e-13
  endloop
endfacet
facet normal 0.7933533402912354 -0.6087614290087207 -0.0
  outer loop
    vertex 5.747363917484261 -5.747363917484253 20.319999999999997
    vertex 7.039054481959918 -4.0639999999999965 -1.677880057115999e-13
    vertex 7.039054481959918 -4.0639999999999965 20.319999999999997
  endloop
endfacet
facet normal 0.6087614290087214 -0.7933533402912346 -0.0
  outer loop
    vertex 5.747363917484261 -5.747363917484253 20.319999999999997
    vertex 4.064000000000004 -7.039054481959914 -1.677880057115999e-13
    vertex 5.747363917484261 -5.747363917484253 -1.677880057115999e-13
  endloop
endfacet
facet normal 0.6087614290087214 -0.7933533402912346 -0.0
  outer loop
    vertex 4.064000000000004 -7.039054481959914 -1.677880057115999e-13
    vertex 5.747363917484261 -5.747363917484253 20.319999999999997
    vertex 4.064000000000004 -7.039054481959914 20.319999999999997
  endloop
endfacet
facet normal 0.3826834323650904 -0.9238795325112865 -0.0
  outer loop
    vertex 4.064000000000004 -7.039054481959914 20.319999999999997
    vertex 2.1036811985932946 -7.851045116077544 -1.677880057115999e-13
    vertex 4.064000000000004 -7.039054481959914 -1.677880057115999e-13
  endloop
endfacet
facet normal 0.3826834323650904 -0.9238795325112865 -0.0
  outer loop
    vertex 2.1036811985932946 -7.851045116077544 -1.677880057115999e-13
    vertex 4.064000000000004 -7.039054481959914 20.319999999999997
    vertex 2.1036811985932946 -7.851045116077544 20.319999999999997
  endloop
endfacet
facet normal 0.13052619222005177 -0.9914448613738104 -0.0
  outer loop
    vertex 2.1036811985932946 -7.851045116077544 20.319999999999997
    vertex 1.4930893775204527e-15 -8.127999999999998 -1.677880057115999e-13
    vertex 2.1036811985932946 -7.851045116077544 -1.677880057115999e-13
  endloop
endfacet
facet normal 0.13052619222005177 -0.9914448613738104 -0.0
  outer loop
    vertex 1.4930893775204527e-15 -8.127999999999998 -1.677880057115999e-13
    vertex 2.1036811985932946 -7.851045116077544 20.319999999999997
    vertex 1.4930893775204527e-15 -8.127999999999998 20.319999999999997
  endloop
endfacet
facet normal -0.13052619222005155 -0.9914448613738106 0.0
  outer loop
    vertex 1.4930893775204527e-15 -8.127999999999998 20.319999999999997
    vertex -2.103681198593285 -7.851045116077546 -1.677880057115999e-13
    vertex 1.4930893775204527e-15 -8.127999999999998 -1.677880057115999e-13
  endloop
endfacet
facet normal -0.13052619222005155 -0.9914448613738106 0.0
  outer loop
    vertex -2.103681198593285 -7.851045116077546 -1.677880057115999e-13
    vertex 1.4930893775204527e-15 -8.127999999999998 20.319999999999997
    vertex -2.103681198593285 -7.851045116077546 20.319999999999997
  endloop
endfacet
facet normal -0.38268343236508917 -0.923879532511287 0.0
  outer loop
    vertex -2.103681198593285 -7.851045116077546 20.319999999999997
    vertex -4.063999999999994 -7.039054481959918 -1.677880057115999e-13
    vertex -2.103681198593285 -7.851045116077546 -1.677880057115999e-13
  endloop
endfacet
facet normal -0.38268343236508917 -0.923879532511287 0.0
  outer loop
    vertex -4.063999999999994 -7.039054481959918 -1.677880057115999e-13
    vertex -2.103681198593285 -7.851045116077546 20.319999999999997
    vertex -4.063999999999994 -7.039054481959918 20.319999999999997
  endloop
endfacet
facet normal -0.6087614290087199 -0.7933533402912357 0.0
  outer loop
    vertex -4.063999999999994 -7.039054481959918 20.319999999999997
    vertex -5.7473639174842575 -5.747363917484258 -1.677880057115999e-13
    vertex -4.063999999999994 -7.039054481959918 -1.677880057115999e-13
  endloop
endfacet
facet normal -0.6087614290087199 -0.7933533402912357 0.0
  outer loop
    vertex -5.7473639174842575 -5.747363917484258 -1.677880057115999e-13
    vertex -4.063999999999994 -7.039054481959918 20.319999999999997
    vertex -5.7473639174842575 -5.747363917484258 20.319999999999997
  endloop
endfacet
facet normal -0.7933533402912349 -0.6087614290087209 0.0
  outer loop
    vertex -7.039054481959916 -4.064000000000002 20.319999999999997
    vertex -5.7473639174842575 -5.747363917484258 -1.677880057115999e-13
    vertex -5.7473639174842575 -5.747363917484258 20.319999999999997
  endloop
endfacet
facet normal -0.7933533402912349 -0.6087614290087209 0.0
  outer loop
    vertex -5.7473639174842575 -5.747363917484258 -1.677880057115999e-13
    vertex -7.039054481959916 -4.064000000000002 20.319999999999997
    vertex -7.039054481959916 -4.064000000000002 -1.677880057115999e-13
  endloop
endfacet
facet normal -0.9238795325112865 -0.38268343236509045 0.0
  outer loop
    vertex -7.851045116077546 -2.1036811985932933 20.319999999999997
    vertex -7.039054481959916 -4.064000000000002 -1.677880057115999e-13
    vertex -7.039054481959916 -4.064000000000002 20.319999999999997
  endloop
endfacet
facet normal -0.9238795325112865 -0.38268343236509045 0.0
  outer loop
    vertex -7.039054481959916 -4.064000000000002 -1.677880057115999e-13
    vertex -7.851045116077546 -2.1036811985932933 20.319999999999997
    vertex -7.851045116077546 -2.1036811985932933 -1.677880057115999e-13
  endloop
endfacet
facet normal -4.3576941361628367e-16 -3.0410701562476395e-16 -1.0
  outer loop
    vertex -7.851045116077548 2.1036811985932897 -1.677880057115999e-13
    vertex -7.851045116077546 -2.1036811985932933 -1.677880057115999e-13
    vertex -8.128 1.233735336114705e-15 -1.677880057115999e-13
  endloop
endfacet
facet normal -4.3576941361628367e-16 -3.0410701562476395e-16 -1.0
  outer loop
    vertex -7.851045116077546 -2.1036811985932933 -1.677880057115999e-13
    vertex -7.851045116077548 2.1036811985932897 -1.677880057115999e-13
    vertex -7.039054481959917 4.064000000000001 -1.677880057115999e-13
  endloop
endfacet
facet normal -4.3576941361628367e-16 -3.0410701562476395e-16 -1.0
  outer loop
    vertex -7.851045116077546 -2.1036811985932933 -1.677880057115999e-13
    vertex -7.039054481959917 4.064000000000001 -1.677880057115999e-13
    vertex -7.039054481959916 -4.064000000000002 -1.677880057115999e-13
  endloop
endfacet
facet normal -4.3576941361628367e-16 -3.0410701562476395e-16 -1.0
  outer loop
    vertex -7.039054481959916 -4.064000000000002 -1.677880057115999e-13
    vertex -7.039054481959917 4.064000000000001 -1.677880057115999e-13
    vertex -5.747363917484258 5.747363917484258 -1.677880057115999e-13
  endloop
endfacet
facet normal -4.3576941361628367e-16 -3.0410701562476395e-16 -1.0
  outer loop
    vertex -7.039054481959916 -4.064000000000002 -1.677880057115999e-13
    vertex -5.747363917484258 5.747363917484258 -1.677880057115999e-13
    vertex -5.7473639174842575 -5.747363917484258 -1.677880057115999e-13
  endloop
endfacet
facet normal -4.3576941361628367e-16 -3.0410701562476395e-16 -1.0
  outer loop
    vertex -5.7473639174842575 -5.747363917484258 -1.677880057115999e-13
    vertex -5.747363917484258 5.747363917484258 -1.677880057115999e-13
    vertex -4.064000000000001 7.039054481959918 -1.677880057115999e-13
  endloop
endfacet
facet normal -4.3576941361628367e-16 -3.0410701562476395e-16 -1.0
  outer loop
    vertex -5.7473639174842575 -5.747363917484258 -1.677880057115999e-13
    vertex -4.064000000000001 7.039054481959918 -1.677880057115999e-13
    vertex -4.063999999999994 -7.039054481959918 -1.677880057115999e-13
  endloop
endfacet
facet normal -4.3576941361628367e-16 -3.0410701562476395e-16 -1.0
  outer loop
    vertex -4.063999999999994 -7.039054481959918 -1.677880057115999e-13
    vertex -4.064000000000001 7.039054481959918 -1.677880057115999e-13
    vertex -3.96875 1.0514699965364982e-14 0.0
  endloop
endfacet
facet normal -4.3576941361628367e-16 -3.0410701562476395e-16 -1.0
  outer loop
    vertex -3.96875 1.0514699965364982e-14 0.0
    vertex -4.064000000000001 7.039054481959918 -1.677880057115999e-13
    vertex -2.10368119859329 7.851045116077548 -1.677880057115999e-13
  endloop
endfacet
facet normal -4.3576941361628367e-16 -3.0410701562476395e-16 -1.0
  outer loop
    vertex -3.96875 1.0514699965364982e-14 0.0
    vertex -2.10368119859329 7.851045116077548 -1.677880057115999e-13
    vertex -1.9843749999999905 3.4370383212694966 0.0
  endloop
endfacet
facet normal -4.3576941361628367e-16 -3.0410701562476395e-16 -1.0
  outer loop
    vertex -1.9843749999999905 3.4370383212694966 0.0
    vertex -2.10368119859329 7.851045116077548 -1.677880057115999e-13
    vertex -4.976964591734843e-16 8.128000000000002 -1.677880057115999e-13
  endloop
endfacet
facet normal -4.3576941361628367e-16 -3.0410701562476395e-16 -1.0
  outer loop
    vertex -1.9843749999999905 3.4370383212694966 0.0
    vertex -4.976964591734843e-16 8.128000000000002 -1.677880057115999e-13
    vertex 1.984375000000009 3.4370383212694855 0.0
  endloop
endfacet
facet normal -4.3576941361628367e-16 -3.0410701562476395e-16 -1.0
  outer loop
    vertex 1.984375000000009 3.4370383212694855 0.0
    vertex -4.976964591734843e-16 8.128000000000002 -1.677880057115999e-13
    vertex 2.103681198593288 7.8510451160775485 -1.677880057115999e-13
  endloop
endfacet
facet normal -4.3576941361628367e-16 -3.0410701562476395e-16 -1.0
  outer loop
    vertex 1.984375000000009 3.4370383212694855 0.0
    vertex 2.103681198593288 7.8510451160775485 -1.677880057115999e-13
    vertex 3.96875 -1.0028668266953376e-14 0.0
  endloop
endfacet
facet normal -4.3576941361628367e-16 -3.0410701562476395e-16 -1.0
  outer loop
    vertex 3.96875 -1.0028668266953376e-14 0.0
    vertex 2.103681198593288 7.8510451160775485 -1.677880057115999e-13
    vertex 4.063999999999997 7.03905448195992 -1.677880057115999e-13
  endloop
endfacet
facet normal -4.3576941361628367e-16 -3.0410701562476395e-16 -1.0
  outer loop
    vertex -3.96875 1.0514699965364982e-14 0.0
    vertex -2.103681198593285 -7.851045116077546 -1.677880057115999e-13
    vertex -4.063999999999994 -7.039054481959918 -1.677880057115999e-13
  endloop
endfacet
facet normal -4.3576941361628367e-16 -3.0410701562476395e-16 -1.0
  outer loop
    vertex -2.103681198593285 -7.851045116077546 -1.677880057115999e-13
    vertex -3.96875 1.0514699965364982e-14 0.0
    vertex -1.9843750000000104 -3.4370383212694846 0.0
  endloop
endfacet
facet normal -4.3576941361628367e-16 -3.0410701562476395e-16 -1.0
  outer loop
    vertex -2.103681198593285 -7.851045116077546 -1.677880057115999e-13
    vertex -1.9843750000000104 -3.4370383212694846 0.0
    vertex 1.4930893775204527e-15 -8.127999999999998 -1.677880057115999e-13
  endloop
endfacet
facet normal -4.3576941361628367e-16 -3.0410701562476395e-16 -1.0
  outer loop
    vertex 1.4930893775204527e-15 -8.127999999999998 -1.677880057115999e-13
    vertex -1.9843750000000104 -3.4370383212694846 0.0
    vertex 1.9843749999999882 -3.4370383212694975 0.0
  endloop
endfacet
facet normal -4.3576941361628367e-16 -3.0410701562476395e-16 -1.0
  outer loop
    vertex 1.4930893775204527e-15 -8.127999999999998 -1.677880057115999e-13
    vertex 1.9843749999999882 -3.4370383212694975 0.0
    vertex 2.1036811985932946 -7.851045116077544 -1.677880057115999e-13
  endloop
endfacet
facet normal -4.3576941361628367e-16 -3.0410701562476395e-16 -1.0
  outer loop
    vertex 2.1036811985932946 -7.851045116077544 -1.677880057115999e-13
    vertex 1.9843749999999882 -3.4370383212694975 0.0
    vertex 3.96875 -1.0028668266953376e-14 0.0
  endloop
endfacet
facet normal -4.3576941361628367e-16 -3.0410701562476395e-16 -1.0
  outer loop
    vertex 2.1036811985932946 -7.851045116077544 -1.677880057115999e-13
    vertex 3.96875 -1.0028668266953376e-14 0.0
    vertex 4.064000000000004 -7.039054481959914 -1.677880057115999e-13
  endloop
endfacet
facet normal -4.3576941361628367e-16 -3.0410701562476395e-16 -1.0
  outer loop
    vertex 4.064000000000004 -7.039054481959914 -1.677880057115999e-13
    vertex 3.96875 -1.0028668266953376e-14 0.0
    vertex 4.063999999999997 7.03905448195992 -1.677880057115999e-13
  endloop
endfacet
facet normal -4.3576941361628367e-16 -3.0410701562476395e-16 -1.0
  outer loop
    vertex 4.064000000000004 -7.039054481959914 -1.677880057115999e-13
    vertex 4.063999999999997 7.03905448195992 -1.677880057115999e-13
    vertex 5.7473639174842575 5.74736391748426 -1.677880057115999e-13
  endloop
endfacet
facet normal -4.3576941361628367e-16 -3.0410701562476395e-16 -1.0
  outer loop
    vertex 4.064000000000004 -7.039054481959914 -1.677880057115999e-13
    vertex 5.7473639174842575 5.74736391748426 -1.677880057115999e-13
    vertex 5.747363917484261 -5.747363917484253 -1.677880057115999e-13
  endloop
endfacet
facet normal -4.3576941361628367e-16 -3.0410701562476395e-16 -1.0
  outer loop
    vertex 5.747363917484261 -5.747363917484253 -1.677880057115999e-13
    vertex 5.7473639174842575 5.74736391748426 -1.677880057115999e-13
    vertex 7.039054481959916 4.0640000000000045 -1.677880057115999e-13
  endloop
endfacet
facet normal -4.3576941361628367e-16 -3.0410701562476395e-16 -1.0
  outer loop
    vertex 5.747363917484261 -5.747363917484253 -1.677880057115999e-13
    vertex 7.039054481959916 4.0640000000000045 -1.677880057115999e-13
    vertex 7.039054481959918 -4.0639999999999965 -1.677880057115999e-13
  endloop
endfacet
facet normal -4.3576941361628367e-16 -3.0410701562476395e-16 -1.0
  outer loop
    vertex 7.039054481959918 -4.0639999999999965 -1.677880057115999e-13
    vertex 7.039054481959916 4.0640000000000045 -1.677880057115999e-13
    vertex 7.851045116077546 2.103681198593292 -1.677880057115999e-13
  endloop
endfacet
facet normal -4.3576941361628367e-16 -3.0410701562476395e-16 -1.0
  outer loop
    vertex 7.039054481959918 -4.0639999999999965 -1.677880057115999e-13
    vertex 7.851045116077546 2.103681198593292 -1.677880057115999e-13
    vertex 7.851045116077548 -2.1036811985932844 -1.677880057115999e-13
  endloop
endfacet
facet normal -4.3576941361628367e-16 -3.0410701562476395e-16 -1.0
  outer loop
    vertex 7.851045116077548 -2.1036811985932844 -1.677880057115999e-13
    vertex 7.851045116077546 2.103681198593292 -1.677880057115999e-13
    vertex 8.128 2.2291282544616737e-15 -1.677880057115999e-13
  endloop
endfacet
facet normal -0.0 -0.0 1.0
  outer loop
    vertex -3.302000000000005 -5.719231766592429 14.763749999999998
    vertex -3.301999999999997 5.719231766592435 14.763749999999998
    vertex -6.604 6.3449245857327695e-15 14.763749999999998
  endloop
endfacet
facet normal -0.0 -0.0 1.0
  outer loop
    vertex -3.301999999999997 5.719231766592435 14.763749999999998
    vertex -3.302000000000005 -5.719231766592429 14.763749999999998
    vertex 3.302 -5.719231766592433 14.763749999999998
  endloop
endfacet
facet normal -0.0 -0.0 1.0
  outer loop
    vertex -3.301999999999997 5.719231766592435 14.763749999999998
    vertex 3.302 -5.719231766592433 14.763749999999998
    vertex 3.302000000000004 5.71923176659243 14.763749999999998
  endloop
endfacet
facet normal -0.0 -0.0 1.0
  outer loop
    vertex 3.302000000000004 5.71923176659243 14.763749999999998
    vertex 3.302 -5.719231766592433 14.763749999999998
    vertex 6.604 -3.877453913503359e-15 14.763749999999998
  endloop
endfacet
facet normal 0.8660254037844384 -0.5000000000000007 -0.0
  outer loop
    vertex -3.301999999999997 5.719231766592435 14.763749999999998
    vertex -6.604 6.3449245857327695e-15 20.319999999999997
    vertex -6.604 6.3449245857327695e-15 14.763749999999998
  endloop
endfacet
facet normal 0.8660254037844384 -0.5000000000000007 -0.0
  outer loop
    vertex -6.604 6.3449245857327695e-15 20.319999999999997
    vertex -3.301999999999997 5.719231766592435 14.763749999999998
    vertex -3.301999999999997 5.719231766592435 20.319999999999997
  endloop
endfacet
facet normal 0.8660254037844393 0.49999999999999933 -0.0
  outer loop
    vertex -6.604 6.3449245857327695e-15 14.763749999999998
    vertex -3.302000000000005 -5.719231766592429 20.319999999999997
    vertex -3.302000000000005 -5.719231766592429 14.763749999999998
  endloop
endfacet
facet normal 0.8660254037844393 0.49999999999999933 -0.0
  outer loop
    vertex -3.302000000000005 -5.719231766592429 20.319999999999997
    vertex -6.604 6.3449245857327695e-15 14.763749999999998
    vertex -6.604 6.3449245857327695e-15 20.319999999999997
  endloop
endfacet
facet normal 5.337610695313247e-16 1.0 -0.0
  outer loop
    vertex -3.302000000000005 -5.719231766592429 20.319999999999997
    vertex 3.302 -5.719231766592433 14.763749999999998
    vertex -3.302000000000005 -5.719231766592429 14.763749999999998
  endloop
endfacet
facet normal 5.337610695313247e-16 1.0 -0.0
  outer loop
    vertex 3.302 -5.719231766592433 14.763749999999998
    vertex -3.302000000000005 -5.719231766592429 20.319999999999997
    vertex 3.302 -5.719231766592433 20.319999999999997
  endloop
endfacet
facet normal -0.8660254037844385 0.5000000000000003 0.0
  outer loop
    vertex 6.604 -3.877453913503359e-15 20.319999999999997
    vertex 3.302 -5.719231766592433 14.763749999999998
    vertex 3.302 -5.719231766592433 20.319999999999997
  endloop
endfacet
facet normal -0.8660254037844385 0.5000000000000003 0.0
  outer loop
    vertex 3.302 -5.719231766592433 14.763749999999998
    vertex 6.604 -3.877453913503359e-15 20.319999999999997
    vertex 6.604 -3.877453913503359e-15 14.763749999999998
  endloop
endfacet
facet normal -0.866025403784439 -0.49999999999999944 0.0
  outer loop
    vertex 3.302000000000004 5.71923176659243 20.319999999999997
    vertex 6.604 -3.877453913503359e-15 14.763749999999998
    vertex 6.604 -3.877453913503359e-15 20.319999999999997
  endloop
endfacet
facet normal -0.866025403784439 -0.49999999999999944 0.0
  outer loop
    vertex 6.604 -3.877453913503359e-15 14.763749999999998
    vertex 3.302000000000004 5.71923176659243 20.319999999999997
    vertex 3.302000000000004 5.71923176659243 14.763749999999998
  endloop
endfacet
facet normal -7.472654973438552e-16 -1.0 0.0
  outer loop
    vertex 3.302000000000004 5.71923176659243 20.319999999999997
    vertex -3.301999999999997 5.719231766592435 14.763749999999998
    vertex 3.302000000000004 5.71923176659243 14.763749999999998
  endloop
endfacet
facet normal -7.472654973438552e-16 -1.0 0.0
  outer loop
    vertex -3.301999999999997 5.719231766592435 14.763749999999998
    vertex 3.302000000000004 5.71923176659243 20.319999999999997
    vertex -3.301999999999997 5.719231766592435 20.319999999999997
  endloop
endfacet
endsolid truss tightener smaller
