solid string to bolt
facet normal 0.0 -1.0 0.0
  outer loop
    vertex 31.749999999999954 0.0 2.8199664825478975e-15
    vertex 1.0636098724630532 0.0 4.901259595377876
    vertex 0.19049999999991662 0.0 4.786312499999957
  endloop
endfacet
facet normal 0.0 -1.0 0.0
  outer loop
    vertex 1.0636098724630532 0.0 4.901259595377876
    vertex 31.749999999999954 0.0 2.8199664825478975e-15
    vertex 31.749999999999943 0.0 16.31950000000007
  endloop
endfacet
facet normal 0.0 -1.0 0.0
  outer loop
    vertex 1.0636098724630532 0.0 4.901259595377876
    vertex 31.749999999999943 0.0 16.31950000000007
    vertex 1.8772187500000346 0.0 5.238267426920945
  endloop
endfacet
facet normal 0.0 -1.0 0.0
  outer loop
    vertex 1.8772187500000346 0.0 5.238267426920945
    vertex 31.749999999999943 0.0 16.31950000000007
    vertex 2.575880532159043 0.0 5.774369467841059
  endloop
endfacet
facet normal 0.0 -1.0 0.0
  outer loop
    vertex 2.575880532159043 0.0 5.774369467841059
    vertex 31.749999999999943 0.0 16.31950000000007
    vertex 3.1119825730790205 0.0 6.473031250000134
  endloop
endfacet
facet normal 0.0 -1.0 0.0
  outer loop
    vertex 3.1119825730790205 0.0 6.473031250000134
    vertex 31.749999999999943 0.0 16.31950000000007
    vertex 3.4489904046219944 0.0 7.286640127537008
  endloop
endfacet
facet normal 0.0 -1.0 0.0
  outer loop
    vertex 3.4489904046219944 0.0 7.286640127537008
    vertex 31.749999999999943 0.0 16.31950000000007
    vertex 3.5639374999999105 0.0 8.159750000000018
  endloop
endfacet
facet normal 0.0 -1.0 0.0
  outer loop
    vertex 3.5639374999999105 0.0 8.159750000000018
    vertex 31.749999999999943 0.0 16.31950000000007
    vertex 3.4489904046218793 0.0 9.032859872462963
  endloop
endfacet
facet normal 0.0 -1.0 0.0
  outer loop
    vertex 3.4489904046218793 0.0 9.032859872462963
    vertex 31.749999999999943 0.0 16.31950000000007
    vertex 3.111982573079082 0.0 9.846468750000115
  endloop
endfacet
facet normal 0.0 -1.0 0.0
  outer loop
    vertex 3.111982573079082 0.0 9.846468750000115
    vertex 31.749999999999943 0.0 16.31950000000007
    vertex 2.5758805321589033 0.0 10.54513053215894
  endloop
endfacet
facet normal 0.0 -1.0 0.0
  outer loop
    vertex 2.5758805321589033 0.0 10.54513053215894
    vertex 31.749999999999943 0.0 16.31950000000007
    vertex 1.8772187499999606 0.0 11.08123257307901
  endloop
endfacet
facet normal 0.0 -1.0 0.0
  outer loop
    vertex 1.8772187499999606 0.0 11.08123257307901
    vertex 31.749999999999943 0.0 16.31950000000007
    vertex 1.0636098724629106 0.0 11.418240404621912
  endloop
endfacet
facet normal 0.0 -1.0 0.0
  outer loop
    vertex 1.0636098724629106 0.0 11.418240404621912
    vertex 31.749999999999943 0.0 16.31950000000007
    vertex 0.19049999999998676 0.0 11.53318750000003
  endloop
endfacet
facet normal 0.0 -1.0 0.0
  outer loop
    vertex 0.19049999999998676 0.0 11.53318750000003
    vertex 31.749999999999943 0.0 16.31950000000007
    vertex -9.96950000000003 0.0 16.319499999999927
  endloop
endfacet
facet normal 0.0 -1.0 0.0
  outer loop
    vertex -9.96950000000007 0.0 -1.2548850847338144e-13
    vertex -2.7309825730791117 0.0 6.473031249999982
    vertex -9.96950000000003 0.0 16.319499999999927
  endloop
endfacet
facet normal 0.0 -1.0 0.0
  outer loop
    vertex -2.7309825730791117 0.0 6.473031249999982
    vertex -9.96950000000007 0.0 -1.2548850847338144e-13
    vertex -2.194880532159099 0.0 5.774369467841017
  endloop
endfacet
facet normal 0.0 -1.0 0.0
  outer loop
    vertex -2.194880532159099 0.0 5.774369467841017
    vertex -9.96950000000007 0.0 -1.2548850847338144e-13
    vertex -1.4962187499999222 0.0 5.238267426921055
  endloop
endfacet
facet normal 0.0 -1.0 0.0
  outer loop
    vertex -1.4962187499999222 0.0 5.238267426921055
    vertex -9.96950000000007 0.0 -1.2548850847338144e-13
    vertex -0.6826098724631877 0.0 4.901259595377891
  endloop
endfacet
facet normal 0.0 -1.0 0.0
  outer loop
    vertex -0.6826098724631877 0.0 4.901259595377891
    vertex -9.96950000000007 0.0 -1.2548850847338144e-13
    vertex 31.749999999999954 0.0 2.8199664825478975e-15
  endloop
endfacet
facet normal 0.0 -1.0 0.0
  outer loop
    vertex -0.6826098724631877 0.0 4.901259595377891
    vertex 31.749999999999954 0.0 2.8199664825478975e-15
    vertex 0.19049999999991662 0.0 4.786312499999957
  endloop
endfacet
facet normal 0.0 -1.0 0.0
  outer loop
    vertex -9.96950000000003 0.0 16.319499999999927
    vertex -2.7309825730791117 0.0 6.473031249999982
    vertex -3.067990404622154 0.0 7.286640127536884
  endloop
endfacet
facet normal 0.0 -1.0 0.0
  outer loop
    vertex -9.96950000000003 0.0 16.319499999999927
    vertex -3.067990404622154 0.0 7.286640127536884
    vertex -3.182937500000059 0.0 8.159750000000027
  endloop
endfacet
facet normal 0.0 -1.0 0.0
  outer loop
    vertex -9.96950000000003 0.0 16.319499999999927
    vertex -3.182937500000059 0.0 8.159750000000027
    vertex -3.0679904046219955 0.0 9.032859872463098
  endloop
endfacet
facet normal 0.0 -1.0 0.0
  outer loop
    vertex -9.96950000000003 0.0 16.319499999999927
    vertex -3.0679904046219955 0.0 9.032859872463098
    vertex -2.730982573079058 0.0 9.84646875000003
  endloop
endfacet
facet normal 0.0 -1.0 0.0
  outer loop
    vertex -9.96950000000003 0.0 16.319499999999927
    vertex -2.730982573079058 0.0 9.84646875000003
    vertex -2.1948805321590044 0.0 10.545130532159037
  endloop
endfacet
facet normal 0.0 -1.0 0.0
  outer loop
    vertex -9.96950000000003 0.0 16.319499999999927
    vertex -2.1948805321590044 0.0 10.545130532159037
    vertex -1.496218750000025 0.0 11.081232573079106
  endloop
endfacet
facet normal 0.0 -1.0 0.0
  outer loop
    vertex -9.96950000000003 0.0 16.319499999999927
    vertex -1.496218750000025 0.0 11.081232573079106
    vertex -0.6826098724630125 0.0 11.418240404622118
  endloop
endfacet
facet normal 0.0 -1.0 0.0
  outer loop
    vertex -9.96950000000003 0.0 16.319499999999927
    vertex -0.6826098724630125 0.0 11.418240404622118
    vertex 0.19049999999998676 0.0 11.53318750000003
  endloop
endfacet
facet normal 1.0 8.092784725146168e-32 5.5511151231257815e-17
  outer loop
    vertex 31.749999999999954 0.0 2.8199664825478975e-15
    vertex 31.749999999999947 6.441230839365253 7.167562500000042
    vertex 31.749999999999943 0.0 16.31950000000007
  endloop
endfacet
facet normal 1.0 8.092784725146168e-32 5.5511151231257815e-17
  outer loop
    vertex 31.749999999999947 6.441230839365253 7.167562500000042
    vertex 31.749999999999954 0.0 2.8199664825478975e-15
    vertex 31.75 6.756584981082944 6.756584981082947
  endloop
endfacet
facet normal 1.0 8.092784725146168e-32 5.5511151231257815e-17
  outer loop
    vertex 31.75 6.756584981082944 6.756584981082947
    vertex 31.749999999999954 0.0 2.8199664825478975e-15
    vertex 31.750000000000004 7.167562499999999 6.441230839365266
  endloop
endfacet
facet normal 1.0 8.092784725146168e-32 5.5511151231257815e-17
  outer loop
    vertex 31.750000000000004 7.167562499999999 6.441230839365266
    vertex 31.749999999999954 0.0 2.8199664825478975e-15
    vertex 31.749999999999954 16.319499999999998 2.8199664825478975e-15
  endloop
endfacet
facet normal 1.0 8.092784725146168e-32 5.5511151231257815e-17
  outer loop
    vertex 31.749999999999943 0.0 16.31950000000007
    vertex 31.749999999999947 6.441230839365253 7.167562500000042
    vertex 31.749999999999993 6.24299093845763 7.6461559573747655
  endloop
endfacet
facet normal 1.0 8.092784725146168e-32 5.5511151231257815e-17
  outer loop
    vertex 31.749999999999943 0.0 16.31950000000007
    vertex 31.749999999999993 6.24299093845763 7.6461559573747655
    vertex 31.749999999999936 6.175374999999999 8.159750000000114
  endloop
endfacet
facet normal 1.0 8.092784725146168e-32 5.5511151231257815e-17
  outer loop
    vertex 31.750000000000004 7.167562499999999 6.441230839365266
    vertex 31.749999999999954 16.319499999999998 2.8199664825478975e-15
    vertex 31.75000000000002 7.646155957374685 6.242990938457611
  endloop
endfacet
facet normal 1.0 8.092784725146168e-32 5.5511151231257815e-17
  outer loop
    vertex 31.75000000000002 7.646155957374685 6.242990938457611
    vertex 31.749999999999954 16.319499999999998 2.8199664825478975e-15
    vertex 31.75000000000004 8.159749999999999 6.175374999999979
  endloop
endfacet
facet normal 1.0 8.092784725146168e-32 5.5511151231257815e-17
  outer loop
    vertex 31.75000000000004 8.159749999999999 6.175374999999979
    vertex 31.749999999999954 16.319499999999998 2.8199664825478975e-15
    vertex 31.75000000000002 8.673344042625315 6.242990938457611
  endloop
endfacet
facet normal 1.0 8.092784725146168e-32 5.5511151231257815e-17
  outer loop
    vertex 31.75000000000002 8.673344042625315 6.242990938457611
    vertex 31.749999999999954 16.319499999999998 2.8199664825478975e-15
    vertex 31.750000000000004 9.151937499999999 6.441230839365266
  endloop
endfacet
facet normal 1.0 8.092784725146168e-32 5.5511151231257815e-17
  outer loop
    vertex 31.750000000000004 9.151937499999999 6.441230839365266
    vertex 31.749999999999954 16.319499999999998 2.8199664825478975e-15
    vertex 31.75 9.562915018917055 6.756584981082947
  endloop
endfacet
facet normal 1.0 8.092784725146168e-32 5.5511151231257815e-17
  outer loop
    vertex 31.75 9.562915018917055 6.756584981082947
    vertex 31.749999999999954 16.319499999999998 2.8199664825478975e-15
    vertex 31.749999999999947 9.878269160634744 7.167562500000042
  endloop
endfacet
facet normal 1.0 8.092784725146168e-32 5.5511151231257815e-17
  outer loop
    vertex 31.749999999999947 9.878269160634744 7.167562500000042
    vertex 31.749999999999954 16.319499999999998 2.8199664825478975e-15
    vertex 31.749999999999993 10.07650906154237 7.6461559573747655
  endloop
endfacet
facet normal 1.0 8.092784725146168e-32 5.5511151231257815e-17
  outer loop
    vertex 31.749999999999993 10.07650906154237 7.6461559573747655
    vertex 31.749999999999954 16.319499999999998 2.8199664825478975e-15
    vertex 31.749999999999936 10.144124999999999 8.159750000000114
  endloop
endfacet
facet normal 1.0 8.092784725146168e-32 5.5511151231257815e-17
  outer loop
    vertex 31.749999999999943 0.0 16.31950000000007
    vertex 31.749999999999915 7.167562499999998 9.87826916063488
    vertex 31.749999999999943 16.319499999999998 16.31950000000007
  endloop
endfacet
facet normal 1.0 8.092784725146168e-32 5.5511151231257815e-17
  outer loop
    vertex 31.749999999999915 7.167562499999998 9.87826916063488
    vertex 31.749999999999943 0.0 16.31950000000007
    vertex 31.749999999999904 6.756584981082942 9.562915018917138
  endloop
endfacet
facet normal 1.0 8.092784725146168e-32 5.5511151231257815e-17
  outer loop
    vertex 31.749999999999904 6.756584981082942 9.562915018917138
    vertex 31.749999999999943 0.0 16.31950000000007
    vertex 31.749999999999943 6.441230839365253 9.151937500000066
  endloop
endfacet
facet normal 1.0 8.092784725146168e-32 5.5511151231257815e-17
  outer loop
    vertex 31.749999999999943 6.441230839365253 9.151937500000066
    vertex 31.749999999999943 0.0 16.31950000000007
    vertex 31.749999999999897 6.242990938457629 8.673344042625516
  endloop
endfacet
facet normal 1.0 8.092784725146168e-32 5.5511151231257815e-17
  outer loop
    vertex 31.749999999999897 6.242990938457629 8.673344042625516
    vertex 31.749999999999943 0.0 16.31950000000007
    vertex 31.749999999999936 6.175374999999999 8.159750000000114
  endloop
endfacet
facet normal 1.0 8.092784725146168e-32 5.5511151231257815e-17
  outer loop
    vertex 31.749999999999943 16.319499999999998 16.31950000000007
    vertex 31.749999999999915 7.167562499999998 9.87826916063488
    vertex 31.74999999999987 7.646155957374684 10.076509061542508
  endloop
endfacet
facet normal 1.0 8.092784725146168e-32 5.5511151231257815e-17
  outer loop
    vertex 31.749999999999943 16.319499999999998 16.31950000000007
    vertex 31.74999999999987 7.646155957374684 10.076509061542508
    vertex 31.749999999999943 8.159749999999999 10.144125000000235
  endloop
endfacet
facet normal 1.0 8.092784725146168e-32 5.5511151231257815e-17
  outer loop
    vertex 31.749999999999943 16.319499999999998 16.31950000000007
    vertex 31.749999999999943 8.159749999999999 10.144125000000235
    vertex 31.74999999999987 8.673344042625313 10.076509061542508
  endloop
endfacet
facet normal 1.0 8.092784725146168e-32 5.5511151231257815e-17
  outer loop
    vertex 31.749999999999943 16.319499999999998 16.31950000000007
    vertex 31.74999999999987 8.673344042625313 10.076509061542508
    vertex 31.749999999999915 9.151937499999997 9.87826916063488
  endloop
endfacet
facet normal 1.0 8.092784725146168e-32 5.5511151231257815e-17
  outer loop
    vertex 31.749999999999943 16.319499999999998 16.31950000000007
    vertex 31.749999999999915 9.151937499999997 9.87826916063488
    vertex 31.749999999999904 9.562915018917055 9.562915018917138
  endloop
endfacet
facet normal 1.0 8.092784725146168e-32 5.5511151231257815e-17
  outer loop
    vertex 31.749999999999943 16.319499999999998 16.31950000000007
    vertex 31.749999999999904 9.562915018917055 9.562915018917138
    vertex 31.749999999999943 9.878269160634744 9.151937500000066
  endloop
endfacet
facet normal 1.0 8.092784725146168e-32 5.5511151231257815e-17
  outer loop
    vertex 31.749999999999943 16.319499999999998 16.31950000000007
    vertex 31.749999999999943 9.878269160634744 9.151937500000066
    vertex 31.749999999999897 10.07650906154237 8.673344042625516
  endloop
endfacet
facet normal 1.0 8.092784725146168e-32 5.5511151231257815e-17
  outer loop
    vertex 31.749999999999943 16.319499999999998 16.31950000000007
    vertex 31.749999999999897 10.07650906154237 8.673344042625516
    vertex 31.749999999999936 10.144124999999999 8.159750000000114
  endloop
endfacet
facet normal 1.0 8.092784725146168e-32 5.5511151231257815e-17
  outer loop
    vertex 31.749999999999943 16.319499999999998 16.31950000000007
    vertex 31.749999999999936 10.144124999999999 8.159750000000114
    vertex 31.749999999999954 16.319499999999998 2.8199664825478975e-15
  endloop
endfacet
facet normal -5.551115123125779e-17 1.0 9.090389337507753e-32
  outer loop
    vertex 15.874999999999945 3.1749999999999994 16.319500000000115
    vertex 23.81250000000002 3.175 1.3817835764484697e-13
    vertex 15.874999999999881 3.1749999999999994 7.331912854624534e-14
  endloop
endfacet
facet normal -5.551115123125779e-17 1.0 9.090389337507753e-32
  outer loop
    vertex 23.81250000000002 3.175 1.3817835764484697e-13
    vertex 15.874999999999945 3.1749999999999994 16.319500000000115
    vertex 23.812499999999947 3.175 16.319499999999916
  endloop
endfacet
facet normal 0.0 -1.0 0.0
  outer loop
    vertex 23.81250000000002 13.144499999999999 1.3817835764484697e-13
    vertex 15.874999999999945 13.144499999999999 16.319500000000115
    vertex 15.874999999999881 13.144499999999999 7.331912854624534e-14
  endloop
endfacet
facet normal 0.0 -1.0 0.0
  outer loop
    vertex 15.874999999999945 13.144499999999999 16.319500000000115
    vertex 23.81250000000002 13.144499999999999 1.3817835764484697e-13
    vertex 23.812499999999947 13.144499999999999 16.319499999999916
  endloop
endfacet
facet normal 0.723041807025995 -0.6908042742286586 2.4147350785597155e-15
  outer loop
    vertex 15.874999999999881 13.144499999999999 7.331912854624534e-14
    vertex 11.11249999999996 8.159749999999999 16.319500000000165
    vertex 11.11249999999996 8.159749999999999 1.6919798895287386e-13
  endloop
endfacet
facet normal 0.723041807025995 -0.6908042742286586 2.4147350785597155e-15
  outer loop
    vertex 11.11249999999996 8.159749999999999 16.319500000000165
    vertex 15.874999999999881 13.144499999999999 7.331912854624534e-14
    vertex 15.874999999999945 13.144499999999999 16.319500000000115
  endloop
endfacet
facet normal 0.7230418070259951 0.6908042742286586 2.331468351712829e-15
  outer loop
    vertex 11.11249999999996 8.159749999999999 1.6919798895287386e-13
    vertex 15.874999999999945 3.1749999999999994 16.319500000000115
    vertex 15.874999999999881 3.1749999999999994 7.331912854624534e-14
  endloop
endfacet
facet normal 0.7230418070259951 0.6908042742286586 2.331468351712829e-15
  outer loop
    vertex 15.874999999999945 3.1749999999999994 16.319500000000115
    vertex 11.11249999999996 8.159749999999999 1.6919798895287386e-13
    vertex 11.11249999999996 8.159749999999999 16.319500000000165
  endloop
endfacet
facet normal -1.0 0.0 1.5543122344752188e-15
  outer loop
    vertex 23.812499999999947 3.175 16.319499999999916
    vertex 23.812499999999897 6.242990938457629 8.673344042625407
    vertex 23.81250000000002 3.175 1.3817835764484697e-13
  endloop
endfacet
facet normal -1.0 0.0 1.5543122344752188e-15
  outer loop
    vertex 23.812499999999897 6.242990938457629 8.673344042625407
    vertex 23.812499999999947 3.175 16.319499999999916
    vertex 23.81249999999985 6.441230839365253 9.151937500000129
  endloop
endfacet
facet normal -1.0 0.0 1.5543122344752188e-15
  outer loop
    vertex 23.81249999999985 6.441230839365253 9.151937500000129
    vertex 23.812499999999947 3.175 16.319499999999916
    vertex 23.81249999999992 6.756584981082942 9.562915018917131
  endloop
endfacet
facet normal -1.0 0.0 1.5543122344752188e-15
  outer loop
    vertex 23.81249999999992 6.756584981082942 9.562915018917131
    vertex 23.812499999999947 3.175 16.319499999999916
    vertex 23.812499999999947 13.144499999999999 16.319499999999916
  endloop
endfacet
facet normal -1.0 0.0 1.5543122344752188e-15
  outer loop
    vertex 23.81250000000002 3.175 1.3817835764484697e-13
    vertex 23.812499999999897 6.242990938457629 8.673344042625407
    vertex 23.812499999999936 6.175374999999999 8.159750000000072
  endloop
endfacet
facet normal -1.0 0.0 1.5543122344752188e-15
  outer loop
    vertex 23.81249999999992 6.756584981082942 9.562915018917131
    vertex 23.812499999999947 13.144499999999999 16.319499999999916
    vertex 23.812499999999844 7.167562499999998 9.878269160634822
  endloop
endfacet
facet normal -1.0 0.0 1.5543122344752188e-15
  outer loop
    vertex 23.812499999999844 7.167562499999998 9.878269160634822
    vertex 23.812499999999947 13.144499999999999 16.319499999999916
    vertex 23.812499999999837 7.646155957374684 10.07650906154245
  endloop
endfacet
facet normal -1.0 0.0 1.5543122344752188e-15
  outer loop
    vertex 23.812499999999837 7.646155957374684 10.07650906154245
    vertex 23.812499999999947 13.144499999999999 16.319499999999916
    vertex 23.812499999999837 8.159749999999999 10.14412500000007
  endloop
endfacet
facet normal -1.0 0.0 1.5543122344752188e-15
  outer loop
    vertex 23.812499999999837 8.159749999999999 10.14412500000007
    vertex 23.812499999999947 13.144499999999999 16.319499999999916
    vertex 23.812499999999837 8.673344042625313 10.07650906154245
  endloop
endfacet
facet normal -1.0 0.0 1.5543122344752188e-15
  outer loop
    vertex 23.812499999999837 8.673344042625313 10.07650906154245
    vertex 23.812499999999947 13.144499999999999 16.319499999999916
    vertex 23.812499999999844 9.151937499999997 9.878269160634822
  endloop
endfacet
facet normal -1.0 0.0 1.5543122344752188e-15
  outer loop
    vertex 23.812499999999844 9.151937499999997 9.878269160634822
    vertex 23.812499999999947 13.144499999999999 16.319499999999916
    vertex 23.81249999999992 9.562915018917055 9.562915018917131
  endloop
endfacet
facet normal -1.0 0.0 1.5543122344752188e-15
  outer loop
    vertex 23.81249999999992 9.562915018917055 9.562915018917131
    vertex 23.812499999999947 13.144499999999999 16.319499999999916
    vertex 23.81249999999985 9.878269160634744 9.151937500000129
  endloop
endfacet
facet normal -1.0 0.0 1.5543122344752188e-15
  outer loop
    vertex 23.81249999999985 9.878269160634744 9.151937500000129
    vertex 23.812499999999947 13.144499999999999 16.319499999999916
    vertex 23.812499999999897 10.07650906154237 8.673344042625407
  endloop
endfacet
facet normal -1.0 0.0 1.5543122344752188e-15
  outer loop
    vertex 23.812499999999897 10.07650906154237 8.673344042625407
    vertex 23.812499999999947 13.144499999999999 16.319499999999916
    vertex 23.812499999999936 10.144124999999999 8.159750000000072
  endloop
endfacet
facet normal -1.0 0.0 1.5543122344752188e-15
  outer loop
    vertex 23.81250000000002 3.175 1.3817835764484697e-13
    vertex 23.812500000000053 6.756584981082944 6.756584981082893
    vertex 23.81250000000002 13.144499999999999 1.3817835764484697e-13
  endloop
endfacet
facet normal -1.0 0.0 1.5543122344752188e-15
  outer loop
    vertex 23.812500000000053 6.756584981082944 6.756584981082893
    vertex 23.81250000000002 3.175 1.3817835764484697e-13
    vertex 23.81250000000004 6.441230839365253 7.167562499999987
  endloop
endfacet
facet normal -1.0 0.0 1.5543122344752188e-15
  outer loop
    vertex 23.81250000000004 6.441230839365253 7.167562499999987
    vertex 23.81250000000002 3.175 1.3817835764484697e-13
    vertex 23.812499999999975 6.24299093845763 7.646155957374703
  endloop
endfacet
facet normal -1.0 0.0 1.5543122344752188e-15
  outer loop
    vertex 23.812499999999975 6.24299093845763 7.646155957374703
    vertex 23.81250000000002 3.175 1.3817835764484697e-13
    vertex 23.812499999999936 6.175374999999999 8.159750000000072
  endloop
endfacet
facet normal -1.0 0.0 1.5543122344752188e-15
  outer loop
    vertex 23.81250000000002 13.144499999999999 1.3817835764484697e-13
    vertex 23.812500000000053 6.756584981082944 6.756584981082893
    vertex 23.81250000000009 7.167562499999999 6.44123083936517
  endloop
endfacet
facet normal -1.0 0.0 1.5543122344752188e-15
  outer loop
    vertex 23.81250000000002 13.144499999999999 1.3817835764484697e-13
    vertex 23.81250000000009 7.167562499999999 6.44123083936517
    vertex 23.812500000000004 7.646155957374685 6.242990938457651
  endloop
endfacet
facet normal -1.0 0.0 1.5543122344752188e-15
  outer loop
    vertex 23.81250000000002 13.144499999999999 1.3817835764484697e-13
    vertex 23.812500000000004 7.646155957374685 6.242990938457651
    vertex 23.8125 8.159749999999999 6.1753750000000185
  endloop
endfacet
facet normal -1.0 0.0 1.5543122344752188e-15
  outer loop
    vertex 23.81250000000002 13.144499999999999 1.3817835764484697e-13
    vertex 23.8125 8.159749999999999 6.1753750000000185
    vertex 23.812500000000004 8.673344042625315 6.242990938457651
  endloop
endfacet
facet normal -1.0 0.0 1.5543122344752188e-15
  outer loop
    vertex 23.81250000000002 13.144499999999999 1.3817835764484697e-13
    vertex 23.812500000000004 8.673344042625315 6.242990938457651
    vertex 23.81250000000009 9.151937499999999 6.44123083936517
  endloop
endfacet
facet normal -1.0 0.0 1.5543122344752188e-15
  outer loop
    vertex 23.81250000000002 13.144499999999999 1.3817835764484697e-13
    vertex 23.81250000000009 9.151937499999999 6.44123083936517
    vertex 23.812500000000053 9.562915018917055 6.756584981082893
  endloop
endfacet
facet normal -1.0 0.0 1.5543122344752188e-15
  outer loop
    vertex 23.81250000000002 13.144499999999999 1.3817835764484697e-13
    vertex 23.812500000000053 9.562915018917055 6.756584981082893
    vertex 23.81250000000004 9.878269160634744 7.167562499999987
  endloop
endfacet
facet normal -1.0 0.0 1.5543122344752188e-15
  outer loop
    vertex 23.81250000000002 13.144499999999999 1.3817835764484697e-13
    vertex 23.81250000000004 9.878269160634744 7.167562499999987
    vertex 23.812499999999975 10.07650906154237 7.646155957374703
  endloop
endfacet
facet normal -1.0 0.0 1.5543122344752188e-15
  outer loop
    vertex 23.81250000000002 13.144499999999999 1.3817835764484697e-13
    vertex 23.812499999999975 10.07650906154237 7.646155957374703
    vertex 23.812499999999936 10.144124999999999 8.159750000000072
  endloop
endfacet
facet normal -1.0 0.0 1.5543122344752188e-15
  outer loop
    vertex 23.81250000000002 13.144499999999999 1.3817835764484697e-13
    vertex 23.812499999999936 10.144124999999999 8.159750000000072
    vertex 23.812499999999947 13.144499999999999 16.319499999999916
  endloop
endfacet
facet normal -1.5543122344752188e-15 0.0 -1.0
  outer loop
    vertex -9.96950000000007 16.319499999999998 -1.2548850847338144e-13
    vertex 15.874999999999881 13.144499999999999 7.331912854624534e-14
    vertex -9.96950000000007 0.0 -1.2548850847338144e-13
  endloop
endfacet
facet normal -1.5543122344752188e-15 0.0 -1.0
  outer loop
    vertex 15.874999999999881 13.144499999999999 7.331912854624534e-14
    vertex -9.96950000000007 16.319499999999998 -1.2548850847338144e-13
    vertex 31.749999999999954 16.319499999999998 2.8199664825478975e-15
  endloop
endfacet
facet normal -1.5543122344752188e-15 0.0 -1.0
  outer loop
    vertex -9.96950000000007 0.0 -1.2548850847338144e-13
    vertex 15.874999999999881 13.144499999999999 7.331912854624534e-14
    vertex 11.11249999999996 8.159749999999999 1.6919798895287386e-13
  endloop
endfacet
facet normal -1.5543122344752188e-15 0.0 -1.0
  outer loop
    vertex 15.874999999999881 13.144499999999999 7.331912854624534e-14
    vertex 31.749999999999954 16.319499999999998 2.8199664825478975e-15
    vertex 23.81250000000002 13.144499999999999 1.3817835764484697e-13
  endloop
endfacet
facet normal -1.5543122344752188e-15 0.0 -1.0
  outer loop
    vertex 23.81250000000002 13.144499999999999 1.3817835764484697e-13
    vertex 31.749999999999954 16.319499999999998 2.8199664825478975e-15
    vertex 23.81250000000002 3.175 1.3817835764484697e-13
  endloop
endfacet
facet normal -1.5543122344752188e-15 0.0 -1.0
  outer loop
    vertex -9.96950000000007 0.0 -1.2548850847338144e-13
    vertex 15.874999999999881 3.1749999999999994 7.331912854624534e-14
    vertex 31.749999999999954 0.0 2.8199664825478975e-15
  endloop
endfacet
facet normal -1.5543122344752188e-15 0.0 -1.0
  outer loop
    vertex 15.874999999999881 3.1749999999999994 7.331912854624534e-14
    vertex -9.96950000000007 0.0 -1.2548850847338144e-13
    vertex 11.11249999999996 8.159749999999999 1.6919798895287386e-13
  endloop
endfacet
facet normal -1.5543122344752188e-15 0.0 -1.0
  outer loop
    vertex 31.749999999999954 0.0 2.8199664825478975e-15
    vertex 15.874999999999881 3.1749999999999994 7.331912854624534e-14
    vertex 23.81250000000002 3.175 1.3817835764484697e-13
  endloop
endfacet
facet normal -1.5543122344752188e-15 0.0 -1.0
  outer loop
    vertex 31.749999999999954 0.0 2.8199664825478975e-15
    vertex 23.81250000000002 3.175 1.3817835764484697e-13
    vertex 31.749999999999954 16.319499999999998 2.8199664825478975e-15
  endloop
endfacet
facet normal -1.0 0.0 9.992007221626409e-16
  outer loop
    vertex -9.96950000000003 16.319499999999998 16.319499999999927
    vertex -9.96950000000007 0.0 -1.2548850847338144e-13
    vertex -9.96950000000003 0.0 16.319499999999927
  endloop
endfacet
facet normal -1.0 0.0 9.992007221626409e-16
  outer loop
    vertex -9.96950000000007 0.0 -1.2548850847338144e-13
    vertex -9.96950000000003 16.319499999999998 16.319499999999927
    vertex -9.96950000000007 16.319499999999998 -1.2548850847338144e-13
  endloop
endfacet
facet normal 1.7763568394002505e-15 5.296460101885331e-16 1.0
  outer loop
    vertex -9.96950000000003 0.0 16.319499999999927
    vertex 15.874999999999945 3.1749999999999994 16.319500000000115
    vertex -9.96950000000003 16.319499999999998 16.319499999999927
  endloop
endfacet
facet normal 1.7763568394002505e-15 5.296460101885331e-16 1.0
  outer loop
    vertex 15.874999999999945 3.1749999999999994 16.319500000000115
    vertex -9.96950000000003 0.0 16.319499999999927
    vertex 31.749999999999943 0.0 16.31950000000007
  endloop
endfacet
facet normal 1.7763568394002505e-15 5.296460101885331e-16 1.0
  outer loop
    vertex -9.96950000000003 16.319499999999998 16.319499999999927
    vertex 15.874999999999945 3.1749999999999994 16.319500000000115
    vertex 11.11249999999996 8.159749999999999 16.319500000000165
  endloop
endfacet
facet normal 1.7763568394002505e-15 5.296460101885331e-16 1.0
  outer loop
    vertex 15.874999999999945 3.1749999999999994 16.319500000000115
    vertex 31.749999999999943 0.0 16.31950000000007
    vertex 23.812499999999947 3.175 16.319499999999916
  endloop
endfacet
facet normal 1.7763568394002505e-15 5.296460101885331e-16 1.0
  outer loop
    vertex 23.812499999999947 3.175 16.319499999999916
    vertex 31.749999999999943 0.0 16.31950000000007
    vertex 23.812499999999947 13.144499999999999 16.319499999999916
  endloop
endfacet
facet normal 1.7763568394002505e-15 5.296460101885331e-16 1.0
  outer loop
    vertex -9.96950000000003 16.319499999999998 16.319499999999927
    vertex 15.874999999999945 13.144499999999999 16.319500000000115
    vertex 31.749999999999943 16.319499999999998 16.31950000000007
  endloop
endfacet
facet normal 1.7763568394002505e-15 5.296460101885331e-16 1.0
  outer loop
    vertex 15.874999999999945 13.144499999999999 16.319500000000115
    vertex -9.96950000000003 16.319499999999998 16.319499999999927
    vertex 11.11249999999996 8.159749999999999 16.319500000000165
  endloop
endfacet
facet normal 1.7763568394002505e-15 5.296460101885331e-16 1.0
  outer loop
    vertex 31.749999999999943 16.319499999999998 16.31950000000007
    vertex 15.874999999999945 13.144499999999999 16.319500000000115
    vertex 23.812499999999947 13.144499999999999 16.319499999999916
  endloop
endfacet
facet normal 1.7763568394002505e-15 5.296460101885331e-16 1.0
  outer loop
    vertex 31.749999999999943 16.319499999999998 16.31950000000007
    vertex 23.812499999999947 13.144499999999999 16.319499999999916
    vertex 31.749999999999943 0.0 16.31950000000007
  endloop
endfacet
facet normal 0.0 1.0 0.0
  outer loop
    vertex -9.96950000000007 16.319499999999998 -1.2548850847338144e-13
    vertex -0.6826098724631877 16.31950000000002 4.901259595377891
    vertex 31.749999999999954 16.319499999999998 2.8199664825478975e-15
  endloop
endfacet
facet normal 0.0 1.0 0.0
  outer loop
    vertex -0.6826098724631877 16.31950000000002 4.901259595377891
    vertex -9.96950000000007 16.319499999999998 -1.2548850847338144e-13
    vertex -1.4962187499999222 16.31950000000002 5.238267426921055
  endloop
endfacet
facet normal 0.0 1.0 0.0
  outer loop
    vertex -1.4962187499999222 16.31950000000002 5.238267426921055
    vertex -9.96950000000007 16.319499999999998 -1.2548850847338144e-13
    vertex -2.194880532159099 16.31950000000002 5.774369467841017
  endloop
endfacet
facet normal 0.0 1.0 0.0
  outer loop
    vertex -2.194880532159099 16.31950000000002 5.774369467841017
    vertex -9.96950000000007 16.319499999999998 -1.2548850847338144e-13
    vertex -2.7309825730791117 16.31950000000002 6.473031249999982
  endloop
endfacet
facet normal 0.0 1.0 0.0
  outer loop
    vertex -2.7309825730791117 16.31950000000002 6.473031249999982
    vertex -9.96950000000007 16.319499999999998 -1.2548850847338144e-13
    vertex -9.96950000000003 16.319499999999998 16.319499999999927
  endloop
endfacet
facet normal 0.0 1.0 0.0
  outer loop
    vertex 31.749999999999954 16.319499999999998 2.8199664825478975e-15
    vertex -0.6826098724631877 16.31950000000002 4.901259595377891
    vertex 0.19049999999991662 16.31950000000002 4.786312499999957
  endloop
endfacet
facet normal 0.0 1.0 0.0
  outer loop
    vertex -2.7309825730791117 16.31950000000002 6.473031249999982
    vertex -9.96950000000003 16.319499999999998 16.319499999999927
    vertex -3.067990404622154 16.31950000000002 7.286640127536884
  endloop
endfacet
facet normal 0.0 1.0 0.0
  outer loop
    vertex -3.067990404622154 16.31950000000002 7.286640127536884
    vertex -9.96950000000003 16.319499999999998 16.319499999999927
    vertex -3.182937500000059 16.31950000000002 8.159750000000027
  endloop
endfacet
facet normal 0.0 1.0 0.0
  outer loop
    vertex -3.182937500000059 16.31950000000002 8.159750000000027
    vertex -9.96950000000003 16.319499999999998 16.319499999999927
    vertex -3.0679904046219955 16.31950000000002 9.032859872463098
  endloop
endfacet
facet normal 0.0 1.0 0.0
  outer loop
    vertex -3.0679904046219955 16.31950000000002 9.032859872463098
    vertex -9.96950000000003 16.319499999999998 16.319499999999927
    vertex -2.730982573079058 16.31950000000002 9.84646875000003
  endloop
endfacet
facet normal 0.0 1.0 0.0
  outer loop
    vertex -2.730982573079058 16.31950000000002 9.84646875000003
    vertex -9.96950000000003 16.319499999999998 16.319499999999927
    vertex -2.1948805321590044 16.31950000000002 10.545130532159037
  endloop
endfacet
facet normal 0.0 1.0 0.0
  outer loop
    vertex -2.1948805321590044 16.31950000000002 10.545130532159037
    vertex -9.96950000000003 16.319499999999998 16.319499999999927
    vertex -1.496218750000025 16.31950000000002 11.081232573079106
  endloop
endfacet
facet normal 0.0 1.0 0.0
  outer loop
    vertex -1.496218750000025 16.31950000000002 11.081232573079106
    vertex -9.96950000000003 16.319499999999998 16.319499999999927
    vertex -0.6826098724630125 16.31950000000002 11.418240404622118
  endloop
endfacet
facet normal 0.0 1.0 0.0
  outer loop
    vertex -0.6826098724630125 16.31950000000002 11.418240404622118
    vertex -9.96950000000003 16.319499999999998 16.319499999999927
    vertex 0.19049999999998676 16.31950000000002 11.53318750000003
  endloop
endfacet
facet normal 0.0 1.0 0.0
  outer loop
    vertex 31.749999999999954 16.319499999999998 2.8199664825478975e-15
    vertex 1.0636098724630532 16.31950000000002 4.901259595377876
    vertex 31.749999999999943 16.319499999999998 16.31950000000007
  endloop
endfacet
facet normal 0.0 1.0 0.0
  outer loop
    vertex 1.0636098724630532 16.31950000000002 4.901259595377876
    vertex 31.749999999999954 16.319499999999998 2.8199664825478975e-15
    vertex 0.19049999999991662 16.31950000000002 4.786312499999957
  endloop
endfacet
facet normal 0.0 1.0 0.0
  outer loop
    vertex 31.749999999999943 16.319499999999998 16.31950000000007
    vertex 1.0636098724630532 16.31950000000002 4.901259595377876
    vertex 1.8772187500000346 16.31950000000002 5.238267426920945
  endloop
endfacet
facet normal 0.0 1.0 0.0
  outer loop
    vertex 31.749999999999943 16.319499999999998 16.31950000000007
    vertex 1.8772187500000346 16.31950000000002 5.238267426920945
    vertex 2.575880532159043 16.31950000000002 5.774369467841059
  endloop
endfacet
facet normal 0.0 1.0 0.0
  outer loop
    vertex 31.749999999999943 16.319499999999998 16.31950000000007
    vertex 2.575880532159043 16.31950000000002 5.774369467841059
    vertex 3.1119825730790205 16.31950000000002 6.473031250000134
  endloop
endfacet
facet normal 0.0 1.0 0.0
  outer loop
    vertex 31.749999999999943 16.319499999999998 16.31950000000007
    vertex 3.1119825730790205 16.31950000000002 6.473031250000134
    vertex 3.4489904046219944 16.31950000000002 7.286640127537008
  endloop
endfacet
facet normal 0.0 1.0 0.0
  outer loop
    vertex 31.749999999999943 16.319499999999998 16.31950000000007
    vertex 3.4489904046219944 16.31950000000002 7.286640127537008
    vertex 3.5639374999999105 16.31950000000002 8.159750000000018
  endloop
endfacet
facet normal 0.0 1.0 0.0
  outer loop
    vertex 31.749999999999943 16.319499999999998 16.31950000000007
    vertex 3.5639374999999105 16.31950000000002 8.159750000000018
    vertex 3.4489904046218793 16.31950000000002 9.032859872462963
  endloop
endfacet
facet normal 0.0 1.0 0.0
  outer loop
    vertex 31.749999999999943 16.319499999999998 16.31950000000007
    vertex 3.4489904046218793 16.31950000000002 9.032859872462963
    vertex 3.111982573079082 16.31950000000002 9.846468750000115
  endloop
endfacet
facet normal 0.0 1.0 0.0
  outer loop
    vertex 31.749999999999943 16.319499999999998 16.31950000000007
    vertex 3.111982573079082 16.31950000000002 9.846468750000115
    vertex 2.5758805321589033 16.31950000000002 10.54513053215894
  endloop
endfacet
facet normal 0.0 1.0 0.0
  outer loop
    vertex 31.749999999999943 16.319499999999998 16.31950000000007
    vertex 2.5758805321589033 16.31950000000002 10.54513053215894
    vertex 1.8772187499999606 16.31950000000002 11.08123257307901
  endloop
endfacet
facet normal 0.0 1.0 0.0
  outer loop
    vertex 31.749999999999943 16.319499999999998 16.31950000000007
    vertex 1.8772187499999606 16.31950000000002 11.08123257307901
    vertex 1.0636098724629106 16.31950000000002 11.418240404621912
  endloop
endfacet
facet normal 0.0 1.0 0.0
  outer loop
    vertex 31.749999999999943 16.319499999999998 16.31950000000007
    vertex 1.0636098724629106 16.31950000000002 11.418240404621912
    vertex 0.19049999999998676 16.31950000000002 11.53318750000003
  endloop
endfacet
facet normal 0.0 1.0 0.0
  outer loop
    vertex 31.749999999999943 16.319499999999998 16.31950000000007
    vertex 0.19049999999998676 16.31950000000002 11.53318750000003
    vertex -9.96950000000003 16.319499999999998 16.319499999999927
  endloop
endfacet
facet normal 1.942890293094024e-16 -0.9914448613738105 0.1305261922200519
  outer loop
    vertex 31.749999999999993 10.07650906154237 7.6461559573747655
    vertex 23.812499999999936 10.144124999999999 8.159750000000072
    vertex 23.812499999999975 10.07650906154237 7.646155957374703
  endloop
endfacet
facet normal 1.942890293094024e-16 -0.9914448613738105 0.1305261922200519
  outer loop
    vertex 23.812499999999936 10.144124999999999 8.159750000000072
    vertex 31.749999999999993 10.07650906154237 7.6461559573747655
    vertex 31.749999999999936 10.144124999999999 8.159750000000114
  endloop
endfacet
facet normal -1.942890293094024e-16 -0.9914448613738105 -0.1305261922200519
  outer loop
    vertex 31.749999999999936 10.144124999999999 8.159750000000114
    vertex 23.812499999999897 10.07650906154237 8.673344042625407
    vertex 23.812499999999936 10.144124999999999 8.159750000000072
  endloop
endfacet
facet normal -1.942890293094024e-16 -0.9914448613738105 -0.1305261922200519
  outer loop
    vertex 23.812499999999897 10.07650906154237 8.673344042625407
    vertex 31.749999999999936 10.144124999999999 8.159750000000114
    vertex 31.749999999999897 10.07650906154237 8.673344042625516
  endloop
endfacet
facet normal 4.6629367034256575e-15 -0.923879532511286 -0.3826834323650916
  outer loop
    vertex 31.749999999999897 10.07650906154237 8.673344042625516
    vertex 23.81249999999985 9.878269160634744 9.151937500000129
    vertex 23.812499999999897 10.07650906154237 8.673344042625407
  endloop
endfacet
facet normal 4.6629367034256575e-15 -0.923879532511286 -0.3826834323650916
  outer loop
    vertex 23.81249999999985 9.878269160634744 9.151937500000129
    vertex 31.749999999999897 10.07650906154237 8.673344042625516
    vertex 31.749999999999943 9.878269160634744 9.151937500000066
  endloop
endfacet
facet normal 1.915134717478395e-15 -0.7933533402912365 -0.6087614290087191
  outer loop
    vertex 31.749999999999904 9.562915018917055 9.562915018917138
    vertex 23.81249999999985 9.878269160634744 9.151937500000129
    vertex 31.749999999999943 9.878269160634744 9.151937500000066
  endloop
endfacet
facet normal 1.915134717478395e-15 -0.7933533402912365 -0.6087614290087191
  outer loop
    vertex 23.81249999999985 9.878269160634744 9.151937500000129
    vertex 31.749999999999904 9.562915018917055 9.562915018917138
    vertex 23.81249999999992 9.562915018917055 9.562915018917131
  endloop
endfacet
facet normal 7.049916206369744e-15 -0.6087614290087217 -0.7933533402912344
  outer loop
    vertex 23.81249999999992 9.562915018917055 9.562915018917131
    vertex 31.749999999999915 9.151937499999997 9.87826916063488
    vertex 23.812499999999844 9.151937499999997 9.878269160634822
  endloop
endfacet
facet normal 7.049916206369744e-15 -0.6087614290087217 -0.7933533402912344
  outer loop
    vertex 31.749999999999915 9.151937499999997 9.87826916063488
    vertex 23.81249999999992 9.562915018917055 9.562915018917131
    vertex 31.749999999999904 9.562915018917055 9.562915018917138
  endloop
endfacet
facet normal 2.0816681711721685e-15 -0.3826834323650893 -0.9238795325112871
  outer loop
    vertex 23.812499999999844 9.151937499999997 9.878269160634822
    vertex 31.74999999999987 8.673344042625313 10.076509061542508
    vertex 23.812499999999837 8.673344042625313 10.07650906154245
  endloop
endfacet
facet normal 2.0816681711721685e-15 -0.3826834323650893 -0.9238795325112871
  outer loop
    vertex 31.74999999999987 8.673344042625313 10.076509061542508
    vertex 23.812499999999844 9.151937499999997 9.878269160634822
    vertex 31.749999999999915 9.151937499999997 9.87826916063488
  endloop
endfacet
facet normal -2.4147350785597155e-15 -0.1305261922200498 -0.9914448613738107
  outer loop
    vertex 31.74999999999987 8.673344042625313 10.076509061542508
    vertex 23.812499999999837 8.159749999999999 10.14412500000007
    vertex 23.812499999999837 8.673344042625313 10.07650906154245
  endloop
endfacet
facet normal -2.4147350785597155e-15 -0.1305261922200498 -0.9914448613738107
  outer loop
    vertex 23.812499999999837 8.159749999999999 10.14412500000007
    vertex 31.74999999999987 8.673344042625313 10.076509061542508
    vertex 31.749999999999943 8.159749999999999 10.144125000000235
  endloop
endfacet
facet normal -2.525757381022231e-15 0.1305261922200494 -0.9914448613738107
  outer loop
    vertex 31.749999999999943 8.159749999999999 10.144125000000235
    vertex 23.812499999999837 7.646155957374684 10.07650906154245
    vertex 23.812499999999837 8.159749999999999 10.14412500000007
  endloop
endfacet
facet normal -2.525757381022231e-15 0.1305261922200494 -0.9914448613738107
  outer loop
    vertex 23.812499999999837 7.646155957374684 10.07650906154245
    vertex 31.749999999999943 8.159749999999999 10.144125000000235
    vertex 31.74999999999987 7.646155957374684 10.076509061542508
  endloop
endfacet
facet normal 2.3037127760972e-15 0.38268343236508834 -0.9238795325112875
  outer loop
    vertex 31.74999999999987 7.646155957374684 10.076509061542508
    vertex 23.812499999999844 7.167562499999998 9.878269160634822
    vertex 23.812499999999837 7.646155957374684 10.07650906154245
  endloop
endfacet
facet normal 2.3037127760972e-15 0.38268343236508834 -0.9238795325112875
  outer loop
    vertex 23.812499999999844 7.167562499999998 9.878269160634822
    vertex 31.74999999999987 7.646155957374684 10.076509061542508
    vertex 31.749999999999915 7.167562499999998 9.87826916063488
  endloop
endfacet
facet normal 7.077671781985373e-15 0.6087614290087228 -0.7933533402912336
  outer loop
    vertex 31.749999999999915 7.167562499999998 9.87826916063488
    vertex 23.81249999999992 6.756584981082942 9.562915018917131
    vertex 23.812499999999844 7.167562499999998 9.878269160634822
  endloop
endfacet
facet normal 7.077671781985373e-15 0.6087614290087228 -0.7933533402912336
  outer loop
    vertex 23.81249999999992 6.756584981082942 9.562915018917131
    vertex 31.749999999999915 7.167562499999998 9.87826916063488
    vertex 31.749999999999904 6.756584981082942 9.562915018917138
  endloop
endfacet
facet normal 1.915134717478395e-15 0.7933533402912365 -0.6087614290087191
  outer loop
    vertex 23.81249999999985 6.441230839365253 9.151937500000129
    vertex 31.749999999999904 6.756584981082942 9.562915018917138
    vertex 31.749999999999943 6.441230839365253 9.151937500000066
  endloop
endfacet
facet normal 1.915134717478395e-15 0.7933533402912365 -0.6087614290087191
  outer loop
    vertex 31.749999999999904 6.756584981082942 9.562915018917138
    vertex 23.81249999999985 6.441230839365253 9.151937500000129
    vertex 23.81249999999992 6.756584981082942 9.562915018917131
  endloop
endfacet
facet normal 4.6351811278100286e-15 0.9238795325112865 -0.38268343236509045
  outer loop
    vertex 23.81249999999985 6.441230839365253 9.151937500000129
    vertex 31.749999999999897 6.242990938457629 8.673344042625516
    vertex 23.812499999999897 6.242990938457629 8.673344042625407
  endloop
endfacet
facet normal 4.6351811278100286e-15 0.9238795325112865 -0.38268343236509045
  outer loop
    vertex 31.749999999999897 6.242990938457629 8.673344042625516
    vertex 23.81249999999985 6.441230839365253 9.151937500000129
    vertex 31.749999999999943 6.441230839365253 9.151937500000066
  endloop
endfacet
facet normal -2.2204460492503126e-16 0.9914448613738105 -0.13052619222005052
  outer loop
    vertex 23.812499999999897 6.242990938457629 8.673344042625407
    vertex 31.749999999999936 6.175374999999999 8.159750000000114
    vertex 23.812499999999936 6.175374999999999 8.159750000000072
  endloop
endfacet
facet normal -2.2204460492503126e-16 0.9914448613738105 -0.13052619222005052
  outer loop
    vertex 31.749999999999936 6.175374999999999 8.159750000000114
    vertex 23.812499999999897 6.242990938457629 8.673344042625407
    vertex 31.749999999999897 6.242990938457629 8.673344042625516
  endloop
endfacet
facet normal 1.942890293094024e-16 0.9914448613738105 0.1305261922200519
  outer loop
    vertex 23.812499999999936 6.175374999999999 8.159750000000072
    vertex 31.749999999999993 6.24299093845763 7.6461559573747655
    vertex 23.812499999999975 6.24299093845763 7.646155957374703
  endloop
endfacet
facet normal 1.942890293094024e-16 0.9914448613738105 0.1305261922200519
  outer loop
    vertex 31.749999999999993 6.24299093845763 7.6461559573747655
    vertex 23.812499999999936 6.175374999999999 8.159750000000072
    vertex 31.749999999999936 6.175374999999999 8.159750000000114
  endloop
endfacet
facet normal -4.662936703425658e-15 0.9238795325112871 0.3826834323650895
  outer loop
    vertex 23.812499999999975 6.24299093845763 7.646155957374703
    vertex 31.749999999999947 6.441230839365253 7.167562500000042
    vertex 23.81250000000004 6.441230839365253 7.167562499999987
  endloop
endfacet
facet normal -4.662936703425658e-15 0.9238795325112871 0.3826834323650895
  outer loop
    vertex 31.749999999999947 6.441230839365253 7.167562500000042
    vertex 23.812499999999975 6.24299093845763 7.646155957374703
    vertex 31.749999999999993 6.24299093845763 7.6461559573747655
  endloop
endfacet
facet normal -1.748601263784622e-15 0.793353340291235 0.608761429008721
  outer loop
    vertex 23.81250000000004 6.441230839365253 7.167562499999987
    vertex 31.75 6.756584981082944 6.756584981082947
    vertex 23.812500000000053 6.756584981082944 6.756584981082893
  endloop
endfacet
facet normal -1.748601263784622e-15 0.793353340291235 0.608761429008721
  outer loop
    vertex 31.75 6.756584981082944 6.756584981082947
    vertex 23.81250000000004 6.441230839365253 7.167562499999987
    vertex 31.749999999999947 6.441230839365253 7.167562500000042
  endloop
endfacet
facet normal -7.077671781985373e-15 0.6087614290087228 0.7933533402912336
  outer loop
    vertex 31.75 6.756584981082944 6.756584981082947
    vertex 23.81250000000009 7.167562499999999 6.44123083936517
    vertex 23.812500000000053 6.756584981082944 6.756584981082893
  endloop
endfacet
facet normal -7.077671781985373e-15 0.6087614290087228 0.7933533402912336
  outer loop
    vertex 23.81250000000009 7.167562499999999 6.44123083936517
    vertex 31.75 6.756584981082944 6.756584981082947
    vertex 31.750000000000004 7.167562499999999 6.441230839365266
  endloop
endfacet
facet normal -2.3037127760972e-15 0.38268343236508834 0.9238795325112875
  outer loop
    vertex 23.81250000000009 7.167562499999999 6.44123083936517
    vertex 31.75000000000002 7.646155957374685 6.242990938457611
    vertex 23.812500000000004 7.646155957374685 6.242990938457651
  endloop
endfacet
facet normal -2.3037127760972e-15 0.38268343236508834 0.9238795325112875
  outer loop
    vertex 31.75000000000002 7.646155957374685 6.242990938457611
    vertex 23.81250000000009 7.167562499999999 6.44123083936517
    vertex 31.750000000000004 7.167562499999999 6.441230839365266
  endloop
endfacet
facet normal 2.4147350785597155e-15 0.1305261922200498 0.9914448613738107
  outer loop
    vertex 23.812500000000004 7.646155957374685 6.242990938457651
    vertex 31.75000000000004 8.159749999999999 6.175374999999979
    vertex 23.8125 8.159749999999999 6.1753750000000185
  endloop
endfacet
facet normal 2.4147350785597155e-15 0.1305261922200498 0.9914448613738107
  outer loop
    vertex 31.75000000000004 8.159749999999999 6.175374999999979
    vertex 23.812500000000004 7.646155957374685 6.242990938457651
    vertex 31.75000000000002 7.646155957374685 6.242990938457611
  endloop
endfacet
facet normal 2.525757381022231e-15 -0.1305261922200494 0.9914448613738107
  outer loop
    vertex 31.75000000000004 8.159749999999999 6.175374999999979
    vertex 23.812500000000004 8.673344042625315 6.242990938457651
    vertex 23.8125 8.159749999999999 6.1753750000000185
  endloop
endfacet
facet normal 2.525757381022231e-15 -0.1305261922200494 0.9914448613738107
  outer loop
    vertex 23.812500000000004 8.673344042625315 6.242990938457651
    vertex 31.75000000000004 8.159749999999999 6.175374999999979
    vertex 31.75000000000002 8.673344042625315 6.242990938457611
  endloop
endfacet
facet normal -2.0816681711721685e-15 -0.3826834323650893 0.9238795325112871
  outer loop
    vertex 31.75000000000002 8.673344042625315 6.242990938457611
    vertex 23.81250000000009 9.151937499999999 6.44123083936517
    vertex 23.812500000000004 8.673344042625315 6.242990938457651
  endloop
endfacet
facet normal -2.0816681711721685e-15 -0.3826834323650893 0.9238795325112871
  outer loop
    vertex 23.81250000000009 9.151937499999999 6.44123083936517
    vertex 31.75000000000002 8.673344042625315 6.242990938457611
    vertex 31.750000000000004 9.151937499999999 6.441230839365266
  endloop
endfacet
facet normal -7.077671781985373e-15 -0.6087614290087228 0.7933533402912336
  outer loop
    vertex 23.81250000000009 9.151937499999999 6.44123083936517
    vertex 31.75 9.562915018917055 6.756584981082947
    vertex 23.812500000000053 9.562915018917055 6.756584981082893
  endloop
endfacet
facet normal -7.077671781985373e-15 -0.6087614290087228 0.7933533402912336
  outer loop
    vertex 31.75 9.562915018917055 6.756584981082947
    vertex 23.81250000000009 9.151937499999999 6.44123083936517
    vertex 31.750000000000004 9.151937499999999 6.441230839365266
  endloop
endfacet
facet normal -1.748601263784622e-15 -0.793353340291235 0.608761429008721
  outer loop
    vertex 31.75 9.562915018917055 6.756584981082947
    vertex 23.81250000000004 9.878269160634744 7.167562499999987
    vertex 23.812500000000053 9.562915018917055 6.756584981082893
  endloop
endfacet
facet normal -1.748601263784622e-15 -0.793353340291235 0.608761429008721
  outer loop
    vertex 23.81250000000004 9.878269160634744 7.167562499999987
    vertex 31.75 9.562915018917055 6.756584981082947
    vertex 31.749999999999947 9.878269160634744 7.167562500000042
  endloop
endfacet
facet normal -4.662936703425658e-15 -0.9238795325112871 0.3826834323650895
  outer loop
    vertex 31.749999999999947 9.878269160634744 7.167562500000042
    vertex 23.812499999999975 10.07650906154237 7.646155957374703
    vertex 23.81250000000004 9.878269160634744 7.167562499999987
  endloop
endfacet
facet normal -4.662936703425658e-15 -0.9238795325112871 0.3826834323650895
  outer loop
    vertex 23.812499999999975 10.07650906154237 7.646155957374703
    vertex 31.749999999999947 9.878269160634744 7.167562500000042
    vertex 31.749999999999993 10.07650906154237 7.6461559573747655
  endloop
endfacet
facet normal -0.13052619222004552 0.0 -0.9914448613738112
  outer loop
    vertex 1.0636098724629106 16.31950000000002 11.418240404621912
    vertex 0.19049999999998676 0.0 11.53318750000003
    vertex 0.19049999999998676 16.31950000000002 11.53318750000003
  endloop
endfacet
facet normal -0.13052619222004552 0.0 -0.9914448613738112
  outer loop
    vertex 0.19049999999998676 0.0 11.53318750000003
    vertex 1.0636098724629106 16.31950000000002 11.418240404621912
    vertex 1.0636098724629106 0.0 11.418240404621912
  endloop
endfacet
facet normal 0.1305261922200557 0.0 -0.9914448613738099
  outer loop
    vertex 0.19049999999998676 16.31950000000002 11.53318750000003
    vertex -0.6826098724630125 0.0 11.418240404622118
    vertex -0.6826098724630125 16.31950000000002 11.418240404622118
  endloop
endfacet
facet normal 0.1305261922200557 0.0 -0.9914448613738099
  outer loop
    vertex -0.6826098724630125 0.0 11.418240404622118
    vertex 0.19049999999998676 16.31950000000002 11.53318750000003
    vertex 0.19049999999998676 0.0 11.53318750000003
  endloop
endfacet
facet normal 0.3826834323650887 0.0 -0.9238795325112874
  outer loop
    vertex -0.6826098724630125 16.31950000000002 11.418240404622118
    vertex -1.496218750000025 0.0 11.081232573079106
    vertex -1.496218750000025 16.31950000000002 11.081232573079106
  endloop
endfacet
facet normal 0.3826834323650887 0.0 -0.9238795325112874
  outer loop
    vertex -1.496218750000025 0.0 11.081232573079106
    vertex -0.6826098724630125 16.31950000000002 11.418240404622118
    vertex -0.6826098724630125 0.0 11.418240404622118
  endloop
endfacet
facet normal 0.6087614290087153 0.0 -0.7933533402912394
  outer loop
    vertex -1.496218750000025 16.31950000000002 11.081232573079106
    vertex -2.1948805321590044 0.0 10.545130532159037
    vertex -2.1948805321590044 16.31950000000002 10.545130532159037
  endloop
endfacet
facet normal 0.6087614290087153 0.0 -0.7933533402912394
  outer loop
    vertex -2.1948805321590044 0.0 10.545130532159037
    vertex -1.496218750000025 16.31950000000002 11.081232573079106
    vertex -1.496218750000025 0.0 11.081232573079106
  endloop
endfacet
facet normal 0.7933533402912377 0.0 -0.6087614290087175
  outer loop
    vertex -2.730982573079058 16.31950000000002 9.84646875000003
    vertex -2.1948805321590044 0.0 10.545130532159037
    vertex -2.730982573079058 0.0 9.84646875000003
  endloop
endfacet
facet normal 0.7933533402912377 0.0 -0.6087614290087175
  outer loop
    vertex -2.1948805321590044 0.0 10.545130532159037
    vertex -2.730982573079058 16.31950000000002 9.84646875000003
    vertex -2.1948805321590044 16.31950000000002 10.545130532159037
  endloop
endfacet
facet normal 0.9238795325112861 0.0 -0.3826834323650914
  outer loop
    vertex -3.0679904046219955 16.31950000000002 9.032859872463098
    vertex -2.730982573079058 0.0 9.84646875000003
    vertex -3.0679904046219955 0.0 9.032859872463098
  endloop
endfacet
facet normal 0.9238795325112861 0.0 -0.3826834323650914
  outer loop
    vertex -2.730982573079058 0.0 9.84646875000003
    vertex -3.0679904046219955 16.31950000000002 9.032859872463098
    vertex -2.730982573079058 16.31950000000002 9.84646875000003
  endloop
endfacet
facet normal 0.9914448613738104 0.0 -0.13052619222005188
  outer loop
    vertex -3.182937500000059 16.31950000000002 8.159750000000027
    vertex -3.0679904046219955 0.0 9.032859872463098
    vertex -3.182937500000059 0.0 8.159750000000027
  endloop
endfacet
facet normal 0.9914448613738104 0.0 -0.13052619222005188
  outer loop
    vertex -3.0679904046219955 0.0 9.032859872463098
    vertex -3.182937500000059 16.31950000000002 8.159750000000027
    vertex -3.0679904046219955 16.31950000000002 9.032859872463098
  endloop
endfacet
facet normal 0.9914448613738099 0.0 0.1305261922200557
  outer loop
    vertex -3.067990404622154 16.31950000000002 7.286640127536884
    vertex -3.182937500000059 0.0 8.159750000000027
    vertex -3.067990404622154 0.0 7.286640127536884
  endloop
endfacet
facet normal 0.9914448613738099 0.0 0.1305261922200557
  outer loop
    vertex -3.182937500000059 0.0 8.159750000000027
    vertex -3.067990404622154 16.31950000000002 7.286640127536884
    vertex -3.182937500000059 16.31950000000002 8.159750000000027
  endloop
endfacet
facet normal 0.9238795325112874 0.0 0.3826834323650887
  outer loop
    vertex -2.7309825730791117 16.31950000000002 6.473031249999982
    vertex -3.067990404622154 0.0 7.286640127536884
    vertex -2.7309825730791117 0.0 6.473031249999982
  endloop
endfacet
facet normal 0.9238795325112874 0.0 0.3826834323650887
  outer loop
    vertex -3.067990404622154 0.0 7.286640127536884
    vertex -2.7309825730791117 16.31950000000002 6.473031249999982
    vertex -3.067990404622154 16.31950000000002 7.286640127536884
  endloop
endfacet
facet normal 0.7933533402912394 0.0 0.6087614290087153
  outer loop
    vertex -2.194880532159099 16.31950000000002 5.774369467841017
    vertex -2.7309825730791117 0.0 6.473031249999982
    vertex -2.194880532159099 0.0 5.774369467841017
  endloop
endfacet
facet normal 0.7933533402912394 0.0 0.6087614290087153
  outer loop
    vertex -2.7309825730791117 0.0 6.473031249999982
    vertex -2.194880532159099 16.31950000000002 5.774369467841017
    vertex -2.7309825730791117 16.31950000000002 6.473031249999982
  endloop
endfacet
facet normal 0.6087614290087175 0.0 0.7933533402912377
  outer loop
    vertex -1.4962187499999222 0.0 5.238267426921055
    vertex -2.194880532159099 16.31950000000002 5.774369467841017
    vertex -2.194880532159099 0.0 5.774369467841017
  endloop
endfacet
facet normal 0.6087614290087175 0.0 0.7933533402912377
  outer loop
    vertex -2.194880532159099 16.31950000000002 5.774369467841017
    vertex -1.4962187499999222 0.0 5.238267426921055
    vertex -1.4962187499999222 16.31950000000002 5.238267426921055
  endloop
endfacet
facet normal 0.3826834323650914 0.0 0.9238795325112861
  outer loop
    vertex -0.6826098724631877 0.0 4.901259595377891
    vertex -1.4962187499999222 16.31950000000002 5.238267426921055
    vertex -1.4962187499999222 0.0 5.238267426921055
  endloop
endfacet
facet normal 0.3826834323650914 0.0 0.9238795325112861
  outer loop
    vertex -1.4962187499999222 16.31950000000002 5.238267426921055
    vertex -0.6826098724631877 0.0 4.901259595377891
    vertex -0.6826098724631877 16.31950000000002 4.901259595377891
  endloop
endfacet
facet normal 0.13052619222005188 0.0 0.9914448613738104
  outer loop
    vertex 0.19049999999991662 0.0 4.786312499999957
    vertex -0.6826098724631877 16.31950000000002 4.901259595377891
    vertex -0.6826098724631877 0.0 4.901259595377891
  endloop
endfacet
facet normal 0.13052619222005188 0.0 0.9914448613738104
  outer loop
    vertex -0.6826098724631877 16.31950000000002 4.901259595377891
    vertex 0.19049999999991662 0.0 4.786312499999957
    vertex 0.19049999999991662 16.31950000000002 4.786312499999957
  endloop
endfacet
facet normal -0.1305261922200557 0.0 0.9914448613738099
  outer loop
    vertex 1.0636098724630532 0.0 4.901259595377876
    vertex 0.19049999999991662 16.31950000000002 4.786312499999957
    vertex 0.19049999999991662 0.0 4.786312499999957
  endloop
endfacet
facet normal -0.1305261922200557 0.0 0.9914448613738099
  outer loop
    vertex 0.19049999999991662 16.31950000000002 4.786312499999957
    vertex 1.0636098724630532 0.0 4.901259595377876
    vertex 1.0636098724630532 16.31950000000002 4.901259595377876
  endloop
endfacet
facet normal -0.3826834323650887 0.0 0.9238795325112874
  outer loop
    vertex 1.8772187500000346 0.0 5.238267426920945
    vertex 1.0636098724630532 16.31950000000002 4.901259595377876
    vertex 1.0636098724630532 0.0 4.901259595377876
  endloop
endfacet
facet normal -0.3826834323650887 0.0 0.9238795325112874
  outer loop
    vertex 1.0636098724630532 16.31950000000002 4.901259595377876
    vertex 1.8772187500000346 0.0 5.238267426920945
    vertex 1.8772187500000346 16.31950000000002 5.238267426920945
  endloop
endfacet
facet normal -0.6087614290087153 0.0 0.7933533402912394
  outer loop
    vertex 2.575880532159043 0.0 5.774369467841059
    vertex 1.8772187500000346 16.31950000000002 5.238267426920945
    vertex 1.8772187500000346 0.0 5.238267426920945
  endloop
endfacet
facet normal -0.6087614290087153 0.0 0.7933533402912394
  outer loop
    vertex 1.8772187500000346 16.31950000000002 5.238267426920945
    vertex 2.575880532159043 0.0 5.774369467841059
    vertex 2.575880532159043 16.31950000000002 5.774369467841059
  endloop
endfacet
facet normal -0.7933533402912345 0.0 0.6087614290087214
  outer loop
    vertex 3.1119825730790205 16.31950000000002 6.473031250000134
    vertex 2.575880532159043 0.0 5.774369467841059
    vertex 3.1119825730790205 0.0 6.473031250000134
  endloop
endfacet
facet normal -0.7933533402912345 0.0 0.6087614290087214
  outer loop
    vertex 2.575880532159043 0.0 5.774369467841059
    vertex 3.1119825730790205 16.31950000000002 6.473031250000134
    vertex 2.575880532159043 16.31950000000002 5.774369467841059
  endloop
endfacet
facet normal -0.9238795325112895 0.0 0.3826834323650836
  outer loop
    vertex 3.4489904046219944 16.31950000000002 7.286640127537008
    vertex 3.1119825730790205 0.0 6.473031250000134
    vertex 3.4489904046219944 0.0 7.286640127537008
  endloop
endfacet
facet normal -0.9238795325112895 0.0 0.3826834323650836
  outer loop
    vertex 3.1119825730790205 0.0 6.473031250000134
    vertex 3.4489904046219944 16.31950000000002 7.286640127537008
    vertex 3.1119825730790205 16.31950000000002 6.473031250000134
  endloop
endfacet
facet normal -0.9914448613738104 0.0 0.1305261922200527
  outer loop
    vertex 3.5639374999999105 16.31950000000002 8.159750000000018
    vertex 3.4489904046219944 0.0 7.286640127537008
    vertex 3.5639374999999105 0.0 8.159750000000018
  endloop
endfacet
facet normal -0.9914448613738104 0.0 0.1305261922200527
  outer loop
    vertex 3.4489904046219944 0.0 7.286640127537008
    vertex 3.5639374999999105 16.31950000000002 8.159750000000018
    vertex 3.4489904046219944 16.31950000000002 7.286640127537008
  endloop
endfacet
facet normal -0.9914448613738099 0.0 -0.1305261922200557
  outer loop
    vertex 3.4489904046218793 16.31950000000002 9.032859872462963
    vertex 3.5639374999999105 0.0 8.159750000000018
    vertex 3.4489904046218793 0.0 9.032859872462963
  endloop
endfacet
facet normal -0.9914448613738099 0.0 -0.1305261922200557
  outer loop
    vertex 3.5639374999999105 0.0 8.159750000000018
    vertex 3.4489904046218793 16.31950000000002 9.032859872462963
    vertex 3.5639374999999105 16.31950000000002 8.159750000000018
  endloop
endfacet
facet normal -0.9238795325112874 0.0 -0.3826834323650887
  outer loop
    vertex 3.111982573079082 16.31950000000002 9.846468750000115
    vertex 3.4489904046218793 0.0 9.032859872462963
    vertex 3.111982573079082 0.0 9.846468750000115
  endloop
endfacet
facet normal -0.9238795325112874 0.0 -0.3826834323650887
  outer loop
    vertex 3.4489904046218793 0.0 9.032859872462963
    vertex 3.111982573079082 16.31950000000002 9.846468750000115
    vertex 3.4489904046218793 16.31950000000002 9.032859872462963
  endloop
endfacet
facet normal -0.7933533402912365 0.0 -0.6087614290087191
  outer loop
    vertex 2.5758805321589033 16.31950000000002 10.54513053215894
    vertex 3.111982573079082 0.0 9.846468750000115
    vertex 2.5758805321589033 0.0 10.54513053215894
  endloop
endfacet
facet normal -0.7933533402912365 0.0 -0.6087614290087191
  outer loop
    vertex 3.111982573079082 0.0 9.846468750000115
    vertex 2.5758805321589033 16.31950000000002 10.54513053215894
    vertex 3.111982573079082 16.31950000000002 9.846468750000115
  endloop
endfacet
facet normal -0.6087614290087207 0.0 -0.7933533402912352
  outer loop
    vertex 2.5758805321589033 16.31950000000002 10.54513053215894
    vertex 1.8772187499999606 0.0 11.08123257307901
    vertex 1.8772187499999606 16.31950000000002 11.08123257307901
  endloop
endfacet
facet normal -0.6087614290087207 0.0 -0.7933533402912352
  outer loop
    vertex 1.8772187499999606 0.0 11.08123257307901
    vertex 2.5758805321589033 16.31950000000002 10.54513053215894
    vertex 2.5758805321589033 0.0 10.54513053215894
  endloop
endfacet
facet normal -0.38268343236509705 0.0 -0.923879532511284
  outer loop
    vertex 1.8772187499999606 16.31950000000002 11.08123257307901
    vertex 1.0636098724629106 0.0 11.418240404621912
    vertex 1.0636098724629106 16.31950000000002 11.418240404621912
  endloop
endfacet
facet normal -0.38268343236509705 0.0 -0.923879532511284
  outer loop
    vertex 1.0636098724629106 0.0 11.418240404621912
    vertex 1.8772187499999606 16.31950000000002 11.08123257307901
    vertex 1.8772187499999606 0.0 11.08123257307901
  endloop
endfacet
endsolid string to bolt
